<svg xmlns="http://www.w3.org/2000/svg" width="88.246" height="80.281" viewBox="0 0 88.246 80.281"><g transform="translate(0.816 0.851)"><g transform="translate(-0.816 -0.851)"><g transform="translate(0 0)"><path d="M-265.7,125.966c-.286-.014-.587.109-.851-.1A1.4,1.4,0,0,1-265.7,125.966Z" transform="translate(297.752 -90.48)" fill="#2a373b"/><path d="M-258.9,126.657c-.238.007-.487.1-.7-.089A1.046,1.046,0,0,1-258.9,126.657Z" transform="translate(292.153 -91.046)" fill="#2a373b"/><path d="M-383.958-39.717a17.879,17.879,0,0,1,2-2.335A37.677,37.677,0,0,1-363.347-52.9a23.057,23.057,0,0,1,3.519-.653c.135.387-.194.5-.416.628-1.333.77-2.658,1.552-4,2.313-1.439.818-2.856,1.674-4.3,2.494a.785.785,0,0,0-.4.362.575.575,0,0,1-.274.212,33.2,33.2,0,0,0-4.7,2.684,1.51,1.51,0,0,1-.572.3.794.794,0,0,0-.475.127c-2.69,1.52-5.362,3.071-8.032,4.626a1.9,1.9,0,0,1-.583.283C-383.733-39.494-383.942-39.424-383.958-39.717Z" transform="translate(392.291 53.981)" fill="#283036"/><path d="M-203.578,264.862a32.123,32.123,0,0,1-6.533,1.306c-.116-.354.169-.475.383-.6,1.556-.91,3.124-1.8,4.68-2.706a13.438,13.438,0,0,0,2.322-1.457,16.881,16.881,0,0,1,2.164-.913,34.845,34.845,0,0,0,9.044-5.666,7.2,7.2,0,0,1,1.295-1.093,2.312,2.312,0,0,0,.828-.333c1.9-1.1,3.8-2.223,5.725-3.285.14-.077.369-.411.51.03a34.052,34.052,0,0,1-4.386,5.251c-.116.119-.246.223-.371.334-3.3,1.838-6.539,3.767-9.815,5.638-1.653.945-3.3,1.907-4.951,2.852A3.882,3.882,0,0,0-203.578,264.862Z" transform="translate(252.321 -190.397)" fill="#399584"/><path d="M-396.839-3.151c.219.267.434.073.62-.033,1.359-.777,2.71-1.57,4.066-2.354q2.184-1.259,4.373-2.51c.125-.072.265-.175.4,0A19.624,19.624,0,0,1-389.263-6.5a39.776,39.776,0,0,0-4.7,4.708,2.235,2.235,0,0,1-.637.627A12.543,12.543,0,0,0-397.03.115c-.789.435-1.552.916-2.353,1.329-.167.086-.436.354-.572-.073a24.228,24.228,0,0,1,2.038-3.16,9.834,9.834,0,0,1,1.077-1.364Z" transform="translate(405.172 17.414)" fill="#293237"/><path d="M-307.008-49.547c.058-.429.48-.443.742-.6,1.194-.728,2.416-1.41,3.627-2.109l4.206-2.426c.246-.142.516-.256.569-.583a24.49,24.49,0,0,1,3.725-.4c.564-.035,1.134-.013,1.7-.017.039.344-.246.442-.461.572-1.227.739-2.473,1.447-3.715,2.161a5.288,5.288,0,0,0-1.024.712c-.991.3-2.019.426-3.024.653a32.838,32.838,0,0,0-5.592,1.853C-306.491-49.632-306.721-49.463-307.008-49.547Z" transform="translate(330.327 55.698)" fill="#293237"/><path d="M-100.827,232.74c-.056-.112-.127-.128-.239-.063q-2.378,1.375-4.759,2.744c-.475.274-.948.555-1.422.832a1.013,1.013,0,0,1-.616.169c-.1-.208.074-.311.183-.416a34.537,34.537,0,0,0,4.184-4.822.844.844,0,0,1,.33-.3c1.253-.564,2.39-1.335,3.586-2,.263-.146.521-.3.789-.438.184-.093.38-.24.6-.059A27.5,27.5,0,0,1-100.827,232.74Z" transform="translate(169.989 -172.987)" fill="#389181"/><path d="M-176.468,288.88c-.034-.286.21-.365.383-.467,1.478-.867,2.964-1.722,4.448-2.583q4.8-2.775,9.6-5.543a3.279,3.279,0,0,1,1.228-.538q-.743.676-1.482,1.352a32.273,32.273,0,0,1-4.823,3.6A36.072,36.072,0,0,1-176.468,288.88Z" transform="translate(225.212 -214.412)" fill="#3a9987"/><path d="M-409.214,29.948c.189.254.369.05.52-.035,1.259-.71,2.505-1.441,3.767-2.146.327-.182.614-.5,1.051-.411a5.747,5.747,0,0,1-.938,1.406c-.689.987-1.306,2.019-1.913,3.055-.116.2-.2.428-.448.515a3.05,3.05,0,0,0-1.341.63c-.739.421-1.473.85-2.212,1.27-.213.121-.433.346-.725.152a27.015,27.015,0,0,1,2.241-4.434Z" transform="translate(414.432 -11.161)" fill="#293439"/><path d="M-259.018-52.392a12.841,12.841,0,0,1,2.31-1.451c.818-.509,1.663-.975,2.5-1.457a1.049,1.049,0,0,0,.419-.416,21.976,21.976,0,0,1,3.218.124c.2.084.429-.017.632.072l.373.027c.166.079.353-.005.52.066v-.005c.05.284-.181.367-.356.475-.8.5-1.627.97-2.456,1.425-.465.256-.883.587-1.348.844-.756.1-1.521-.055-2.274.093a4.743,4.743,0,0,1-.878.045,1.443,1.443,0,0,0-.594.059c-.488.055-.975.123-1.461.194a.646.646,0,0,1-.6-.1Z" transform="translate(291.682 55.729)" fill="#293439"/><path d="M-150.753-32.343a12.623,12.623,0,0,1,2.192,1.219c.49.3.954.644,1.43.968.051.174-.089.241-.192.3-.832.5-1.652,1.033-2.529,1.46a.84.84,0,0,1-.469-.158c-.962-.575-1.916-1.169-2.925-1.661a.554.554,0,0,1-.26-.229c-.068-.256.109-.366.288-.465C-152.386-31.363-151.578-31.869-150.753-32.343Z" transform="translate(206.731 36.901)" fill="#2c4345"/><path d="M-216.794,308.918a3.979,3.979,0,0,1-1.5,1.029c-1.834,1.084-3.692,2.125-5.538,3.187a.678.678,0,0,0-.4.48l-.465.03c-.205.084-.43-.012-.635.069a10.809,10.809,0,0,1-2.316.1c-.112-.3.158-.371.322-.465,1.323-.766,2.639-1.546,3.969-2.3a6.305,6.305,0,0,0,1.18-.821c1.663-.406,3.336-.782,4.959-1.335C-217.079,308.846-216.928,308.793-216.794,308.918Z" transform="translate(266.443 -237.838)" fill="#389282"/><path d="M-416.7,54.417a5.281,5.281,0,0,0,1.587-.791c.742-.4,1.459-.849,2.194-1.262.141-.08.3-.253.484-.045a.6.6,0,0,1-.109.566,28.019,28.019,0,0,0-1.346,2.852c-.076.164-.115.356-.307.438a2.125,2.125,0,0,0-1.013.4c-.7.423-1.413.819-2.121,1.225-.192.109-.378.3-.637.148a21.209,21.209,0,0,1,1.267-3.529Z" transform="translate(419.679 -31.194)" fill="#2a373b"/><path d="M-259.62,321.346a18.707,18.707,0,0,1-3.6-.406.979.979,0,0,1,.473-.426c.917-.544,1.838-1.079,2.772-1.594.321-.178.6-.418.913-.6,1.361.133,2.722-.122,4.082.005.387.289.034.425-.14.54-.526.35-1.079.657-1.627.97-.808.462-1.623.911-2.409,1.412C-259.3,321.333-259.44,321.429-259.62,321.346Z" transform="translate(295.067 -245.443)" fill="#388d7e"/><path d="M-228.571-51.572a5.928,5.928,0,0,1,1.8-1.194c.627-.4,1.285-.752,1.93-1.122a.772.772,0,0,0,.307-.317,14.937,14.937,0,0,1,3.352.61,1.513,1.513,0,0,0,.346.03c.116.337-.192.389-.364.49-.633.37-1.259.752-1.9,1.108a3.018,3.018,0,0,0-1.167.886c-1.008-.039-2-.224-3.008-.283a2.686,2.686,0,0,0-.79-.068C-228.24-51.439-228.431-51.416-228.571-51.572Z" transform="translate(267.165 54.505)" fill="#2a373b"/><path d="M-187.933-47.306a23.6,23.6,0,0,1,3.616,1.3c.14.315-.126.411-.307.524-.871.542-1.767,1.04-2.655,1.553a8.066,8.066,0,0,1-1.951-.535,6.842,6.842,0,0,1-1.838-.556c-.089-.336.176-.436.387-.556.712-.408,1.408-.841,2.131-1.229A1.7,1.7,0,0,0-187.933-47.306Z" transform="translate(236.98 48.95)" fill="#2a3c3f"/><path d="M-425.188,92.013a21.254,21.254,0,0,1,.7-3.933,2,2,0,0,0,.987-.433c.655-.356,1.288-.755,1.951-1.1.178-.092.431-.295.55.1-.285,1.254-.494,2.526-.9,3.75-.94.5-1.863,1.032-2.783,1.567C-424.842,92.055-425,92.17-425.188,92.013Z" transform="translate(425.491 -58.728)" fill="#2a3c3f"/><path d="M-171.3-38.617a16.853,16.853,0,0,1,2.019-1.274c.308-.229.787-.258.9-.73a18.137,18.137,0,0,1,3.316,1.612c-.4.542-1.055.712-1.582,1.073a9.571,9.571,0,0,1-.914.511.342.342,0,0,0-.217.307c-.167.13-.322.033-.465-.039a28.238,28.238,0,0,0-2.67-1.138C-171.068-38.353-171.29-38.369-171.3-38.617Z" transform="translate(221.048 43.567)" fill="#2b4042"/><path d="M-355.661,283.294a22.768,22.768,0,0,1-3.017-2.336c.867-.594,1.8-1.082,2.713-1.589a.539.539,0,0,1,.411.155c.739.577,1.485,1.147,2.272,1.657a.529.529,0,0,1,.3.376.436.436,0,0,1-.246.356C-354.044,282.363-354.82,282.887-355.661,283.294Z" transform="translate(371.934 -214.105)" fill="#34736a"/><path d="M-70.354,201.036a21.909,21.909,0,0,1-1.2,3.115c-1.292.821-2.64,1.546-3.964,2.313a.583.583,0,0,1-.564.1c-.085-.16,0-.289.077-.416a26.312,26.312,0,0,0,1.439-2.837.618.618,0,0,1,.28-.338,23.491,23.491,0,0,0,2.815-1.533c.221-.119.438-.244.657-.365C-70.668,200.994-70.519,200.892-70.354,201.036Z" transform="translate(144.4 -150.97)" fill="#388c7d"/><path d="M-426.359,108.509a6.577,6.577,0,0,0,1.531-.789c.416-.2.809-.455,1.213-.683a.78.78,0,0,1,.471-.135,1.04,1.04,0,0,1,.034.636c-.127.921-.242,1.843-.3,2.771a.534.534,0,0,1-.094.279,14.474,14.474,0,0,0-2.506,1.3c-.194.1-.371.321-.63.134v-.1c.1-.373-.031-.761.072-1.133A10.6,10.6,0,0,1-426.359,108.509Z" transform="translate(426.662 -75.225)" fill="#2b4042"/><path d="M-244.732,319.441l1.841-1.067c.861-.5,1.724-.993,2.58-1.5.131-.078.315-.138.334-.341a1.244,1.244,0,0,1,.844-.229c.878-.079,1.747-.2,2.616-.343.189-.03.4-.107.559.079-.177.429-.607.546-.955.749-1.374.8-2.761,1.588-4.137,2.387-.132.077-.315.137-.334.34a17.485,17.485,0,0,1-3.348-.072Z" transform="translate(280.179 -243.536)" fill="#389081"/><path d="M-51.3,104.7a15.855,15.855,0,0,1,.4,2.91c.093.752.091.749-.529,1.1-.55.311-1.091.64-1.642.95a.746.746,0,0,0-.427.719c0,.2.108.48-.2.59a.392.392,0,0,1-.158-.348c.021-1.393-.159-2.775-.259-4.16.039-.169.187-.219.318-.291C-52.955,105.7-52.118,105.217-51.3,104.7Z" transform="translate(126.687 -73.453)" fill="#34736a"/><path d="M-134.705-19.387c.676-.541,1.481-.871,2.194-1.351.178-.119.35-.246.524-.368a18.87,18.87,0,0,1,2.621,1.989c.044.374-.283.457-.5.587-.667.4-1.349.771-2.008,1.182a.152.152,0,0,1-.1,0c-.95-.569-1.811-1.263-2.711-1.9C-134.724-19.277-134.721-19.337-134.705-19.387Z" transform="translate(191.588 27.851)" fill="#2d4949"/><path d="M-107.6-1.835a22.653,22.653,0,0,1,2.3,2.4c.012.339-.285.413-.491.55-.615.411-1.312.691-1.893,1.158-.176.043-.285-.072-.391-.176q-.966-.95-1.916-1.916a.489.489,0,0,1-.178-.347c.087-.269.341-.347.55-.473C-108.941-1.038-108.234-1.379-107.6-1.835Z" transform="translate(171.816 12.334)" fill="#2e504f"/><path d="M-420.094,183.163a18.281,18.281,0,0,1-.906-3.116c.091-.246.333-.317.528-.431.561-.327,1.122-.648,1.686-.97.192-.109.389-.226.575.016a17.217,17.217,0,0,1,.782,3.051,15.063,15.063,0,0,1-2.473,1.46A.219.219,0,0,1-420.094,183.163Z" transform="translate(422.119 -132.897)" fill="#2e504f"/><path d="M-53.555,91.791c-.013.048-.011.12-.042.14a13.106,13.106,0,0,1-2.673,1.495.5.5,0,0,1-.213-.381c-.113-.794-.312-1.57-.434-2.361a.712.712,0,0,1,.421-.72c.75-.426,1.493-.865,2.24-1.3a17.989,17.989,0,0,1,.7,3.12Z" transform="translate(128.943 -60.544)" fill="#336e66"/><path d="M-57.851,76.66c-.134.406-.561.434-.849.634a12.979,12.979,0,0,1-1.429.821.434.434,0,0,0-.252.487.155.155,0,0,1-.119-.024.155.155,0,0,1-.065-.1c-.25-1.017-.613-2-.819-3.034a.441.441,0,0,1,.192-.338,15.352,15.352,0,0,1,2.432-1.352A15.984,15.984,0,0,1-57.851,76.66Z" transform="translate(132.537 -48.534)" fill="#326962"/><path d="M-365.006,271.109c-.818.49-1.636.982-2.458,1.466a.887.887,0,0,1-.287.055,24.859,24.859,0,0,1-2.195-2.016c.008-.049.018-.11.056-.136a12.756,12.756,0,0,1,2.632-1.455,9.5,9.5,0,0,1,1.55,1.3C-365.438,270.545-365.047,270.679-365.006,271.109Z" transform="translate(381.007 -205.776)" fill="#336e66"/><path d="M-343.188,292.266a7.09,7.09,0,0,1,1.4-.929c.4-.286.934-.38,1.225-.829a10.131,10.131,0,0,1,2.108,1.088c.258.142.626.173.721.544a15.012,15.012,0,0,1-2.276,1.4c-.216.127-.39.379-.7.319A17.562,17.562,0,0,1-343.188,292.266Z" transform="translate(359.461 -223.076)" fill="#34786d"/><path d="M-418.183,74.876c-.178-.183-.311.007-.434.074-.855.475-1.7.969-2.554,1.442-.125.069-.315.377-.438-.022a13.671,13.671,0,0,1,.705-2.6,22.42,22.42,0,0,0,2.573-1.411c.262-.145.53-.281.8-.42.122-.064.246-.124.353.025a.3.3,0,0,1,.022.328c-.271.772-.526,1.548-.783,2.324C-417.977,74.733-417.994,74.892-418.183,74.876Z" transform="translate(422.609 -47.018)" fill="#2a393d"/><path d="M-200.117-50.228c.129.255-.089.315-.235.4q-1.195.7-2.4,1.4c-.186.107-.393.184-.487.4a.426.426,0,0,1-.421.082c-.717-.142-1.431-.3-2.157-.4a.461.461,0,0,1-.335-.2c-.164-.246,0-.34.192-.448q1.36-.766,2.707-1.557c.164-.1.372-.16.416-.39a11.584,11.584,0,0,1,2.291.626,3.318,3.318,0,0,1,.425.08Z" transform="translate(249.163 51.872)" fill="#2a393d"/><path d="M-63.211,62.243a21.938,21.938,0,0,1-2.038,1.234c-.184.112-.394.187-.489.4-.154.017-.2-.1-.239-.208-.286-.8-.6-1.583-.9-2.376A.52.52,0,0,1-66.9,61a2.646,2.646,0,0,1,1.047-.723,8.471,8.471,0,0,1,1.525-.823,16.533,16.533,0,0,1,1.119,2.785Z" transform="translate(136.989 -37.022)" fill="#31655f"/><path d="M-375.592,260.088a29.038,29.038,0,0,0-2.7,1.505,26.643,26.643,0,0,1-2.019-2.206,3.664,3.664,0,0,1,1.2-.785,9.97,9.97,0,0,1,1.4-.781c.373.147.558.505.836.758.368.335.715.7,1.059,1.056C-375.706,259.759-375.518,259.861-375.592,260.088Z" transform="translate(389.358 -196.755)" fill="#326962"/><path d="M-54.228,161.106a22.517,22.517,0,0,1-.5,3.312c-.929.417-1.789.962-2.67,1.467-.231.132-.472.361-.772.121a1.245,1.245,0,0,1,.077-.772c.141-.662.274-1.326.475-1.974a.845.845,0,0,1,.392-.376c.79-.405,1.522-.915,2.319-1.305C-54.654,161.453-54.5,161.195-54.228,161.106Z" transform="translate(129.987 -118.874)" fill="#368275"/><path d="M-385.189,248.633a28.308,28.308,0,0,1-2.611,1.508,19.452,19.452,0,0,1-1.809-2.311c.07-.213.264-.3.434-.392.552-.312,1.1-.624,1.649-.947a.62.62,0,0,1,.514-.137,10.159,10.159,0,0,1,1.47,1.673C-385.391,248.2-385.118,248.323-385.189,248.633Z" transform="translate(396.841 -187.509)" fill="#31655f"/><path d="M-52.63,123a1.387,1.387,0,0,1,1.02-1.734c.38-.148.7-.459,1.077-.61a.84.84,0,0,0,.63-1.009,11.7,11.7,0,0,1,.182,1.913c.027.543.013,1.089.017,1.633a1.1,1.1,0,0,1-.46.374c-.7.368-1.357.8-2.051,1.167a.649.649,0,0,0-.309.535c-.03.144-.059.386-.292.133a5.089,5.089,0,0,1,.186-2.4Z" transform="translate(125.691 -85.489)" fill="#34786d"/><path d="M-63,190.629a16.957,16.957,0,0,0-2.229,1.193,4.783,4.783,0,0,1-1.691.811.35.35,0,0,1-.016-.377c.31-.712.59-1.437.852-2.167a.482.482,0,0,1,.148-.2c1-.461,1.93-1.058,2.889-1.6.232-.132.458-.373.772-.172A14.923,14.923,0,0,1-63,190.629Z" transform="translate(137.047 -140.564)" fill="#37887a"/><path d="M-426.641,127.012a7.264,7.264,0,0,0,1.524-.8c.356-.173.684-.4,1.036-.588.133-.072.285-.214.439-.019a1.015,1.015,0,0,1,.144.861c-.116.917.045,1.829.01,2.744a2.49,2.49,0,0,1-.057.693c-.186.267-.261.084-.3-.089a4.922,4.922,0,0,1-.031-1c0-.323-.112-.39-.39-.222-.616.373-1.228.753-1.879,1.063-.184.087-.416.236-.5-.127Z" transform="translate(426.661 -90.21)" fill="#2c4345"/><path d="M-305.415,311.637a15.2,15.2,0,0,1-2.61-.995c0-.219.157-.323.31-.416.865-.518,1.766-.976,2.6-1.544a.47.47,0,0,1,.238-.059,13.607,13.607,0,0,1,2.59.832c.048.279-.166.381-.348.489-.632.377-1.263.756-1.906,1.113A7.236,7.236,0,0,0-305.415,311.637Z" transform="translate(331.146 -237.662)" fill="#368275"/><path d="M-420.752,167.346c-.556.03-.923.457-1.393.67-.452.205-.871.486-1.3.734a16.6,16.6,0,0,1-.594-2.809c.772-.386,1.506-.843,2.264-1.259.178-.1.373-.336.61-.072.137.722.31,1.436.44,2.159C-420.695,166.958-420.6,167.159-420.752,167.346Z" transform="translate(424.569 -121.599)" fill="#2d4c4b"/><path d="M-426.681,140.962c.125.213.274.112.419.03.68-.387,1.363-.772,2.036-1.169.339-.2.445-.141.452.267a3.18,3.18,0,0,0,.086,1.374,1.052,1.052,0,0,1,.1.913c-.347.435-.9.556-1.331.864a9.162,9.162,0,0,1-1,.575c-.178.1-.393.258-.557-.04l-.03-.376c-.1-.236.018-.493-.074-.73A8.283,8.283,0,0,1-426.681,140.962Z" transform="translate(426.703 -101.646)" fill="#2c4647"/><path d="M-115.72-9.127c-.208.53-.785.558-1.17.849-.419.317-.945.475-1.343.834-.223.056-.321-.132-.46-.238-.449-.343-.857-.735-1.3-1.09-.119-.1-.306-.166-.252-.383a7.208,7.208,0,0,1,1.709-1.1c.288-.194.636-.3.816-.634a6.9,6.9,0,0,1,1.356,1.229A2.01,2.01,0,0,0-115.72-9.127Z" transform="translate(179.939 19.626)" fill="#2d4c4b"/><path d="M-82.3,219.753c1.146-.5,2.176-1.21,3.271-1.8a3.308,3.308,0,0,1,1.239-.61,16.516,16.516,0,0,1-1.051,2.222,7.2,7.2,0,0,0-2,1c-.853.456-1.684.953-2.524,1.428a.842.842,0,0,1-.465.167c-.082-.142-.007-.261.066-.371.411-.63.832-1.254,1.224-1.9C-82.487,219.807-82.425,219.718-82.3,219.753Z" transform="translate(150.638 -164.159)" fill="#388e7e"/><path d="M-97.576,12.2c.188-.491.717-.523,1.075-.785A6.235,6.235,0,0,0-95.17,10.5a15.144,15.144,0,0,1,1.621,1.978c.119.2-.008.321-.152.406a16.5,16.5,0,0,1-2.244,1.259.356.356,0,0,1-.308-.133c-.414-.5-.833-.987-1.237-1.491a.319.319,0,0,1-.085-.321Z" transform="translate(161.693 2.4)" fill="#2f5552"/><path d="M-416.349,196.552c.7-.4,1.4-.806,2.1-1.2a4.186,4.186,0,0,1,.5-.2c.033.01.076.016.089.042a7.1,7.1,0,0,1,.855,2.366c-.725.49-1.494.907-2.257,1.336a.362.362,0,0,1-.421-.017A14.449,14.449,0,0,1-416.349,196.552Z" transform="translate(418.374 -146.286)" fill="#2f5552"/><path d="M-314.547,304.768c-1.02.675-2.167,1.144-3.128,1.916a13.053,13.053,0,0,1-2.333-1.1,6.783,6.783,0,0,1,1.57-1.024c.46-.292.935-.561,1.4-.856a11.38,11.38,0,0,1,2.447.928C-314.552,304.656-314.547,304.717-314.547,304.768Z" transform="translate(340.795 -233.705)" fill="#367f73"/><path d="M-267.925,317.669c-.044.359-.395.387-.614.519-1.128.684-2.278,1.327-3.421,1.985a9.436,9.436,0,0,1-2.1-.406c-.062-.187.069-.292.19-.367,1.161-.719,2.336-1.418,3.538-2.07a16.939,16.939,0,0,1,1.962.155A.585.585,0,0,1-267.925,317.669Z" transform="translate(303.806 -244.674)" fill="#378a7b"/><path d="M-51.722,150.3c-.256.6-.9.666-1.366.978-.614.414-1.277.757-1.918,1.129a.237.237,0,0,1-.1-.219,17.128,17.128,0,0,1,.4-2.343c.683-.471,1.416-.861,2.141-1.262a2.682,2.682,0,0,0,1.045-.9A15.343,15.343,0,0,1-51.722,150.3Z" transform="translate(127.481 -108.065)" fill="#367f73"/><path d="M-50.164,139.774a.994.994,0,0,1-.637.816c-.706.37-1.385.794-2.074,1.2a.657.657,0,0,1-.383.093,1.875,1.875,0,0,1,.115-1.708c-.024-.64.411-.91.9-1.162.712-.365,1.4-.766,2.105-1.151A13.362,13.362,0,0,1-50.164,139.774Z" transform="translate(126.124 -100.155)" fill="#357b70"/><path d="M-325.461,299.723c-.257.432-.734.556-1.129.792-.6.358-1.206.7-1.811,1.043a11.6,11.6,0,0,1-2.027-1.1c.953-.624,1.94-1.19,2.946-1.722a.32.32,0,0,1,.331.03c.445.223.9.423,1.358.627C-325.647,299.458-325.469,299.512-325.461,299.723Z" transform="translate(349.185 -229.676)" fill="#357b70"/><path d="M-392.413,238.207a6.728,6.728,0,0,0-1.488.766c-.39.178-.748.426-1.12.643a15.123,15.123,0,0,1-1.31-1.909.3.3,0,0,1,.129-.208,27.412,27.412,0,0,1,2.387-1.36.434.434,0,0,1,.3.238c.319.482.667.944.987,1.425C-392.45,237.921-392.333,238.04-392.413,238.207Z" transform="translate(402.255 -179.297)" fill="#31615c"/><path d="M-407.061,219.473a13.68,13.68,0,0,1-1.121-2.209,9.73,9.73,0,0,0,2.047-1.04c.218-.111.413-.305.694-.195.368.566.655,1.177.98,1.766a.4.4,0,0,1,.036.379c-.706.493-1.478.872-2.219,1.306A.342.342,0,0,1-407.061,219.473Z" transform="translate(411.796 -163.075)" fill="#2f5a56"/><path d="M-68.393,50.993A19.6,19.6,0,0,1-70.917,52.5c-.051,0-.116,0-.135-.039a7.56,7.56,0,0,1-.906-2.067,12.084,12.084,0,0,1,1.811-1.12,1.385,1.385,0,0,1,.769-.327,12.252,12.252,0,0,1,.985,2.047Z" transform="translate(141.053 -28.557)" fill="#31615c"/><path d="M-81.2,29.218a13.163,13.163,0,0,1,1.158,1.819c.055.252-.16.307-.306.393q-1.058.624-2.112,1.256c-.017,0-.04.005-.049,0a4.929,4.929,0,0,1-1.3-2.053.968.968,0,0,1,.451-.381c.537-.3,1.074-.608,1.6-.927C-81.587,29.217-81.415,29.1-81.2,29.218Z" transform="translate(150.596 -12.631)" fill="#2f5a56"/><path d="M-58.034,180.094A8.743,8.743,0,0,0-60,181.106a6.067,6.067,0,0,1-1.638.8.252.252,0,0,1-.059-.274c.171-.583.359-1.161.547-1.738a.307.307,0,0,1,.2-.2,9,9,0,0,0,1.967-1.006c.475-.208.843-.666,1.432-.6A11.589,11.589,0,0,1-58.034,180.094Z" transform="translate(132.805 -132.541)" fill="#368578"/><path d="M-402.427,228.445a9.526,9.526,0,0,0,1.932-1,2.41,2.41,0,0,1,.673-.31,3.564,3.564,0,0,1,1.107,1.808l-2.524,1.512a14.8,14.8,0,0,1-1.188-2.014Z" transform="translate(407.163 -172.048)" fill="#305e59"/><path d="M-77.118,40.392a6.006,6.006,0,0,1,1.52-1.019,3.567,3.567,0,0,0,.9-.606,12.745,12.745,0,0,1,1.121,1.983c-.835.5-1.661,1.022-2.543,1.442a.2.2,0,0,1-.219-.081,15.062,15.062,0,0,1-.821-1.533.175.175,0,0,1,.042-.186Z" transform="translate(145.25 -20.36)" fill="#305e59"/><path d="M-278.838,315.92c-.924.679-1.961,1.171-2.934,1.77a1.642,1.642,0,0,0-.692.547,9.465,9.465,0,0,1-2.011-.5c-.135-.293.109-.377.28-.484.6-.379,1.227-.725,1.852-1.069.409-.224.772-.512,1.167-.755a14.391,14.391,0,0,1,2.2.308.158.158,0,0,1,.105.062A.158.158,0,0,1-278.838,315.92Z" transform="translate(312.214 -243.144)" fill="#37877a"/><path d="M-289.393,313.44c-.354.594-1.032.723-1.553,1.078-.449.306-.938.552-1.415.816-.14.077-.249.161-.252.334a10.251,10.251,0,0,1-2.007-.62c.139-.491.635-.542.977-.772.7-.469,1.49-.79,2.146-1.331a.376.376,0,0,1,.374-.063q.725.169,1.453.331C-289.548,313.24-289.4,313.26-289.393,313.44Z" transform="translate(320.351 -241.073)" fill="#368577"/><path d="M-425.6,155.171c.3.178.49-.08.712-.188a14.81,14.81,0,0,1,2.085-1.121,3.43,3.43,0,0,1,.29,2.111c-.673.386-1.34.784-2.024,1.15-.232.125-.441.374-.761.259a13.034,13.034,0,0,1-.3-2.212Z" transform="translate(425.826 -113.041)" fill="#2d4949"/><path d="M-85.593,22.368a27.934,27.934,0,0,0-2.573,1.425,2.286,2.286,0,0,1-1.1-1.5c.695-.416,1.387-.835,2.084-1.247.158-.093.338-.157.338-.386A12.364,12.364,0,0,1-85.593,22.368Z" transform="translate(154.989 -5.78)" fill="#2f5754"/><path d="M-408.452,209.237a16.265,16.265,0,0,0-2.07,1.128c-.212.119-.4.232-.635.077a8.493,8.493,0,0,1-.72-1.6,6.761,6.761,0,0,0,1.785-.92,3.427,3.427,0,0,1,.846-.4A2.882,2.882,0,0,1-408.452,209.237Z" transform="translate(414.774 -156.255)" fill="#2f5754"/><path d="M-426.642,126.871a2.889,2.889,0,0,1-.072,1.133A3.148,3.148,0,0,1-426.642,126.871Z" transform="translate(426.736 -91.307)" fill="#2c4345"/><path d="M-426.191,154.908c.162.229.057.486.074.729A1.4,1.4,0,0,1-426.191,154.908Z" transform="translate(426.312 -113.884)" fill="#2d4949"/><path d="M-215.651,333.5c.2-.151.422-.059.635-.069A1,1,0,0,1-215.651,333.5Z" transform="translate(256.761 -257.622)" fill="#399584"/><path d="M-408.109,9.541l-.8-1.709-.9-2.412-.813-3.114a24.251,24.251,0,0,1-.5-2.814q-.146-1.055-.29-2.111,0-.5-.006-1c.024-1.473-.095-2.947,0-4.421a10.174,10.174,0,0,0,.2-1.611c.113-.7.2-1.406.3-2.109.3-1.275.523-2.565.906-3.819L-409-18.5c.383-.68.64-1.419.968-2.124.266-.572.56-1.131.842-1.7.657-1.052,1.3-2.114,1.981-3.15a11.922,11.922,0,0,1,1.335-1.779c.874-1.03,1.807-2.008,2.721-3,1.091-1.182,2.363-2.146,3.555-3.207a7.362,7.362,0,0,1,.958-.622,33.846,33.846,0,0,1,5.419-3.116.476.476,0,0,0,.109-.1,33.817,33.817,0,0,1,7.9-2.518,6.918,6.918,0,0,0,1.442-.3c.712.012,1.4-.249,2.111-.2.152-.114.353.024.5-.1l.9,0a29.766,29.766,0,0,1,3.717,0,25.4,25.4,0,0,1,3.115.3l2.913.509,3.818,1.107,3.518,1.5c1.254.584,2.409,1.349,3.616,2.015l2.815,2.008,2.009,1.711q1.156,1.259,2.411,2.416a20.307,20.307,0,0,0,1.606,1.913,8.764,8.764,0,0,0,1.1,1.5,17.17,17.17,0,0,0,1.31,2.019,11.232,11.232,0,0,0,1,1.8l1,2.109,1.116,2.918.906,3.212q.257,1.406.514,2.812a33.925,33.925,0,0,1,.322,4.5c0,.042.045.085.07.128.015.837-.149,1.67-.082,2.507a15.9,15.9,0,0,0-.114,1.708L-341.959.9l-.619,2.813-.69,2.212-1.04,2.706-1.79,3.524-1.527,2.405a45.674,45.674,0,0,1-4.686,5.438c-1.137,1.009-2.282,2.006-3.512,2.9a34.774,34.774,0,0,1-8.736,4.636c-.078.03-.152.07-.227.1a44.965,44.965,0,0,1-5.426,1.423c-1.336.2-2.672.389-4.02.493-1.44-.032-2.88.151-4.321,0l-2.507-.219-2.416-.409-2.1-.5-2.606-.808-2.524-1.015-2.019-.985c-.723-.412-1.448-.823-2.167-1.239-.215-.123-.423-.261-.634-.391l-2.9-2.1-2.235-2-2.114-2.21-1.812-2.212-1.393-2.012a20.163,20.163,0,0,0-1.107-1.808C-407.324,10.9-407.869,10.292-408.109,9.541Z" transform="translate(414.43 43.441)" fill="#192123"/><path d="M-237.236-40.643h-3.717a3.567,3.567,0,0,1,1.366-.093c.347-.025.7-.005,1.046-.006C-238.108-40.687-237.657-40.859-237.236-40.643Z" transform="translate(277.136 43.677)" fill="#293237"/><path d="M-247.676-40.176c-.142.164-.333.077-.5.1C-248.037-40.242-247.846-40.152-247.676-40.176Z" transform="translate(282.954 43.211)" fill="#293237"/><path d="M-305.016,104.541a1.93,1.93,0,0,1-2.1.076c-.486-1.6-.849-3.23-1.289-4.84-1.117-4.093-2.192-8.2-3.291-12.295a1.41,1.41,0,0,1-.059-.684c.012-.133.109-.2.2-.274a20.027,20.027,0,0,1,3.3-.906,5.2,5.2,0,0,1,.679-.148,1.206,1.206,0,0,1,.626,1.234c.35-.66.416-1.514,1.326-1.7a6.9,6.9,0,0,0,.832-.159.37.37,0,0,1,.232.062.845.845,0,0,1,.232.49q1.426,6.062,2.88,12.118a1.628,1.628,0,0,1,.067.395,3.641,3.641,0,0,1-.642,1.393c-.863,1.578-1.714,3.162-2.605,4.725A2.461,2.461,0,0,1-305.016,104.541Z" transform="translate(334.165 -57.462)" fill="#1fc8a7"/><path d="M-230.387,153.634a.842.842,0,0,1-.383.4,12.691,12.691,0,0,1-2.511.681c-3.484.823-6.966,1.657-10.452,2.473-1.71.4-3.417.818-5.13,1.207a.934.934,0,0,1-.542.027c-.246-.18-.07-.359.014-.523.655-1.279,1.378-2.522,2.07-3.781,1.215-2.21,2.419-4.428,3.652-6.627.23-.411.345-.915.817-1.161a4.124,4.124,0,0,1,1.316.589c2.183,1.192,4.37,2.376,6.552,3.57,1.448.794,2.924,1.537,4.335,2.4A2.8,2.8,0,0,1-230.387,153.634Z" transform="translate(284.043 -106.974)" fill="#1fc8a7"/><path d="M-267.285,190.2c1.528-.267,3.022-.683,4.529-1.036,4.606-1.077,9.207-2.176,13.811-3.263a2.131,2.131,0,0,1,.348-.025,25.391,25.391,0,0,1-2.735,1.746q-7.913,4.876-15.839,9.728c-.626.385-1.247.776-1.879,1.153a1.921,1.921,0,0,1-2.57-.386c-.112-.16,0-.287.069-.413,1.314-2.4,2.628-4.8,3.961-7.195C-267.515,190.381-267.457,190.236-267.285,190.2Z" transform="translate(301.868 -138.822)" fill="#198889"/><path d="M-282.991,38.045l-.208,0c-.1.067-.185.055-.23-.071-.274-.062.387-.071,0-.2-.556-.181-1.174-.314-1.425-.962-.047-.121-.125-.238-.049-.376,1.286-.774,2.578-1.539,3.859-2.324q5.79-3.549,11.573-7.108a2.009,2.009,0,0,1,2.745.376,24.728,24.728,0,0,1-1.428,2.7c-.843,1.56-1.708,3.107-2.561,4.662a1.4,1.4,0,0,1-.461.583q-2.309.653-4.666,1.1c-.463.123-.926.252-1.4.354-.807.213-1.613.425-2.433.584q-1.348.3-2.687.63A1.042,1.042,0,0,1-282.991,38.045Z" transform="translate(312.549 -10.588)" fill="#198889"/><path d="M-269.513,115.288l-4.335,7.917a1.7,1.7,0,0,1-.531-1.717q.568-2.378,1.147-4.753a2.409,2.409,0,0,1,.359-.765q7.476-11.229,14.95-22.461a1.441,1.441,0,0,1,.657-.664c.106.221-.046.386-.133.556-.461.91-.979,1.787-1.463,2.682a4.762,4.762,0,0,0-.375.817,15.737,15.737,0,0,0-.966,1.633c-.44.768-.865,1.544-1.271,2.33-.386.73-.821,1.433-1.192,2.172a.511.511,0,0,1-.221.258,9.878,9.878,0,0,0-1.071,1.8c-1.858,3.342-3.692,6.7-5.532,10.049A.46.46,0,0,0-269.513,115.288Z" transform="translate(304.097 -63.908)" fill="#68fde1"/><path d="M-264.816,38.345c1.212-2.194,2.418-4.391,3.64-6.579A4.87,4.87,0,0,1-260.4,30.5a2.1,2.1,0,0,1,.383,1.978c-.376,1.464-.726,2.936-1.089,4.4a2.58,2.58,0,0,1-.383.808q-7.468,11.214-14.929,22.433a1.466,1.466,0,0,1-.662.661l3.12-5.716a4.16,4.16,0,0,0,.416-.853,14.064,14.064,0,0,1,1.2-2.365c.364-.7.761-1.376,1.125-2.073.645-1.045,1.2-2.138,1.8-3.212.4-.745.794-1.49,1.21-2.225.926-1.619,1.807-3.263,2.71-4.9a5.369,5.369,0,0,1,.684-1.095Z" transform="translate(306.225 -13.703)" fill="#68fde1"/><path d="M-171.6,110.22c-.29-.15-.208-.457-.293-.694a11.737,11.737,0,0,1-.763-2.455,10.382,10.382,0,0,0-.438-1.369c-.235-1.136-.619-2.236-.843-3.375a21.8,21.8,0,0,0-.733-2.633q-.884-3.32-1.757-6.642c-.057-.216-.234-.475.1-.639a1.787,1.787,0,0,1,.881.917q2.657,5.365,5.309,10.733a1.67,1.67,0,0,1,.162,1.3C-170.5,106.987-170.968,108.63-171.6,110.22Z" transform="translate(225.252 -63.56)" fill="#68fde1"/><path d="M-318.8,94.882q.886,3.286,1.77,6.573,1.409,5.271,2.8,10.546c.058.219.261.449.069.7a1.783,1.783,0,0,1-.818-.846q-2.648-5.347-5.3-10.69a2.19,2.19,0,0,1-.113-1.742c.438-1.324.866-2.651,1.306-3.973A1.123,1.123,0,0,1-318.8,94.882Z" transform="translate(341.213 -65.548)" fill="#68fde1"/><path d="M-192.6,91.276c-.159.148-.059.3-.016.462q.873,3.282,1.742,6.564c.021.077.066.157,0,.235a.643.643,0,0,1-.514-.135c-1.689-.9-3.363-1.83-5.053-2.73-.117-.062-.237-.128-.267-.277-.122-.344.156-.555.285-.808.555-1.086,1.225-2.109,1.724-3.226a1.9,1.9,0,0,1,2.1-.085Z" transform="translate(241.538 -62.422)" fill="#1fc8a7"/><path d="M-294.812,73.533c.177.8.855,1,1.5,1.236.3.109.244.183.006.283-.168.208-.431.192-.651.276a1.3,1.3,0,0,0-.856.9c-.109.258-.213.518-.334.813a8.559,8.559,0,0,0-.643-1.324,5.455,5.455,0,0,1-1.413-.749c-.059-.07-.041-.109.046-.13a2.4,2.4,0,0,0,1.96-2.143Z" transform="translate(322.46 -47.68)" fill="#fdfefe"/><path d="M-307.99,84.363a3.524,3.524,0,0,1,1.413.749,6.659,6.659,0,0,1-1.744.5c-.758.219-1.539.356-2.31.53a24.175,24.175,0,0,1,2.3-1.494C-308.207,84.561-308.055,84.515-307.99,84.363Z" transform="translate(333.245 -57.077)" fill="#19898a"/><path d="M-269.433,90.557c-.4.989-1,1.877-1.49,2.823-.282.545-.61,1.067-.917,1.6q-1.52-6.384-3.04-12.766c-.023-.1-.059-.192-.087-.287,1.084-.338,2.2-.563,3.305-.8a.9.9,0,0,1,.29.566q1,4.138,1.971,8.282a.771.771,0,0,1-.032.585Z" transform="translate(304.526 -54.47)" fill="#a4e8db"/><path d="M-280.4,85.077a1.657,1.657,0,0,1,.653-.277l.2.087A1.51,1.51,0,0,1-280.4,85.077Z" transform="translate(308.9 -57.429)" fill="#2aa197"/><path d="M-204.083,138.742a4.989,4.989,0,0,1,.539,1.68c.2.712.373,1.432.557,2.148l-4.67-2.516q-3.741-2.027-7.48-4.062c.327-.893.9-1.655,1.311-2.506.219-.1.389.03.561.126,2.913,1.612,5.846,3.188,8.772,4.776A.92.92,0,0,1-204.083,138.742Z" transform="translate(256.347 -96.605)" fill="#a4e8db"/><path d="M-220.475,203.938a1.261,1.261,0,0,0,.9-1.049,1.314,1.314,0,0,0,1.095,1.04,1.247,1.247,0,0,0-1.074,1.043A1.265,1.265,0,0,0-220.475,203.938Z" transform="translate(260.646 -152.521)" fill="#f9fbfb"/><path d="M-255.77,88.112c-.339-1.46-.673-2.92-1.018-4.379-.4-1.685-.807-3.369-1.211-5.052l2.422-.592a.878.878,0,0,1,.227.489c.445,1.878.887,3.758,1.344,5.633a1.238,1.238,0,0,1,.045.686A25.944,25.944,0,0,1-255.77,88.112Z" transform="translate(290.863 -52.024)" fill="#1fc8a7"/><path d="M-233.631,70.787a19.341,19.341,0,0,1-1.158,2.206c-.611,1.147-1.241,2.283-1.868,3.421a4.2,4.2,0,0,1-.286.4c-.229-.137-.246-.386-.3-.606-.249-1.084-.513-2.165-.765-3.249a6.108,6.108,0,0,0-.345-1.089Z" transform="translate(275.039 -46.145)" fill="#1fc8a7"/><path d="M-244.152,76.362c.249.009.264.194.309.38.362,1.522.731,3.043,1.1,4.564l-1.2,2.2c-.582-2.259-1.13-4.526-1.615-6.808Z" transform="translate(280.843 -50.634)" fill="#a4e8db"/><path d="M-198.666,129.321l-9.2-5c-.175-.1-.361-.172-.542-.258.434-.768.8-1.576,1.3-2.3.313-.057.543.144.783.278,2.119,1.182,4.27,2.305,6.388,3.485a1,1,0,0,1,.455.378c.25.994.5,1.986.749,2.98A4.379,4.379,0,0,1-198.666,129.321Z" transform="translate(250.93 -87.184)" fill="#1fc8a7"/><path d="M-194.087,119.309l-7.627-4.141a4.817,4.817,0,0,1,1-1.6l5.834,3.143a6.252,6.252,0,0,1,.573,1.685,6.407,6.407,0,0,1,.221.916Z" transform="translate(245.538 -80.591)" fill="#a4e8db"/><path d="M-252.94,89.561A1.226,1.226,0,0,0-251.9,88.53a1.242,1.242,0,0,0,1.037,1.01c-.535.192-.908.423-1.015.954a1.341,1.341,0,0,0-1.067-.934Z" transform="translate(286.788 -60.433)" fill="#fafdfc"/></g></g><g transform="translate(52.354 44.354)"><path d="M35.075,17.538A17.538,17.538,0,1,0,17.538,35.075,17.538,17.538,0,0,0,35.075,17.538Z" transform="translate(0 0)" fill="#28b788"/><path d="M182.893,105.726v2.07a1.523,1.523,0,0,1-1.56,1.56,1.562,1.562,0,0,1-1.56-1.56v-3.311c0-.032.032-.032.032-.064-.032-.032-.032-.032-.032-.064a1.606,1.606,0,0,1,1.56-1.56,3.566,3.566,0,1,0,0-7.132,3.518,3.518,0,0,0-3.056,1.751,1.571,1.571,0,0,1-2.165.573,1.552,1.552,0,0,1-.541-2.133,6.692,6.692,0,1,1,7.323,9.87Zm0,6.973v.573a1.523,1.523,0,0,1-1.56,1.56,1.562,1.562,0,0,1-1.56-1.56V112.7a1.584,1.584,0,0,1,1.56-1.56,1.543,1.543,0,0,1,1.56,1.56Z" transform="translate(-163.336 -86.205)" fill="#fff"/><path d="M4.718,17.538A17.541,17.541,0,0,1,19.9.158a17.538,17.538,0,1,0-2.359,34.917,17.679,17.679,0,0,0,2.356-.158A17.541,17.541,0,0,1,4.718,17.538Z" transform="translate(0 0)" opacity="0.1"/></g></g></svg>