<svg xmlns="http://www.w3.org/2000/svg" width="449.999" height="512" viewBox="0 0 449.999 512"><g transform="translate(-1014 1697)"><g transform="translate(982.999 -1697)"><path d="M476.605,186.4a15,15,0,0,0-21.211,0L399.789,242H112.211l-55.6-55.6a15,15,0,0,0-21.211,21.211L91,263.211V497a14.991,14.991,0,0,0,15,15H406a14.991,14.991,0,0,0,15-15V263.211l55.605-55.6A14.994,14.994,0,0,0,476.605,186.4Z" fill="#5cddbd"/><path d="M256,512H406a14.991,14.991,0,0,0,15-15V263.211l55.605-55.6A15,15,0,0,0,455.394,186.4L399.789,242H256Z" fill="#71d9ed"/><path d="M256,212a14.948,14.948,0,0,1-10.6-4.4l-90-90A15,15,0,0,1,166,92h30V15A14.991,14.991,0,0,1,211,0h90a14.991,14.991,0,0,1,15,15V92h30a15,15,0,0,1,10.6,25.606l-90,90A14.951,14.951,0,0,1,256,212Z" fill="#5bc3ad"/><path d="M356.605,117.605A15,15,0,0,0,346,92H316V15A14.991,14.991,0,0,0,301,0H256V212a14.948,14.948,0,0,0,10.605-4.4Z" fill="#75cbdb"/><g transform="translate(178.001 303.805)"><g transform="translate(-0.001 0.001)"><path d="M-264.808,126.1c-.587-.029-1.205.222-1.747-.2A2.865,2.865,0,0,1-264.808,126.1Z" transform="translate(330.575 -53.278)" fill="#2a373b"/><path d="M-258.166,126.777c-.488.015-1,.208-1.437-.183A2.147,2.147,0,0,1-258.166,126.777Z" transform="translate(326.402 -53.7)" fill="#2a373b"/><g transform="translate(0 0)"><path d="M-383.958-25.158a36.7,36.7,0,0,1,4.1-4.791,77.319,77.319,0,0,1,38.194-22.266,47.322,47.322,0,0,1,7.227-1.341c.278.794-.4,1.025-.853,1.289-2.735,1.58-5.455,3.186-8.2,4.747-2.953,1.679-5.862,3.436-8.816,5.119a1.612,1.612,0,0,0-.823.742,1.178,1.178,0,0,1-.56.434,68.14,68.14,0,0,0-9.644,5.509,3.1,3.1,0,0,1-1.174.621,1.628,1.628,0,0,0-.975.261c-5.52,3.12-11,6.3-16.482,9.491a3.9,3.9,0,0,1-1.2.581C-383.5-24.7-383.928-24.557-383.958-25.158Z" transform="translate(401.058 54.427)" fill="#283036"/><path d="M-196.676,280.585a65.918,65.918,0,0,1-13.407,2.681c-.238-.727.348-.975.785-1.228,3.193-1.866,6.41-3.689,9.6-5.553a27.574,27.574,0,0,0,4.765-2.99,34.7,34.7,0,0,1,4.44-1.873,71.511,71.511,0,0,0,18.559-11.628,14.768,14.768,0,0,1,2.657-2.243,4.744,4.744,0,0,0,1.7-.684c3.907-2.263,7.793-4.561,11.748-6.739.287-.159.757-.841,1.046.061a69.877,69.877,0,0,1-9,10.775c-.238.244-.507.457-.761.685-6.764,3.772-13.419,7.73-20.142,11.573-3.393,1.94-6.767,3.913-10.16,5.854A7.968,7.968,0,0,0-196.676,280.585Z" transform="translate(296.705 -127.771)" fill="#399584"/><path d="M-393.561,2.107c.452.548.891.15,1.273-.068,2.788-1.6,5.559-3.222,8.344-4.828q4.482-2.586,8.974-5.151c.257-.147.544-.359.817-.006a40.243,40.243,0,0,1-3.861,3.188,81.628,81.628,0,0,0-9.649,9.663,4.585,4.585,0,0,1-1.307,1.286,25.722,25.722,0,0,0-4.984,2.621c-1.619.892-3.186,1.879-4.828,2.728-.343.178-.9.726-1.174-.149a49.712,49.712,0,0,1,4.183-6.485,20.168,20.168,0,0,1,2.211-2.8Z" transform="translate(410.662 27.162)" fill="#293237"/><path d="M-307.008-43.089c.119-.88.985-.91,1.523-1.239,2.45-1.494,4.958-2.893,7.444-4.328l8.632-4.978c.506-.291,1.058-.525,1.168-1.2a50.259,50.259,0,0,1,7.644-.813c1.158-.073,2.328-.026,3.494-.034.079.707-.5.907-.947,1.173-2.518,1.518-5.074,2.968-7.624,4.434a10.847,10.847,0,0,0-2.1,1.458c-2.033.61-4.143.874-6.206,1.341a67.388,67.388,0,0,0-11.475,3.8C-305.947-43.262-306.418-42.916-307.008-43.089Z" transform="translate(354.861 55.708)" fill="#293237"/><path d="M-93.395,237.407c-.116-.229-.26-.262-.492-.129q-4.879,2.821-9.765,5.63c-.975.564-1.946,1.138-2.917,1.708a2.079,2.079,0,0,1-1.265.347c-.2-.426.152-.638.376-.853a70.873,70.873,0,0,0,8.586-9.9,1.732,1.732,0,0,1,.678-.61c2.572-1.158,4.9-2.74,7.36-4.105.539-.3,1.07-.617,1.619-.9.377-.192.781-.492,1.229-.122a56.433,56.433,0,0,1-5.409,8.926Z" transform="translate(235.323 -114.788)" fill="#389181"/><path d="M-176.465,298.488c-.069-.587.43-.749.785-.958,3.035-1.779,6.083-3.534,9.129-5.3q9.848-5.7,19.7-11.375a6.731,6.731,0,0,1,2.52-1.1q-1.524,1.387-3.041,2.775a66.231,66.231,0,0,1-9.9,7.39A74.031,74.031,0,0,1-176.465,298.488Z" transform="translate(276.494 -145.672)" fill="#3a9987"/><path d="M-406.859,32.692c.389.521.757.1,1.067-.072,2.581-1.457,5.141-2.957,7.729-4.4.67-.374,1.26-1.025,2.158-.841a11.8,11.8,0,0,1-1.924,2.885c-1.414,2.025-2.681,4.144-3.927,6.269-.238.408-.412.879-.919,1.056a6.294,6.294,0,0,0-2.755,1.291c-1.515.864-3.022,1.744-4.54,2.606-.437.248-.889.71-1.487.311a55.448,55.448,0,0,1,4.6-9.1Z" transform="translate(417.568 5.86)" fill="#293439"/><path d="M-259.018-48.878c1.371-1.322,3.156-1.99,4.74-2.975,1.679-1.044,3.412-2,5.123-2.991a2.154,2.154,0,0,0,.861-.853,45.1,45.1,0,0,1,6.6.255c.419.172.88-.035,1.3.147l.765.057c.34.162.724-.011,1.066.135v-.011c.1.582-.37.752-.731.975-1.646,1.032-3.339,1.99-5.041,2.925-.957.526-1.812,1.2-2.765,1.732-1.551.2-3.122-.111-4.667.191a9.735,9.735,0,0,1-1.8.092,2.961,2.961,0,0,0-1.219.122c-1,.11-2,.252-3,.4A1.326,1.326,0,0,1-259.018-48.878Z" transform="translate(326.05 55.724)" fill="#293439"/><path d="M-147.843-32.343a25.906,25.906,0,0,1,4.5,2.5c1.006.616,1.958,1.321,2.935,1.985.1.357-.183.5-.4.624-1.708,1.036-3.39,2.12-5.191,3a1.723,1.723,0,0,1-.963-.324c-1.975-1.18-3.931-2.4-6-3.409a1.138,1.138,0,0,1-.533-.47c-.139-.525.227-.751.591-.953C-151.194-30.332-149.536-31.371-147.843-32.343Z" transform="translate(262.717 41.693)" fill="#2c4345"/><path d="M-205.348,309c-.744,1.108-2.011,1.482-3.074,2.111-3.763,2.224-7.575,4.361-11.365,6.541a1.39,1.39,0,0,0-.823.985l-.957.061c-.421.172-.882-.024-1.3.142a22.179,22.179,0,0,1-4.753.21c-.229-.624.324-.761.66-.955,2.716-1.571,5.415-3.173,8.147-4.716a12.926,12.926,0,0,0,2.422-1.686c3.412-.834,6.846-1.6,10.176-2.74C-205.933,308.852-205.624,308.743-205.348,309Z" transform="translate(307.234 -163.137)" fill="#389282"/><path d="M-415.366,56.728a10.817,10.817,0,0,0,3.256-1.623c1.524-.82,2.993-1.739,4.5-2.589.289-.163.621-.52.993-.091a1.226,1.226,0,0,1-.223,1.162A57.488,57.488,0,0,0-409.6,59.44c-.156.339-.235.728-.629.9a4.36,4.36,0,0,0-2.078.813c-1.434.867-2.9,1.68-4.353,2.514-.391.224-.776.62-1.306.3a43.534,43.534,0,0,1,2.6-7.241Z" transform="translate(421.476 -9.075)" fill="#2a373b"/><path d="M-255.831,324.569a38.387,38.387,0,0,1-7.39-.834,2.011,2.011,0,0,1,.97-.874c1.882-1.116,3.772-2.215,5.688-3.271.659-.366,1.227-.858,1.873-1.241,2.793.272,5.586-.251,8.377.012.794.592.069.871-.288,1.108-1.079.718-2.214,1.346-3.339,1.99-1.657.948-3.332,1.869-4.943,2.9C-255.168,324.541-255.462,324.737-255.831,324.569Z" transform="translate(328.574 -168.807)" fill="#388d7e"/><path d="M-228.571-48.8c.945-1.249,2.453-1.656,3.7-2.451,1.286-.822,2.637-1.542,3.961-2.305a1.584,1.584,0,0,0,.63-.65,30.656,30.656,0,0,1,6.879,1.251,3.1,3.1,0,0,0,.71.061c.238.691-.392.8-.746,1.005-1.3.758-2.581,1.542-3.9,2.275a6.2,6.2,0,0,0-2.394,1.818c-2.068-.079-4.107-.461-6.172-.58a5.513,5.513,0,0,0-1.622-.139C-227.892-48.533-228.284-48.483-228.571-48.8Z" transform="translate(307.772 54.82)" fill="#2a373b"/><path d="M-184.616-47.306a48.421,48.421,0,0,1,7.421,2.671c.288.647-.26.845-.629,1.075-1.787,1.112-3.626,2.133-5.448,3.187a16.551,16.551,0,0,1-4-1.1,14.044,14.044,0,0,1-3.772-1.141c-.183-.689.362-.895.794-1.141,1.462-.838,2.89-1.725,4.374-2.523A3.5,3.5,0,0,0-184.616-47.306Z" transform="translate(285.267 50.677)" fill="#2a3c3f"/><path d="M-425.188,97.9a43.622,43.622,0,0,1,1.435-8.071,4.111,4.111,0,0,0,2.025-.888c1.345-.731,2.643-1.549,4-2.255.366-.189.885-.6,1.129.2-.585,2.573-1.015,5.183-1.853,7.7-1.93,1.026-3.823,2.118-5.712,3.217C-424.478,97.992-424.811,98.227-425.188,97.9Z" transform="translate(425.811 -29.603)" fill="#2a3c3f"/><path d="M-171.3-36.511c1.191-1.174,2.832-1.638,4.144-2.614.632-.471,1.615-.529,1.841-1.5a37.222,37.222,0,0,1,6.805,3.309c-.824,1.112-2.166,1.463-3.247,2.2a19.654,19.654,0,0,1-1.875,1.049.7.7,0,0,0-.445.631c-.342.267-.66.067-.953-.079a57.952,57.952,0,0,0-5.479-2.336C-170.824-35.968-171.281-36-171.3-36.511Z" transform="translate(273.389 46.665)" fill="#2b4042"/><path d="M-352.488,287.425a46.722,46.722,0,0,1-6.19-4.793c1.78-1.219,3.684-2.221,5.568-3.261a1.106,1.106,0,0,1,.841.318c1.516,1.185,3.047,2.353,4.661,3.4a1.086,1.086,0,0,1,.625.771.9.9,0,0,1-.5.731C-349.167,285.514-350.76,286.589-352.488,287.425Z" transform="translate(385.882 -145.441)" fill="#34736a"/><path d="M-64.291,201.112a44.956,44.956,0,0,1-2.462,6.393c-2.652,1.684-5.418,3.174-8.134,4.747a1.2,1.2,0,0,1-1.158.205c-.175-.327.01-.593.159-.853a53.992,53.992,0,0,0,2.953-5.823,1.267,1.267,0,0,1,.574-.694,47.994,47.994,0,0,0,5.777-3.147c.453-.244.9-.5,1.35-.749C-64.936,201.026-64.63,200.812-64.291,201.112Z" transform="translate(216.245 -98.371)" fill="#388c7d"/><path d="M-426.06,110.2c1.2-.236,2.079-1.107,3.142-1.62.853-.413,1.66-.934,2.49-1.4a1.6,1.6,0,0,1,.967-.278,2.133,2.133,0,0,1,.069,1.306c-.261,1.889-.5,3.782-.621,5.687a1.1,1.1,0,0,1-.193.573c-1.885.56-3.431,1.779-5.143,2.676-.4.206-.762.658-1.292.274v-.212c.2-.766-.065-1.561.148-2.326A21.755,21.755,0,0,1-426.06,110.2Z" transform="translate(426.682 -41.901)" fill="#2b4042"/><path d="M-244.731,323.151l3.778-2.19c1.767-1.025,3.541-2.038,5.294-3.085.269-.161.646-.284.685-.7a2.553,2.553,0,0,1,1.733-.47c1.8-.161,3.585-.419,5.368-.7.387-.061.812-.22,1.148.162-.363.88-1.245,1.12-1.96,1.538-2.819,1.65-5.667,3.256-8.49,4.9-.27.159-.647.282-.687.7a35.886,35.886,0,0,1-6.871-.148Z" transform="translate(317.473 -167.386)" fill="#389081"/><path d="M-48.333,104.7a32.533,32.533,0,0,1,.821,5.972c.191,1.544.187,1.538-1.084,2.255-1.13.638-2.239,1.312-3.37,1.95a1.531,1.531,0,0,0-.876,1.475c0,.418.221.986-.42,1.211a.8.8,0,0,1-.324-.715c.044-2.859-.326-5.694-.531-8.538.079-.347.383-.449.652-.6C-51.731,106.753-50.012,105.762-48.333,104.7Z" transform="translate(203.039 -40.58)" fill="#34736a"/><path d="M-134.694-17.579c1.387-1.109,3.039-1.787,4.5-2.771.366-.244.717-.5,1.075-.754a38.723,38.723,0,0,1,5.379,4.083c.09.767-.58.937-1.03,1.2-1.369.816-2.768,1.581-4.12,2.426a.312.312,0,0,1-.2,0c-1.95-1.167-3.717-2.591-5.564-3.905C-134.731-17.354-134.726-17.478-134.694-17.579Z" transform="translate(251.426 34.947)" fill="#2d4949"/><path d="M-104.9-1.835A46.486,46.486,0,0,1-100.169,3.1c.025.7-.585.847-1.007,1.13-1.262.845-2.692,1.417-3.885,2.377-.361.089-.585-.149-.8-.361q-1.982-1.95-3.931-3.931a1,1,0,0,1-.366-.712c.179-.552.7-.712,1.13-.971C-107.656-.2-106.2-.9-104.9-1.835Z" transform="translate(236.684 23.378)" fill="#2e504f"/><path d="M-419.141,188.05A37.522,37.522,0,0,1-421,181.656c.188-.506.684-.651,1.085-.884,1.152-.67,2.306-1.329,3.46-1.991.39-.224.8-.463,1.177.033a35.285,35.285,0,0,1,1.605,6.261,30.923,30.923,0,0,1-5.075,3A.452.452,0,0,1-419.141,188.05Z" transform="translate(423.296 -84.9)" fill="#2e504f"/><path d="M-50.015,95.077c-.027.1-.023.247-.087.288a26.84,26.84,0,0,1-5.484,3.068,1.024,1.024,0,0,1-.437-.782c-.232-1.628-.64-3.221-.89-4.845a1.462,1.462,0,0,1,.863-1.477c1.539-.874,3.063-1.775,4.6-2.661a36.918,36.918,0,0,1,1.437,6.405Z" transform="translate(204.72 -30.957)" fill="#336e66"/><path d="M-54.135,79.72c-.274.834-1.152.891-1.743,1.3a26.646,26.646,0,0,1-2.933,1.686.89.89,0,0,0-.516,1,.318.318,0,0,1-.245-.049.318.318,0,0,1-.133-.211c-.513-2.088-1.257-4.113-1.681-6.225a.9.9,0,0,1,.392-.693A31.551,31.551,0,0,1-56,73.756,32.8,32.8,0,0,1-54.135,79.72Z" transform="translate(207.402 -22.004)" fill="#326962"/><path d="M-359.81,273.3c-1.68,1.006-3.357,2.016-5.043,3.008a1.826,1.826,0,0,1-.588.114,51.02,51.02,0,0,1-4.5-4.137c.017-.1.036-.226.116-.278a26.168,26.168,0,0,1,5.4-2.986,19.491,19.491,0,0,1,3.18,2.666C-360.7,272.147-359.893,272.422-359.81,273.3Z" transform="translate(392.646 -139.235)" fill="#336e66"/><path d="M-343.188,294.115c.787-.9,1.942-1.238,2.881-1.906.825-.587,1.916-.779,2.515-1.7a20.829,20.829,0,0,1,4.326,2.232c.53.292,1.285.354,1.48,1.115a30.775,30.775,0,0,1-4.672,2.879c-.443.261-.8.778-1.43.655A36.046,36.046,0,0,1-343.188,294.115Z" transform="translate(376.583 -152.131)" fill="#34786d"/><path d="M-414.576,78.038c-.366-.374-.639.014-.89.152-1.754.975-3.483,1.988-5.242,2.958-.256.142-.647.774-.9-.046a28.058,28.058,0,0,1,1.447-5.335,46.144,46.144,0,0,0,5.281-2.9c.538-.3,1.088-.576,1.633-.861.25-.131.5-.255.724.05a.615.615,0,0,1,.046.675c-.556,1.584-1.079,3.177-1.607,4.769C-414.154,77.744-414.186,78.071-414.576,78.038Z" transform="translate(423.659 -20.872)" fill="#2a393d"/><path d="M-193.7-49.481c.265.522-.183.646-.481.823q-2.452,1.445-4.916,2.867c-.383.22-.806.377-1,.822a.874.874,0,0,1-.864.171c-1.472-.292-2.937-.619-4.427-.814a.945.945,0,0,1-.688-.4c-.335-.508,0-.7.394-.92q2.791-1.574,5.556-3.195c.334-.2.764-.329.853-.8a23.82,23.82,0,0,1,4.7,1.284,6.8,6.8,0,0,1,.871.164Z" transform="translate(294.35 52.851)" fill="#2a393d"/><path d="M-59.316,65.173A45.02,45.02,0,0,1-63.5,67.705c-.379.23-.809.383-1,.83-.315.034-.414-.211-.49-.426-.587-1.636-1.234-3.249-1.843-4.875a1.069,1.069,0,0,1-.055-.6,5.431,5.431,0,0,1,2.149-1.483,17.383,17.383,0,0,1,3.13-1.689A33.931,33.931,0,0,1-59.316,65.173Z" transform="translate(210.719 -13.419)" fill="#31655f"/><path d="M-370.622,262.473a60,60,0,0,0-5.55,3.087,54.659,54.659,0,0,1-4.144-4.527,7.521,7.521,0,0,1,2.462-1.611,20.449,20.449,0,0,1,2.867-1.6c.766.3,1.146,1.036,1.717,1.556.754.688,1.466,1.428,2.173,2.168C-370.857,261.8-370.471,262.006-370.622,262.473Z" transform="translate(398.872 -132.507)" fill="#326962"/><path d="M-50.031,161.106a46.217,46.217,0,0,1-1.036,6.8c-1.906.857-3.671,1.975-5.48,3.011-.474.271-.968.741-1.584.248a2.549,2.549,0,0,1,.159-1.584c.29-1.358.56-2.722.975-4.05a1.735,1.735,0,0,1,.8-.772c1.621-.831,3.124-1.878,4.758-2.678C-50.9,161.818-50.6,161.289-50.031,161.106Z" transform="translate(205.5 -74.444)" fill="#368275"/><path d="M-380.538,251.042a58.076,58.076,0,0,1-5.357,3.094,39.919,39.919,0,0,1-3.712-4.743c.144-.437.541-.61.89-.8,1.133-.641,2.263-1.28,3.384-1.943a1.271,1.271,0,0,1,1.055-.28,20.86,20.86,0,0,1,3.015,3.434C-380.955,250.148-380.392,250.406-380.538,251.042Z" transform="translate(404.45 -125.611)" fill="#31655f"/><path d="M-52.363,126.528c-.383-1.823.42-2.9,2.093-3.559.781-.3,1.43-.942,2.211-1.253a1.723,1.723,0,0,0,1.292-2.072,24,24,0,0,1,.374,3.926c.055,1.115.026,2.235.035,3.352a2.263,2.263,0,0,1-.945.767c-1.43.755-2.785,1.636-4.209,2.4a1.332,1.332,0,0,0-.633,1.1c-.061.3-.122.792-.6.274a10.444,10.444,0,0,1,.383-4.928Z" transform="translate(202.294 -49.553)" fill="#34786d"/><path d="M-58.81,193.356a34.814,34.814,0,0,0-4.574,2.447c-1.143.58-2.107,1.541-3.47,1.663a.719.719,0,0,1-.033-.773c.635-1.463,1.21-2.949,1.747-4.447a.989.989,0,0,1,.3-.4c2.059-.947,3.961-2.171,5.929-3.29.477-.271.94-.766,1.584-.352a30.626,30.626,0,0,1-1.489,5.155Z" transform="translate(210.763 -90.616)" fill="#37887a"/><path d="M-426.641,128.589c1.188-.264,2.067-1.123,3.127-1.636.731-.354,1.407-.821,2.125-1.206.273-.147.585-.44.9-.04a2.084,2.084,0,0,1,.3,1.767c-.238,1.883.093,3.754.021,5.63a5.118,5.118,0,0,1-.117,1.423c-.382.548-.536.172-.61-.183a10.088,10.088,0,0,1-.065-2.056c0-.662-.229-.8-.8-.455-1.264.765-2.52,1.545-3.855,2.181-.377.179-.853.484-1.022-.261Z" transform="translate(426.683 -53.071)" fill="#2c4345"/><path d="M-302.669,314.807a31.191,31.191,0,0,1-5.356-2.043c-.008-.448.321-.662.635-.853,1.775-1.064,3.623-2,5.339-3.169a.966.966,0,0,1,.488-.121,27.925,27.925,0,0,1,5.315,1.708c.1.572-.341.783-.715,1-1.3.773-2.591,1.551-3.912,2.283A14.837,14.837,0,0,0-302.669,314.807Z" transform="translate(355.472 -163.004)" fill="#368275"/><path d="M-417.292,170.353c-1.141.061-1.895.937-2.859,1.376-.928.421-1.787,1-2.673,1.507a34.053,34.053,0,0,1-1.218-5.765c1.584-.792,3.092-1.731,4.646-2.581.365-.2.766-.689,1.251-.148.283,1.481.635,2.948.9,4.43C-417.173,169.557-416.988,169.971-417.292,170.353Z" transform="translate(425.123 -76.478)" fill="#2d4c4b"/><path d="M-426.672,142.278c.257.437.564.229.86.061,1.395-.794,2.8-1.584,4.178-2.4.7-.411.913-.289.928.548a6.531,6.531,0,0,0,.176,2.819,2.159,2.159,0,0,1,.2,1.874c-.712.893-1.845,1.141-2.732,1.774a18.8,18.8,0,0,1-2.053,1.181c-.366.2-.807.53-1.142-.083l-.061-.771c-.2-.484.036-1.012-.153-1.5A16.982,16.982,0,0,1-426.672,142.278Z" transform="translate(426.717 -61.599)" fill="#2c4647"/><path d="M-110.957-7.269c-.426,1.088-1.611,1.146-2.4,1.744-.86.651-1.939.975-2.756,1.712-.458.116-.66-.272-.943-.488-.921-.7-1.759-1.509-2.661-2.236-.244-.2-.628-.34-.516-.787.943-1.1,2.35-1.488,3.507-2.261.592-.4,1.3-.623,1.675-1.3a14.172,14.172,0,0,1,2.784,2.52A4.125,4.125,0,0,0-110.957-7.269Z" transform="translate(242.742 28.812)" fill="#2d4c4b"/><path d="M-80.656,222.289c2.352-1.025,4.465-2.483,6.713-3.7a6.825,6.825,0,0,1,2.541-1.251,33.892,33.892,0,0,1-2.156,4.56c-1.559.294-2.75,1.331-4.1,2.051-1.75.935-3.455,1.956-5.179,2.93a1.727,1.727,0,0,1-.953.342c-.169-.29-.013-.535.135-.762.844-1.292,1.708-2.573,2.512-3.892C-81.04,222.4-80.914,222.217-80.656,222.289Z" transform="translate(220.894 -108.205)" fill="#388e7e"/><path d="M-97.563,13.986c.386-1.007,1.472-1.072,2.206-1.611.888-.652,2-.979,2.733-1.871A31.075,31.075,0,0,1-89.3,14.562c.244.407-.016.658-.312.834a33.865,33.865,0,0,1-4.606,2.581.727.727,0,0,1-.633-.274c-.849-1.017-1.71-2.025-2.539-3.06a.655.655,0,0,1-.175-.658Z" transform="translate(229.139 15.97)" fill="#2f5552"/><path d="M-416.349,198.03c1.437-.823,2.87-1.655,4.316-2.464a8.58,8.58,0,0,1,1.026-.42c.067.02.155.033.183.085a14.573,14.573,0,0,1,1.755,4.855c-1.488,1.005-3.066,1.86-4.631,2.742a.744.744,0,0,1-.863-.034A29.646,29.646,0,0,1-416.349,198.03Z" transform="translate(420.504 -94.88)" fill="#2f5552"/><path d="M-308.8,305.882c-2.094,1.385-4.448,2.348-6.419,3.931a26.784,26.784,0,0,1-4.789-2.25,13.922,13.922,0,0,1,3.222-2.1c.944-.6,1.92-1.152,2.864-1.756a23.34,23.34,0,0,1,5.021,1.9C-308.811,305.652-308.8,305.778-308.8,305.882Z" transform="translate(362.666 -160.055)" fill="#367f73"/><path d="M-261.456,318.025c-.091.736-.81.794-1.26,1.064-2.316,1.4-4.675,2.724-7.021,4.074a19.366,19.366,0,0,1-4.3-.834c-.126-.383.141-.6.39-.752,2.383-1.476,4.794-2.91,7.261-4.249a34.744,34.744,0,0,1,4.026.318A1.2,1.2,0,0,1-261.456,318.025Z" transform="translate(335.09 -168.232)" fill="#378a7b"/><path d="M-48.164,153.05c-.525,1.233-1.852,1.368-2.8,2.007-1.261.849-2.621,1.552-3.937,2.316a.487.487,0,0,1-.2-.447,35.15,35.15,0,0,1,.811-4.808c1.4-.967,2.906-1.767,4.393-2.591a5.5,5.5,0,0,0,2.144-1.841A31.485,31.485,0,0,1-48.164,153.05Z" transform="translate(203.631 -66.388)" fill="#367f73"/><path d="M-46.74,141.788a2.041,2.041,0,0,1-1.308,1.674c-1.45.76-2.842,1.631-4.257,2.458a1.35,1.35,0,0,1-.785.192,3.847,3.847,0,0,1,.235-3.5c-.049-1.313.84-1.866,1.849-2.385,1.463-.75,2.882-1.571,4.321-2.362A27.422,27.422,0,0,1-46.74,141.788Z" transform="translate(202.619 -60.488)" fill="#357b70"/><path d="M-320.235,300.793c-.528.887-1.506,1.14-2.316,1.625-1.225.735-2.475,1.43-3.717,2.14a23.8,23.8,0,0,1-4.161-2.251c1.955-1.28,3.98-2.443,6.045-3.534a.656.656,0,0,1,.679.061c.913.458,1.851.869,2.786,1.287C-320.618,300.25-320.252,300.36-320.235,300.793Z" transform="translate(368.92 -157.049)" fill="#357b70"/><path d="M-388.292,240.382c-1.172.221-2.011,1.1-3.053,1.573-.8.366-1.535.874-2.3,1.319a31.049,31.049,0,0,1-2.688-3.917.611.611,0,0,1,.265-.426,56.278,56.278,0,0,1,4.9-2.79.892.892,0,0,1,.619.488c.654.99,1.369,1.937,2.025,2.925C-388.367,239.8-388.126,240.039-388.292,240.382Z" transform="translate(408.487 -119.492)" fill="#31615c"/><path d="M-405.881,223.132a28.054,28.054,0,0,1-2.3-4.534c1.564-.386,2.8-1.416,4.2-2.133.446-.229.848-.626,1.424-.4.754,1.162,1.344,2.416,2.011,3.625a.823.823,0,0,1,.075.779c-1.448,1.011-3.035,1.789-4.554,2.681A.7.7,0,0,1-405.881,223.132Z" transform="translate(415.601 -107.399)" fill="#2f5a56"/><path d="M-64.642,53.145a40.258,40.258,0,0,1-5.179,3.089c-.1.01-.238.008-.278-.079a15.543,15.543,0,0,1-1.86-4.242,24.77,24.77,0,0,1,3.717-2.3,2.842,2.842,0,0,1,1.578-.67,25.14,25.14,0,0,1,2.022,4.2Z" transform="translate(213.749 -7.107)" fill="#31615c"/><path d="M-78.455,29.27A27.014,27.014,0,0,1-76.079,33c.112.516-.328.63-.628.807q-2.171,1.28-4.334,2.576c-.034,0-.082.011-.1-.007a10.116,10.116,0,0,1-2.669-4.215,1.985,1.985,0,0,1,.926-.782c1.1-.624,2.2-1.247,3.287-1.9C-79.247,29.267-78.893,29.027-78.455,29.27Z" transform="translate(220.863 4.765)" fill="#2f5a56"/><path d="M-54.158,182.219c-1.557.283-2.657,1.455-4.039,2.078-1.136.513-2.061,1.458-3.361,1.634a.516.516,0,0,1-.122-.56c.351-1.2.736-2.383,1.121-3.567a.63.63,0,0,1,.417-.411c1.558-.274,2.648-1.463,4.036-2.065.975-.426,1.731-1.366,2.939-1.234A23.779,23.779,0,0,1-54.158,182.219Z" transform="translate(207.599 -84.636)" fill="#368578"/><path d="M-402.427,229.82c1.488-.357,2.632-1.385,3.964-2.046a4.951,4.951,0,0,1,1.382-.635,7.314,7.314,0,0,1,2.272,3.711l-5.18,3.1A30.384,30.384,0,0,1-402.427,229.82Z" transform="translate(412.146 -114.087)" fill="#305e59"/><path d="M-77.063,42.1c.823-1.02,2.082-1.39,3.12-2.092a7.367,7.367,0,0,0,1.848-1.244,26.151,26.151,0,0,1,2.3,4.069c-1.713,1.036-3.408,2.1-5.219,2.96a.4.4,0,0,1-.45-.166,30.919,30.919,0,0,1-1.684-3.148A.36.36,0,0,1-77.063,42.1Z" transform="translate(216.879 -0.997)" fill="#305e59"/><path d="M-272.867,316.436c-1.9,1.393-4.025,2.4-6.021,3.632a3.368,3.368,0,0,0-1.42,1.123,19.431,19.431,0,0,1-4.126-1.024c-.278-.6.225-.774.575-.993,1.239-.778,2.518-1.489,3.8-2.194.84-.461,1.585-1.051,2.4-1.549a29.264,29.264,0,0,1,4.521.633.324.324,0,0,1,.216.128A.324.324,0,0,1-272.867,316.436Z" transform="translate(341.358 -167.092)" fill="#37877a"/><path d="M-283.894,314.055c-.727,1.219-2.119,1.484-3.187,2.211-.92.627-1.926,1.133-2.9,1.674-.288.159-.512.33-.516.685a21.032,21.032,0,0,1-4.119-1.273c.286-1.007,1.3-1.112,2.006-1.584,1.433-.963,3.058-1.621,4.4-2.732a.771.771,0,0,1,.768-.129q1.489.346,2.981.679C-284.212,313.643-283.907,313.685-283.894,314.055Z" transform="translate(347.424 -165.551)" fill="#368577"/><path d="M-425.6,156.548c.616.365,1-.163,1.462-.386,1.456-.711,2.7-1.817,4.28-2.3a7.04,7.04,0,0,1,.6,4.333c-1.381.792-2.749,1.61-4.153,2.361-.477.256-.9.767-1.562.531a26.757,26.757,0,0,1-.623-4.539Z" transform="translate(426.058 -70.095)" fill="#2d4949"/><path d="M-81.732,24.16a57.106,57.106,0,0,0-5.281,2.925,4.692,4.692,0,0,1-2.255-3.078c1.426-.853,2.846-1.714,4.276-2.56.325-.192.694-.322.694-.792a25.376,25.376,0,0,1,2.566,3.505Z" transform="translate(224.142 9.875)" fill="#2f5754"/><path d="M-404.848,211.037a33.392,33.392,0,0,0-4.249,2.315c-.434.244-.823.477-1.3.159a17.436,17.436,0,0,1-1.478-3.284c1.4-.282,2.448-1.245,3.662-1.889a7.022,7.022,0,0,1,1.736-.812A5.916,5.916,0,0,1-404.848,211.037Z" transform="translate(417.821 -102.314)" fill="#2f5754"/><path d="M-426.543,126.871a5.924,5.924,0,0,1-.148,2.326A6.459,6.459,0,0,1-426.543,126.871Z" transform="translate(426.736 -53.891)" fill="#2c4345"/><path d="M-426.171,154.908c.332.471.117,1,.153,1.5A2.871,2.871,0,0,1-426.171,154.908Z" transform="translate(426.42 -70.723)" fill="#2d4949"/><path d="M-215.651,333.59c.406-.311.866-.122,1.3-.142A2.05,2.05,0,0,1-215.651,333.59Z" transform="translate(300.015 -177.886)" fill="#399584"/><path d="M-404.592,62.153l-1.632-3.507q-.923-2.475-1.844-4.95l-1.668-6.391a49.739,49.739,0,0,1-1.036-5.775q-.3-2.166-.6-4.333-.006-1.03-.013-2.061c.05-3.024-.195-6.049.01-9.072a20.912,20.912,0,0,0,.4-3.305c.231-1.439.417-2.885.621-4.328.606-2.616,1.072-5.264,1.86-7.837l2.065-5.977c.786-1.4,1.313-2.911,1.985-4.358.545-1.174,1.149-2.321,1.727-3.48,1.35-2.158,2.667-4.339,4.066-6.464a24.453,24.453,0,0,1,2.74-3.649c1.794-2.114,3.7-4.12,5.584-6.155,2.238-2.426,4.849-4.405,7.295-6.581a15.115,15.115,0,0,1,1.967-1.277,69.444,69.444,0,0,1,11.119-6.4.983.983,0,0,0,.224-.2A69.392,69.392,0,0,1-353.5-39.121a14.2,14.2,0,0,0,2.962-.6c1.462.024,2.864-.511,4.333-.418.311-.233.723.049,1.032-.2l1.856-.006a61.084,61.084,0,0,1,7.628,0,52.126,52.126,0,0,1,6.393.616l5.978,1.044,7.835,2.272,7.22,3.079c2.574,1.2,4.941,2.769,7.421,4.135l5.776,4.12,4.122,3.512q2.372,2.581,4.947,4.957a41.659,41.659,0,0,0,3.3,3.925,17.985,17.985,0,0,0,2.255,3.078,35.211,35.211,0,0,0,2.689,4.144A23.059,23.059,0,0,0-275.7-1.772l2.06,4.328,2.291,5.988,1.86,6.592q.528,2.886,1.055,5.771a69.629,69.629,0,0,1,.656,9.235c0,.087.093.175.143.262.031,1.718-.3,3.424-.168,5.145a32.934,32.934,0,0,0-.235,3.5l-.8,5.361-1.271,5.773-1.416,4.538q-1.065,2.777-2.132,5.553l-3.673,7.231-3.134,4.936A93.741,93.741,0,0,1-290.085,83.6c-2.333,2.072-4.683,4.118-7.208,5.956a71.36,71.36,0,0,1-17.928,9.513c-.159.061-.311.143-.465.214a92.278,92.278,0,0,1-11.136,2.918c-2.742.418-5.484.8-8.249,1.012-2.956-.066-5.911.31-8.868,0l-5.144-.449-4.958-.839-4.318-1.019-5.347-1.658-5.179-2.084-4.144-2.023c-1.484-.846-2.971-1.688-4.448-2.541-.442-.253-.868-.535-1.3-.8l-5.954-4.309-4.586-4.1-4.337-4.535-3.718-4.54-2.859-4.128a41.309,41.309,0,0,0-2.272-3.711C-402.982,64.936-404.1,63.7-404.592,62.153Z" transform="translate(417.565 46.57)" fill="#192123"/><path d="M-233.325-40.523h-7.628c.907-.432,1.868-.122,2.8-.192.712-.052,1.43-.011,2.147-.012C-235.115-40.611-234.19-40.967-233.325-40.523Z" transform="translate(315.205 46.746)" fill="#293237"/><path d="M-247.147-40.171c-.291.336-.683.159-1.032.2C-247.888-40.307-247.495-40.124-247.147-40.171Z" transform="translate(319.543 46.398)" fill="#293237"/><path d="M-297.908,125.269a3.961,3.961,0,0,1-4.306.156c-1-3.281-1.742-6.629-2.646-9.932-2.292-8.4-4.5-16.822-6.754-25.231a2.893,2.893,0,0,1-.122-1.406c.025-.272.227-.412.419-.56,2.139-1.041,4.52-1.2,6.764-1.858a10.666,10.666,0,0,1,1.393-.3,2.475,2.475,0,0,1,1.285,2.534c.718-1.355.853-3.108,2.721-3.5a14.154,14.154,0,0,0,1.708-.326.759.759,0,0,1,.477.126,1.734,1.734,0,0,1,.477,1.006q2.925,12.44,5.911,24.867a3.338,3.338,0,0,1,.137.81,7.467,7.467,0,0,1-1.317,2.859c-1.771,3.238-3.518,6.49-5.347,9.7A5.053,5.053,0,0,1-297.908,125.269Z" transform="translate(357.725 -28.658)" fill="#1fc8a7"/><path d="M-210.244,161.322a1.729,1.729,0,0,1-.785.814,26.018,26.018,0,0,1-5.154,1.4c-7.15,1.688-14.3,3.4-21.449,5.075-3.51.822-7.011,1.678-10.527,2.477a1.916,1.916,0,0,1-1.112.058c-.506-.368-.143-.736.029-1.072,1.344-2.626,2.827-5.176,4.249-7.759,2.494-4.536,4.964-9.087,7.5-13.6.472-.84.709-1.878,1.676-2.383a8.465,8.465,0,0,1,2.7,1.209c4.479,2.446,8.968,4.875,13.445,7.327,2.972,1.628,6,3.155,8.895,4.924A5.75,5.75,0,0,1-210.244,161.322Z" transform="translate(320.353 -65.572)" fill="#1fc8a7"/><path d="M-262.675,194.753c3.135-.548,6.2-1.4,9.294-2.125,9.451-2.209,18.9-4.465,28.343-6.7a4.376,4.376,0,0,1,.715-.052,52.477,52.477,0,0,1-5.612,3.583q-16.239,10.007-32.5,19.963c-1.285.789-2.559,1.593-3.856,2.366A3.941,3.941,0,0,1-271.57,211c-.23-.329,0-.588.142-.848,2.7-4.929,5.391-9.859,8.129-14.765C-263.15,195.12-263.028,194.822-262.675,194.753Z" transform="translate(333.645 -89.316)" fill="#198889"/><path d="M-280.951,50.053l-.427,0c-.214.137-.38.112-.472-.146-.564-.128.794-.146.01-.4-1.141-.372-2.409-.644-2.925-1.975-.1-.249-.257-.488-.1-.772,2.64-1.588,5.291-3.159,7.921-4.769q11.882-7.283,23.75-14.587a4.123,4.123,0,0,1,5.634.771,50.778,50.778,0,0,1-2.93,5.545c-1.73,3.2-3.506,6.376-5.254,9.567a2.877,2.877,0,0,1-.945,1.2q-4.737,1.341-9.574,2.255c-.951.253-1.9.516-2.864.726-1.655.437-3.31.871-4.992,1.2q-2.767.61-5.515,1.291A2.139,2.139,0,0,1-280.951,50.053Z" transform="translate(341.609 6.289)" fill="#198889"/><path d="M-264.335,138.9l-8.9,16.246a3.483,3.483,0,0,1-1.09-3.523q1.165-4.88,2.355-9.754a4.945,4.945,0,0,1,.737-1.569q15.342-23.043,30.68-46.093a2.956,2.956,0,0,1,1.35-1.362c.218.453-.1.792-.273,1.142-.946,1.866-2.008,3.668-3,5.507a9.761,9.761,0,0,0-.77,1.677,32.243,32.243,0,0,0-1.982,3.352c-.9,1.576-1.776,3.168-2.608,4.781-.792,1.5-1.684,2.941-2.446,4.456a1.048,1.048,0,0,1-.454.53,20.283,20.283,0,0,0-2.2,3.689c-3.812,6.858-7.576,13.744-11.352,20.622A.952.952,0,0,0-264.335,138.9Z" transform="translate(335.305 -33.465)" fill="#68fde1"/><path d="M-251.913,46.6c2.487-4.5,4.962-9.011,7.47-13.5a10,10,0,0,1,1.6-2.6,4.307,4.307,0,0,1,.789,4.058c-.772,3-1.489,6.024-2.234,9.036a5.3,5.3,0,0,1-.784,1.658Q-260.4,68.266-275.713,91.288a3.007,3.007,0,0,1-1.358,1.357q3.2-5.866,6.405-11.731a8.534,8.534,0,0,0,.853-1.751,28.85,28.85,0,0,1,2.456-4.853c.748-1.43,1.561-2.824,2.309-4.254,1.323-2.144,2.468-4.387,3.689-6.592.816-1.528,1.632-3.058,2.482-4.567,1.9-3.323,3.706-6.7,5.559-10.047a11.02,11.02,0,0,1,1.4-2.25Z" transform="translate(336.889 3.966)" fill="#68fde1"/><path d="M-166.416,128.954c-.6-.308-.426-.938-.6-1.425-.908-1.558-1.026-3.363-1.566-5.038a21.284,21.284,0,0,0-.9-2.809c-.482-2.332-1.271-4.588-1.73-6.926a44.721,44.721,0,0,0-1.5-5.4q-1.815-6.812-3.605-13.63c-.117-.442-.481-.975.215-1.31a3.668,3.668,0,0,1,1.807,1.881q5.453,11.01,10.894,22.025a3.424,3.424,0,0,1,.333,2.668C-164.158,122.319-165.125,125.691-166.416,128.954Z" transform="translate(276.523 -33.204)" fill="#68fde1"/><path d="M-316.99,94.882q1.818,6.744,3.633,13.488,2.892,10.817,5.748,21.642c.119.452.536.921.141,1.44a3.66,3.66,0,0,1-1.68-1.737q-5.434-10.973-10.883-21.936a4.492,4.492,0,0,1-.233-3.574c.9-2.717,1.778-5.44,2.681-8.154A2.3,2.3,0,0,1-316.99,94.882Z" transform="translate(362.978 -34.686)" fill="#68fde1"/><path d="M-188.249,91.567c-.326.3-.122.623-.033.948q1.792,6.734,3.574,13.47c.042.159.135.323,0,.482a1.319,1.319,0,0,1-1.055-.278c-3.467-1.849-6.9-3.755-10.369-5.6-.241-.128-.487-.262-.548-.568-.249-.707.321-1.14.586-1.658,1.138-2.229,2.515-4.328,3.539-6.62a3.9,3.9,0,0,1,4.312-.174Z" transform="translate(288.666 -32.356)" fill="#1fc8a7"/><path d="M-292.258,74.416c.362,1.645,1.756,2.058,3.072,2.537.617.224.5.375.013.58-.345.426-.884.391-1.335.566a2.665,2.665,0,0,0-1.756,1.845c-.224.53-.437,1.063-.687,1.668a17.522,17.522,0,0,0-1.32-2.717,11.216,11.216,0,0,1-2.9-1.538c-.122-.143-.085-.224.094-.266a4.928,4.928,0,0,0,4.022-4.4Z" transform="translate(348.996 -21.364)" fill="#fdfefe"/><path d="M-305.21,84.363c.993.461,2.142.631,2.9,1.537-1.1.67-2.387.675-3.579,1.018-1.555.449-3.158.731-4.741,1.089a49.957,49.957,0,0,1,4.725-3.067C-305.655,84.769-305.343,84.676-305.21,84.363Z" transform="translate(357.037 -28.372)" fill="#19898a"/><path d="M-263.61,100.481c-.831,2.03-2.054,3.852-3.058,5.793-.58,1.119-1.251,2.19-1.881,3.281q-3.119-13.1-6.238-26.2c-.048-.2-.122-.393-.18-.589,2.224-.694,4.509-1.155,6.783-1.645a1.854,1.854,0,0,1,.6,1.162q2.05,8.491,4.043,17a1.583,1.583,0,0,1-.065,1.2Z" transform="translate(335.625 -26.427)" fill="#a4e8db"/><path d="M-280.4,85.369a3.4,3.4,0,0,1,1.341-.569l.405.178A3.1,3.1,0,0,1-280.4,85.369Z" transform="translate(338.886 -28.634)" fill="#2aa197"/><path d="M-192.452,144.311c.741,1.029.774,2.287,1.106,3.446.417,1.459.766,2.938,1.144,4.408L-199.786,147q-7.678-4.16-15.35-8.336c.67-1.832,1.852-3.4,2.689-5.142.449-.207.8.061,1.152.259,5.978,3.309,12,6.543,18,9.8A1.889,1.889,0,0,1-192.452,144.311Z" transform="translate(299.706 -57.841)" fill="#a4e8db"/><path d="M-220.475,205.042a2.587,2.587,0,0,0,1.853-2.153,2.693,2.693,0,0,0,2.244,2.133,2.559,2.559,0,0,0-2.2,2.144A2.59,2.59,0,0,0-220.475,205.042Z" transform="translate(302.912 -99.529)" fill="#f9fbfb"/><path d="M-253.424,98.658c-.7-3-1.382-5.993-2.09-8.986-.818-3.46-1.656-6.914-2.486-10.37l4.97-1.214a1.8,1.8,0,0,1,.466,1c.913,3.855,1.821,7.711,2.759,11.56a2.541,2.541,0,0,1,.092,1.408A53.247,53.247,0,0,1-253.424,98.658Z" transform="translate(325.439 -24.604)" fill="#1fc8a7"/><path d="M-228.666,70.787a39.71,39.71,0,0,1-2.376,4.527c-1.254,2.353-2.546,4.686-3.833,7.02a8.592,8.592,0,0,1-.587.828c-.469-.284-.506-.792-.61-1.244-.512-2.224-1.053-4.443-1.57-6.667a12.544,12.544,0,0,0-.709-2.235Z" transform="translate(313.642 -20.22)" fill="#1fc8a7"/><path d="M-242.677,76.362c.511.019.542.4.633.78.742,3.124,1.5,6.244,2.255,9.365l-2.454,4.516c-1.194-4.637-2.319-9.289-3.316-13.972Z" transform="translate(317.971 -23.568)" fill="#a4e8db"/><path d="M-188.414,137.286q-9.441-5.129-18.884-10.257c-.359-.2-.74-.353-1.112-.529.891-1.576,1.638-3.234,2.673-4.729.642-.116,1.114.3,1.607.57,4.347,2.426,8.76,4.731,13.11,7.151a2.051,2.051,0,0,1,.934.776c.514,2.039,1.032,4.076,1.538,6.115A8.963,8.963,0,0,1-188.414,137.286Z" transform="translate(295.667 -50.817)" fill="#1fc8a7"/><path d="M-186.063,125.353l-15.651-8.5c.641-1.124.975-2.441,2.049-3.291l11.973,6.45c.779,1.019.725,2.323,1.175,3.458a13.143,13.143,0,0,1,.455,1.879Z" transform="translate(291.648 -45.901)" fill="#a4e8db"/><path d="M-252.94,90.645A2.517,2.517,0,0,0-250.8,88.53a2.549,2.549,0,0,0,2.128,2.072c-1.1.393-1.863.868-2.083,1.958A2.754,2.754,0,0,0-252.94,90.645Z" transform="translate(322.401 -30.873)" fill="#fafdfc"/></g></g></g></g><g transform="translate(-385 -53)"><circle cx="46.5" cy="46.5" r="46.5" transform="translate(1656 -1358)" fill="#fff"/><g transform="translate(1472.999 -1644.511)"><g transform="translate(211 301.999)"><path d="M247.907,320.453A18.477,18.477,0,0,1,235.728,337.8c0,3.445-2.829,6.767-6.274,6.767-3.322,0-6.151-2.214-6.151-5.659,0-5.167,2.337-9.473,6.151-11.687a10.966,10.966,0,0,1,2.091-.985,6.15,6.15,0,1,0-8.242-5.782,6.151,6.151,0,0,1-12.3,0,18.453,18.453,0,1,1,36.907,0Z" transform="translate(-211 -301.999)" fill="#474f54"/></g><g transform="translate(223.665 350.847)"><ellipse cx="5.5" cy="6.5" rx="5.5" ry="6.5" transform="translate(0.336 -0.336)" fill="#474f54"/></g><path d="M262.151,428.151A6.151,6.151,0,0,0,256,422v12.3A6.151,6.151,0,0,0,262.151,428.151Z" transform="translate(-26.547 -70.791)" fill="#32393f"/><path d="M274.453,320.453A18.477,18.477,0,0,1,262.274,337.8c0,3.445-2.829,6.767-6.274,6.767V327.22a10.964,10.964,0,0,1,2.091-.985A6.149,6.149,0,0,0,256,314.3V302a18.428,18.428,0,0,1,18.453,18.453Z" transform="translate(-26.546 -0.001)" fill="#32393f"/></g></g></g></svg>