<svg xmlns="http://www.w3.org/2000/svg" xmlns:xlink="http://www.w3.org/1999/xlink" width="187.086" height="45.349" viewBox="0 0 187.086 45.349">
  <defs>
    <style>
      .cls-1 {
        fill: #fff;
      }

      .cls-2 {
        fill: url(#linear-gradient);
      }
    </style>
    <linearGradient id="linear-gradient" x1="-0.617" y1="1.062" x2="1" y2="0.034" gradientUnits="objectBoundingBox">
      <stop offset="0" stop-color="#2ac384"/>
      <stop offset="1" stop-color="#42c1d3"/>
    </linearGradient>
  </defs>
  <g id="brand-white" transform="translate(-0.914 0)">
    <path id="Path_2" data-name="Path 2" class="cls-1" d="M50.051,13.977a9.652,9.652,0,0,1-2.1,4.548,8.753,8.753,0,0,1-4.326,2.756l5.861,10.933H40.928L36.479,22l-2.313.009L32.244,32.213H24.71L29.765,5.331H42.3a7.652,7.652,0,0,1,6.358,2.577A7.15,7.15,0,0,1,50.051,13.977Zm-15,3.345h2.707q4.255,0,4.917-3.532.712-3.8-3.5-3.8H36.437Z" transform="translate(18.548 4.136)"/>
    <path id="Path_3" data-name="Path 3" class="cls-1" d="M45.322,19.958q-.048.4-.048.534a4.53,4.53,0,0,0,1.4,3.518,5.781,5.781,0,0,0,4.041,1.278,11.225,11.225,0,0,0,6.57-1.972l-.756,4.256a15.067,15.067,0,0,1-8.319,2.105,9.554,9.554,0,0,1-7.326-2.822,9.075,9.075,0,0,1-2.363-7.118A10.5,10.5,0,0,1,42.3,12.189a11.839,11.839,0,0,1,7.894-2.934,9.4,9.4,0,0,1,6.239,2.016,5.893,5.893,0,0,1,2.135,5.338,11.3,11.3,0,0,1-.712,3.36Zm7.515-4.345a2.26,2.26,0,0,0-.591-1.815,2.605,2.605,0,0,0-2.009-.74q-2.979,0-4.3,3.9H52.46a3.5,3.5,0,0,0,.377-1.345Z" transform="translate(29.27 7.207)"/>
    <path id="Path_4" data-name="Path 4" class="cls-1" d="M49.953,32.516,52.79,17.238H49.528l.756-4.077h3.262l.057-.311q1.182-7.933,10.251-7.933a22.243,22.243,0,0,1,4.867.712L75.761,5l-5.093,27.51H63.614L67.858,9.576a9.5,9.5,0,0,0-3.393-.626,3.559,3.559,0,0,0-2.545.808A4.726,4.726,0,0,0,60.742,12.4l-.141.76h4.112l-.8,4.077H59.843L57.007,32.516Z" transform="translate(37.892 3.833)"/>
    <path id="Path_5" data-name="Path 5" class="cls-1" d="M69.94,19.958q-.048.4-.048.534a4.53,4.53,0,0,0,1.4,3.518,5.781,5.781,0,0,0,4.041,1.278,11.225,11.225,0,0,0,6.57-1.972l-.756,4.256a15.067,15.067,0,0,1-8.319,2.105A9.554,9.554,0,0,1,65.5,26.855a9.075,9.075,0,0,1-2.363-7.118,10.5,10.5,0,0,1,3.781-7.548,11.839,11.839,0,0,1,7.894-2.934,9.4,9.4,0,0,1,6.239,2.016,5.892,5.892,0,0,1,2.135,5.338,11.292,11.292,0,0,1-.712,3.36Zm7.516-4.345a2.26,2.26,0,0,0-.591-1.815,2.607,2.607,0,0,0-2.009-.74q-2.979,0-4.3,3.9H77.08a3.5,3.5,0,0,0,.377-1.345Z" transform="translate(48.458 7.207)"/>
    <path id="Path_6" data-name="Path 6" class="cls-1" d="M98.977,9.55l-8.839,9.5,5.719,9.856h-7.28l-3.559-6.228L79.4,28.905H72.271l9.3-9.992L76.237,9.55h7.28l3.167,5.783,5.249-5.778Z" transform="translate(55.619 7.444)"/>
    <path id="Path_7" data-name="Path 7" class="cls-1" d="M92.043,19.958q-.048.4-.048.534a4.529,4.529,0,0,0,1.4,3.518,5.78,5.78,0,0,0,4.041,1.278A11.225,11.225,0,0,0,104,23.316l-.756,4.256a15.067,15.067,0,0,1-8.319,2.105A9.554,9.554,0,0,1,87.6,26.855a9.075,9.075,0,0,1-2.363-7.118,10.5,10.5,0,0,1,3.781-7.548,11.839,11.839,0,0,1,7.894-2.934,9.4,9.4,0,0,1,6.239,2.016,5.894,5.894,0,0,1,2.135,5.338,11.293,11.293,0,0,1-.712,3.36Zm7.516-4.345a2.26,2.26,0,0,0-.591-1.815,2.605,2.605,0,0,0-2.009-.74q-2.979,0-4.3,3.9h6.523a3.5,3.5,0,0,0,.377-1.345Z" transform="translate(65.686 7.207)"/>
    <path id="Path_8" data-name="Path 8" class="cls-1" d="M113.795,9.257l-1.37,7.3a5.338,5.338,0,0,0-2.135-.448q-4.739,0-5.813,5.68l-1.359,7.358h-7L98.6,15.706a39.656,39.656,0,0,0,.694-5.911h6.664a19.139,19.139,0,0,1-.146,3.539,9.284,9.284,0,0,1,3.267-3.025,8.467,8.467,0,0,1,4.719-1.052Z" transform="translate(74.205 7.199)"/>
    <path id="Path_11" data-name="Path 11" class="cls-1" d="M5.821,14.411a4.685,4.685,0,0,1-.356-1.34,4.685,4.685,0,0,0,.356,1.34Z" transform="translate(3.547 10.188)"/>
    <path id="Path_12" data-name="Path 12" class="cls-1" d="M5.476,13.277a4.688,4.688,0,0,1-.03-.473,4.666,4.666,0,0,0,.03.473Z" transform="translate(3.533 9.98)"/>
    <path id="Path_13" data-name="Path 13" class="cls-1" d="M5.547,12.076a.081.081,0,0,1,.014-.055C5.556,12.039,5.552,12.058,5.547,12.076Z" transform="translate(3.611 9.37)"/>
    <path id="Path_14" data-name="Path 14" class="cls-1" d="M5.721,11.637c.014-.027.027-.055.041-.084C5.746,11.581,5.733,11.61,5.721,11.637Z" transform="translate(3.747 9.005)"/>
    <path id="Path_15" data-name="Path 15" class="cls-1" d="M5.973,11.227l.068-.089Z" transform="translate(3.943 8.681)"/>
    <path id="Path_16" data-name="Path 16" class="cls-1" d="M10.286,14.352l-.068.089Z" transform="translate(7.252 11.187)"/>
    <path id="Path_17" data-name="Path 17" class="cls-1" d="M8.678,15.379l-.094.014Z" transform="translate(5.979 11.987)"/>
    <path id="Path_18" data-name="Path 18" class="cls-1" d="M9.973,14.712l-.089.08Z" transform="translate(6.992 11.467)"/>
    <path id="Path_19" data-name="Path 19" class="cls-1" d="M6.295,10.862l.089-.08Z" transform="translate(4.194 8.404)"/>
    <path id="Path_20" data-name="Path 20" class="cls-1" d="M9.16,15.235l-.1.037Z" transform="translate(6.346 11.875)"/>
    <path id="Path_21" data-name="Path 21" class="cls-1" d="M6.294,14.8a4.76,4.76,0,0,1-.516-.749,4.76,4.76,0,0,0,.516.749Z" transform="translate(3.791 10.954)"/>
    <path id="Path_22" data-name="Path 22" class="cls-1" d="M6.95,15.239a4.757,4.757,0,0,1-.712-.575,4.757,4.757,0,0,0,.712.575Z" transform="translate(4.15 11.43)"/>
    <path id="Path_23" data-name="Path 23" class="cls-1" d="M8.307,15.437h.018a4.246,4.246,0,0,1-.45-.016Q8.1,15.437,8.307,15.437Z" transform="translate(5.426 12.02)"/>
    <path id="Path_24" data-name="Path 24" class="cls-1" d="M7.723,15.474a4.721,4.721,0,0,1-.863-.356,4.721,4.721,0,0,0,.863.356Z" transform="translate(4.635 11.784)"/>
    <path id="Path_25" data-name="Path 25" class="cls-1" d="M8.623,10.157a4.756,4.756,0,0,1,.906.269A4.756,4.756,0,0,0,8.623,10.157Z" transform="translate(6.009 7.917)"/>
    <path id="Path_26" data-name="Path 26" class="cls-1" d="M9.594,15.01l-.1.062Z" transform="translate(6.687 11.699)"/>
    <path id="Path_27" data-name="Path 27" class="cls-1" d="M10.687,13.486a.081.081,0,0,1-.014.055A.307.307,0,0,0,10.687,13.486Z" transform="translate(7.607 10.512)"/>
    <path id="Path_28" data-name="Path 28" class="cls-1" d="M10.316,11.268a4.739,4.739,0,0,1,.443.8A4.726,4.726,0,0,0,10.316,11.268Z" transform="translate(7.329 8.783)"/>
    <path id="Path_29" data-name="Path 29" class="cls-1" d="M8.12,10.108H8.1a4.246,4.246,0,0,1,.45.016Q8.333,10.108,8.12,10.108Z" transform="translate(5.601 7.879)"/>
    <path id="Path_30" data-name="Path 30" class="cls-1" d="M10.779,11.564A4.748,4.748,0,0,0,9.368,10.42a4.748,4.748,0,0,1,1.411,1.144Z" transform="translate(6.59 8.122)"/>
    <path id="Path_31" data-name="Path 31" class="cls-1" d="M7.114,10.316l.1-.037Z" transform="translate(4.833 8.012)"/>
    <path id="Path_32" data-name="Path 32" class="cls-1" d="M7.592,10.166l.094-.014Z" transform="translate(5.205 7.913)"/>
    <path id="Path_33" data-name="Path 33" class="cls-1" d="M10.527,13.939c-.014.027-.027.055-.041.084C10.5,13.994,10.511,13.966,10.527,13.939Z" transform="translate(7.461 10.865)"/>
    <path id="Path_34" data-name="Path 34" class="cls-1" d="M6.679,10.556l.1-.062Z" transform="translate(4.494 8.18)"/>
    <g id="Group_152" data-name="Group 152">
      <path id="Path_9" data-name="Path 9" class="cls-2" d="M19.509,0H15.2L11.418,18.373l.075.036a4.908,4.908,0,0,1,1.457,1.183,4.173,4.173,0,0,1,.283.374A4.842,4.842,0,0,1,13.9,24.04a.218.218,0,0,1-.014.059,4.835,4.835,0,0,1-.3.772c-.014.028-.027.059-.041.087a4.87,4.87,0,0,1-.422.673l-.068.093a4.922,4.922,0,0,1-.525.569l-.091.084a4.94,4.94,0,0,1-.614.464l-.1.064a4.895,4.895,0,0,1-.7.356l-.107.041a4.857,4.857,0,0,1-.769.222l-.1.016a5.28,5.28,0,0,1-.534.05l-2.783,13.5H14.11L21.959,3a2.491,2.491,0,0,0-2.45-3Z" transform="translate(4.538)"/>
      <path id="Path_10" data-name="Path 10" class="cls-2" d="M11,24.924a4.9,4.9,0,0,1-.731-.594q-.167-.164-.32-.345a4.922,4.922,0,0,1-.534-.774Q9.3,23,9.209,22.787a4.851,4.851,0,0,1-.4-1.881,4.789,4.789,0,0,1,.178-1.377.236.236,0,0,1,.014-.059,4.833,4.833,0,0,1,.3-.772c.014-.028.027-.059.041-.085a4.876,4.876,0,0,1,.422-.671l.068-.093a4.907,4.907,0,0,1,.525-.571l.091-.084a4.9,4.9,0,0,1,.614-.464l.1-.064a4.9,4.9,0,0,1,.7-.356l.109-.041a4.849,4.849,0,0,1,.769-.222l.1-.016a5.268,5.268,0,0,1,.555-.053L16.206,2.4H8.834L.983,40.48a2.491,2.491,0,0,0,2.449,3H7.738l3.769-18.271c-.03-.016-.066-.023-.1-.039A4.2,4.2,0,0,1,11,24.924Z" transform="translate(0.013 1.871)"/>
      <path id="Path_35" data-name="Path 35" class="cls-2" d="M23.568,10.175a12.746,12.746,0,0,0-8.694-4.543c-.383-.034-.771-.052-1.153-.052a12.792,12.792,0,0,0-1.142,25.535c.383.034.77.052,1.153.052a12.787,12.787,0,0,0,9.835-21ZM18.454,18.8a4.747,4.747,0,0,1-.158.851.083.083,0,0,1-.014.057,4.681,4.681,0,0,1-.294.747c-.014.028-.025.057-.039.084a4.726,4.726,0,0,1-.409.651l-.066.089a4.733,4.733,0,0,1-.509.553l-.087.08a4.774,4.774,0,0,1-.6.45l-.1.062a4.735,4.735,0,0,1-.673.338l-.1.039a4.735,4.735,0,0,1-.746.215l-.093.014a4.719,4.719,0,0,1-.813.077h-.018q-.214,0-.431-.02a4.774,4.774,0,0,1-.945-.178,4.718,4.718,0,0,1-.863-.356q-.2-.109-.4-.235a4.749,4.749,0,0,1-.712-.575q-.162-.16-.308-.335a4.76,4.76,0,0,1-.514-.749,4.545,4.545,0,0,1-.2-.411,4.7,4.7,0,0,1-.388-1.815A4.639,4.639,0,0,1,9.155,17.1a.083.083,0,0,1,.014-.057,4.678,4.678,0,0,1,.3-.749c.014-.028.025-.057.039-.084a4.7,4.7,0,0,1,.409-.651l.066-.089a4.737,4.737,0,0,1,.509-.553l.087-.08a4.756,4.756,0,0,1,.6-.45l.1-.062a4.753,4.753,0,0,1,.673-.338l.1-.039a4.709,4.709,0,0,1,.746-.215l.093-.016a4.737,4.737,0,0,1,.813-.077h.018q.214,0,.431.02a4.814,4.814,0,0,1,.48.068,4.739,4.739,0,0,1,.906.27q.215.089.42.2a4.749,4.749,0,0,1,1.411,1.146q.146.178.276.356a4.712,4.712,0,0,1,.81,3.1Z" transform="translate(0 4.349)"/>
    </g>
    <path id="Path_36" data-name="Path 36" class="cls-1" d="M10.665,13.986a4.717,4.717,0,0,1-.409.649A4.7,4.7,0,0,0,10.665,13.986Z" transform="translate(7.282 10.901)"/>
    <path id="Path_37" data-name="Path 37" class="cls-1" d="M10.146,14.757a4.767,4.767,0,0,1-.6.448A4.765,4.765,0,0,0,10.146,14.757Z" transform="translate(6.732 11.502)"/>
    <path id="Path_38" data-name="Path 38" class="cls-1" d="M10.443,14.4a4.76,4.76,0,0,1-.509.552,4.76,4.76,0,0,0,.509-.552Z" transform="translate(7.031 11.224)"/>
    <path id="Path_39" data-name="Path 39" class="cls-1" d="M10.841,13.008a4.721,4.721,0,0,1-.16.849,4.721,4.721,0,0,0,.16-.849Z" transform="translate(7.613 10.139)"/>
    <path id="Path_40" data-name="Path 40" class="cls-1" d="M10.8,13.519a4.662,4.662,0,0,1-.3.747,4.662,4.662,0,0,0,.3-.747Z" transform="translate(7.478 10.537)"/>
    <path id="Path_41" data-name="Path 41" class="cls-1" d="M7.173,10.375a4.758,4.758,0,0,1,.746-.214,4.739,4.739,0,0,0-.746.214Z" transform="translate(4.879 7.92)"/>
    <path id="Path_42" data-name="Path 42" class="cls-1" d="M6.736,10.64a4.762,4.762,0,0,1,.673-.336A4.762,4.762,0,0,0,6.736,10.64Z" transform="translate(4.538 8.031)"/>
    <path id="Path_43" data-name="Path 43" class="cls-1" d="M6.009,11.38a4.756,4.756,0,0,1,.509-.552,4.75,4.75,0,0,0-.509.552Z" transform="translate(3.971 8.44)"/>
    <path id="Path_44" data-name="Path 44" class="cls-1" d="M6.344,10.978a4.783,4.783,0,0,1,.6-.448,4.783,4.783,0,0,0-.6.448Z" transform="translate(4.233 8.208)"/>
    <path id="Path_45" data-name="Path 45" class="cls-1" d="M7.644,10.185a4.826,4.826,0,0,1,.813-.075,4.826,4.826,0,0,0-.813.075Z" transform="translate(5.246 7.88)"/>
    <path id="Path_46" data-name="Path 46" class="cls-1" d="M5.625,12.054a4.627,4.627,0,0,0-.178,1.335A4.627,4.627,0,0,1,5.625,12.054Z" transform="translate(3.533 9.395)"/>
    <path id="Path_47" data-name="Path 47" class="cls-1" d="M9.787,15.045a4.762,4.762,0,0,1-.673.336A4.743,4.743,0,0,0,9.787,15.045Z" transform="translate(6.392 11.727)"/>
    <path id="Path_48" data-name="Path 48" class="cls-1" d="M8.94,15.387a4.828,4.828,0,0,1-.813.075,4.826,4.826,0,0,0,.813-.075Z" transform="translate(5.622 11.993)"/>
    <path id="Path_49" data-name="Path 49" class="cls-1" d="M9.382,15.257a4.746,4.746,0,0,1-.746.214,4.744,4.744,0,0,0,.746-.214Z" transform="translate(6.019 11.892)"/>
    <path id="Path_50" data-name="Path 50" class="cls-1" d="M5.555,12.348a4.655,4.655,0,0,1,.3-.747,4.655,4.655,0,0,0-.3.747Z" transform="translate(3.618 9.042)"/>
    <path id="Path_51" data-name="Path 51" class="cls-1" d="M5.743,11.838a4.712,4.712,0,0,1,.411-.649,4.7,4.7,0,0,0-.411.649Z" transform="translate(3.764 8.721)"/>
  </g>
</svg>
