<svg xmlns="http://www.w3.org/2000/svg" width="74.36" height="74.375" viewBox="0 0 74.36 74.375"><g transform="translate(49 -141)" opacity="0.8"><path d="M350.2,187.748a4.648,4.648,0,1,1-4.648-4.648A4.643,4.643,0,0,1,350.2,187.748Z" transform="translate(-333.262 -35.984)" fill="#0b1429"/><path d="M18.4,551.548a4.648,4.648,0,1,1-4.648-4.648A4.643,4.643,0,0,1,18.4,551.548Z" transform="translate(-49.66 -346.938)" fill="#0b1429"/><path d="M81.019,245.424a21.409,21.409,0,0,0-2.949-7.118l2.789-2.789L74.439,229.1l-2.775,2.775a21.536,21.536,0,0,0-7.118-2.949V225H55.468v3.937a21.409,21.409,0,0,0-7.118,2.949l-2.775-2.775-6.421,6.421,2.789,2.789a21.536,21.536,0,0,0-2.949,7.118H35v9.079h3.951a21.409,21.409,0,0,0,2.949,7.118l-2.789,2.789,6.421,6.421,2.8-2.8a21.536,21.536,0,0,0,7.118,2.949v3.98h9.079V271a21.409,21.409,0,0,0,7.118-2.949l2.8,2.8,6.421-6.421-2.789-2.789a21.536,21.536,0,0,0,2.949-7.118h3.937v-9.079H81.019ZM59.985,260.531a10.546,10.546,0,1,1,10.546-10.546A10.545,10.545,0,0,1,59.985,260.531Z" transform="translate(-71.798 -71.798)" fill="#ccffeb"/><path d="M-35.912,198.51a6.153,6.153,0,0,0-2.934.741,34.3,34.3,0,0,1-7.249-21.063,34.327,34.327,0,0,1,34.282-34.282,34.661,34.661,0,0,1,6.827.683,1.455,1.455,0,0,0,1.714-1.133A1.455,1.455,0,0,0-4.4,141.741,37.149,37.149,0,0,0-11.813,141a36.894,36.894,0,0,0-26.293,10.895A36.979,36.979,0,0,0-49,178.187a37.246,37.246,0,0,0,8,23.053,6.022,6.022,0,0,0-1.017,3.385,6.078,6.078,0,0,0,1.787,4.314,6.078,6.078,0,0,0,4.314,1.787A6.078,6.078,0,0,0-31.6,208.94a6.078,6.078,0,0,0,1.787-4.314,6.078,6.078,0,0,0-1.787-4.314A6.056,6.056,0,0,0-35.912,198.51Zm2.252,8.367a3.162,3.162,0,0,1-2.266.93,3.223,3.223,0,0,1-2.266-.93,3.138,3.138,0,0,1-.93-2.266,3.223,3.223,0,0,1,.93-2.266,3.162,3.162,0,0,1,2.266-.93,3.223,3.223,0,0,1,2.266.93,3.162,3.162,0,0,1,.93,2.266A3.1,3.1,0,0,1-33.66,206.877Z" fill="#30e0a0"/><path d="M186.094,182.486a6.058,6.058,0,1,0-2.15,1.976,34.3,34.3,0,0,1-33.8,54.692A1.453,1.453,0,1,0,149.56,242a37.5,37.5,0,0,0,7.336.726,37.2,37.2,0,0,0,29.2-60.241Zm-7.336-1.119a3.162,3.162,0,0,1-.93-2.266,3.223,3.223,0,0,1,.93-2.266,3.162,3.162,0,0,1,2.266-.93,3.189,3.189,0,0,1,2.266,5.447,3.162,3.162,0,0,1-2.266.93A3.012,3.012,0,0,1,178.758,181.367Z" transform="translate(-168.723 -27.352)" fill="#30e0a0"/><path d="M45.439,266.423a1.457,1.457,0,0,0,1.453,1.453H55.97a1.457,1.457,0,0,0,1.453-1.453v-2.818a22.621,22.621,0,0,0,5.447-2.266l1.99,1.99a1.438,1.438,0,0,0,1.031.421,1.528,1.528,0,0,0,1.031-.421l6.421-6.421a1.447,1.447,0,0,0,0-2.048l-1.99-1.99a23.221,23.221,0,0,0,2.266-5.447h2.8a1.457,1.457,0,0,0,1.453-1.453v-9.079a1.457,1.457,0,0,0-1.453-1.453h-2.8a22.052,22.052,0,0,0-2.266-5.447l1.976-1.976a1.438,1.438,0,0,0,.421-1.031,1.5,1.5,0,0,0-.421-1.031l-6.421-6.421a1.447,1.447,0,0,0-2.048,0l-1.976,1.976a23.221,23.221,0,0,0-5.447-2.266v-2.789A1.457,1.457,0,0,0,55.985,215H46.906a1.457,1.457,0,0,0-1.453,1.453v2.789a22.051,22.051,0,0,0-5.447,2.266l-1.976-1.976a1.447,1.447,0,0,0-2.048,0l-6.421,6.421a1.438,1.438,0,0,0-.421,1.031,1.5,1.5,0,0,0,.421,1.031l1.976,1.976a23.22,23.22,0,0,0-2.266,5.447H26.453A1.457,1.457,0,0,0,25,236.891v9.079A1.5,1.5,0,0,0,25.421,247a1.414,1.414,0,0,0,1.031.421h2.8a22.621,22.621,0,0,0,2.266,5.447l-1.99,1.99a1.447,1.447,0,0,0,0,2.048l6.421,6.421a1.438,1.438,0,0,0,1.031.421h0a1.5,1.5,0,0,0,1.031-.421l1.99-1.99a23.221,23.221,0,0,0,5.447,2.266v2.818Zm-4.881-8.135a1.449,1.449,0,0,0-1.816.189L36.97,260.25,32.6,255.877l1.772-1.772a1.449,1.449,0,0,0,.189-1.816,19.727,19.727,0,0,1-2.745-6.639,1.46,1.46,0,0,0-1.424-1.148H27.905v-6.174h2.5a1.46,1.46,0,0,0,1.424-1.148,20.027,20.027,0,0,1,2.745-6.639,1.449,1.449,0,0,0-.189-1.816l-1.758-1.758L37,222.6l1.758,1.758a1.449,1.449,0,0,0,1.816.189,19.727,19.727,0,0,1,6.639-2.745,1.46,1.46,0,0,0,1.148-1.424v-2.469h6.174v2.484a1.46,1.46,0,0,0,1.148,1.424,20.028,20.028,0,0,1,6.639,2.745,1.449,1.449,0,0,0,1.816-.189l1.758-1.758,4.372,4.372-1.758,1.758a1.449,1.449,0,0,0-.189,1.816,19.727,19.727,0,0,1,2.745,6.639,1.46,1.46,0,0,0,1.424,1.148h2.484v6.174h-2.5a1.46,1.46,0,0,0-1.424,1.148A20.027,20.027,0,0,1,68.3,252.3a1.449,1.449,0,0,0,.189,1.816l1.772,1.772-4.372,4.372-1.772-1.772A1.449,1.449,0,0,0,62.3,258.3a19.727,19.727,0,0,1-6.639,2.745,1.46,1.46,0,0,0-1.148,1.424v2.5H48.344v-2.513a1.46,1.46,0,0,0-1.148-1.424A19.555,19.555,0,0,1,40.558,258.289Z" transform="translate(-63.25 -63.251)" fill="#30e0a0"/><path d="M148.4,326.4a12,12,0,1,0-12,12A12.012,12.012,0,0,0,148.4,326.4Zm-21.092,0a9.093,9.093,0,1,1,9.093,9.094A9.107,9.107,0,0,1,127.305,326.4Z" transform="translate(-148.211 -148.211)" fill="#30e0a0"/><path d="M290.553,161.705a1.528,1.528,0,0,0,1.031-.421,1.438,1.438,0,0,0,.421-1.031,1.528,1.528,0,0,0-.421-1.031,1.438,1.438,0,0,0-1.031-.421,1.527,1.527,0,0,0-1.031.421,1.438,1.438,0,0,0-.421,1.031,1.528,1.528,0,0,0,.421,1.031A1.438,1.438,0,0,0,290.553,161.705Z" transform="translate(-288.986 -15.214)" fill="#30e0a0"/><path d="M106.853,615.4a1.528,1.528,0,0,0-1.031.421,1.414,1.414,0,0,0-.421,1.031,1.528,1.528,0,0,0,.421,1.031,1.414,1.414,0,0,0,1.031.421,1.5,1.5,0,0,0,1.031-.421,1.414,1.414,0,0,0,.421-1.031,1.5,1.5,0,0,0-.421-1.031A1.438,1.438,0,0,0,106.853,615.4Z" transform="translate(-131.971 -405.487)" fill="#30e0a0"/></g></svg>