<svg xmlns="http://www.w3.org/2000/svg" width="74.778" height="74.798" viewBox="0 0 74.778 74.798"><g transform="translate(49.025 -140.875)" opacity="0.8"><path d="M13.067,169.9a33.167,33.167,0,1,0,33.167,33.167A33.172,33.172,0,0,0,13.067,169.9Zm0,48.868a15.7,15.7,0,1,1,15.7-15.7,15.695,15.695,0,0,1-15.7,15.7Z" transform="translate(-24.701 -24.786)" fill="#ccffeb"/><path d="M231.584,203.067A33.172,33.172,0,0,0,198.417,169.9h0c-.409,0-.832.015-1.241.029-.716,3.257-.175,8.661,8.237,13.86,3.958,2.454,5.944,6.718,6.674,11.552a15.693,15.693,0,0,1-1.665,17.847c-1.475,4.878-3.476,8.529-4.995,9.143-3.534,1.417-4.834,9.6-.643,13.276A33.164,33.164,0,0,0,231.584,203.067Z" transform="translate(-210.05 -24.786)" fill="#ccffeb"/><path d="M144.994,154.1l-8.149,17.876a2.069,2.069,0,0,1-2.205,1.2,12.514,12.514,0,0,0-4.425,0,2.05,2.05,0,0,1-2.205-1.2L119.874,154.1a2.068,2.068,0,0,1,1.022-2.76,1.145,1.145,0,0,1,.2-.073,36.275,36.275,0,0,1,22.681,0,2.066,2.066,0,0,1,1.3,2.643A1.1,1.1,0,0,1,144.994,154.1Z" transform="translate(-144.067 -7.323)" fill="#0b1429"/><path d="M311.023,334.909l-17.876-8.149a2.069,2.069,0,0,1-1.2-2.205,12.514,12.514,0,0,0,0-4.425,2.05,2.05,0,0,1,1.2-2.205l17.876-8.149a2.068,2.068,0,0,1,2.76,1.022,1.144,1.144,0,0,1,.073.2,36.275,36.275,0,0,1,0,22.681,2.066,2.066,0,0,1-2.643,1.3.51.51,0,0,1-.19-.073Z" transform="translate(-291.153 -144.067)" fill="#0b1429"/><path d="M119.9,501.022l8.149-17.876a2.069,2.069,0,0,1,2.205-1.2,12.514,12.514,0,0,0,4.425,0,2.05,2.05,0,0,1,2.205,1.2l8.149,17.876a2.068,2.068,0,0,1-1.022,2.76,1.141,1.141,0,0,1-.2.073,36.275,36.275,0,0,1-22.681,0,2.066,2.066,0,0,1-1.3-2.643.51.51,0,0,1,.073-.19Z" transform="translate(-144.088 -291.238)" fill="#0b1429"/><path d="M-35.9,309.81l17.876,8.149a2.069,2.069,0,0,1,1.2,2.205,12.514,12.514,0,0,0,0,4.425,2.05,2.05,0,0,1-1.2,2.205L-35.9,334.93a2.068,2.068,0,0,1-2.76-1.022,1.145,1.145,0,0,1-.073-.2,36.275,36.275,0,0,1,0-22.681,2.066,2.066,0,0,1,2.643-1.3,1.1,1.1,0,0,1,.19.088Z" transform="translate(-7.237 -144.088)" fill="#0b1429"/><g transform="translate(-49.025 140.875)"><path d="M310.162,192.686l.131.073.234.131a1.23,1.23,0,1,0,1.227-2.132l-.146-.073-.234-.131a1.226,1.226,0,1,0-1.212,2.132Z" transform="translate(-257.172 -183.16)" fill="#30e0a0"/><path d="M95.08,225.159a1.372,1.372,0,0,0,.672-.19c.2-.131.409-.263.613-.38a1.235,1.235,0,1,0-1.271-2.118c-.219.131-.453.277-.672.424a1.226,1.226,0,0,0-.365,1.694,1.152,1.152,0,0,0,1.022.57Z" transform="translate(-72.994 -210.404)" fill="#30e0a0"/><path d="M44.907,242.174a1.233,1.233,0,1,0-1.592-1.884h0a29.069,29.069,0,0,0-5.448,6.061,1.231,1.231,0,0,0,2.045,1.373A26.961,26.961,0,0,1,44.907,242.174Z" transform="translate(-24.997 -225.521)" fill="#30e0a0"/><path d="M23.871,166.554a3.284,3.284,0,0,0-4.046-2.118,34.522,34.522,0,0,0-11.07-13.845,1.23,1.23,0,0,0-1.49,1.957c.015,0,.015.015.029.015A32.052,32.052,0,0,1,17.562,165.4l-9.274,4.221A21.7,21.7,0,0,0-3,158.331l5.039-11.056a3.323,3.323,0,0,0,.015-2.716,3.29,3.29,0,0,0-1.986-1.811,37.651,37.651,0,0,0-23.455,0,3.3,3.3,0,0,0-2.132,4.031,34.839,34.839,0,0,0-17.6,17.643,3.3,3.3,0,0,0-4.031,2.132,37.651,37.651,0,0,0,0,23.455A3.29,3.29,0,0,0-45.341,192a3.232,3.232,0,0,0,2.22.146,34.542,34.542,0,0,0,17.628,17.628,3.287,3.287,0,0,0,2.118,4.031,37.651,37.651,0,0,0,23.455,0,3.29,3.29,0,0,0,1.986-1.811,3.318,3.318,0,0,0,.146-2.22,34.74,34.74,0,0,0,15.861-14.137,1.235,1.235,0,1,0-2.118-1.271l-.015.015a32.173,32.173,0,0,1-14.707,13.13L-3,198.217a21.618,21.618,0,0,0,11.275-11.29l11.056,5.039a3.319,3.319,0,0,0,4.4-1.636c.044-.1.088-.219.131-.321a37.34,37.34,0,0,0,.015-23.455Zm-17.8,4.1-4.586,2.088a3.286,3.286,0,0,0-1.9,3.549,11.426,11.426,0,0,1,0,3.987,3.286,3.286,0,0,0,1.9,3.549l.2.088A14.533,14.533,0,0,1-6,191.6l-.088-.2a3.286,3.286,0,0,0-3.549-1.9,11.426,11.426,0,0,1-3.987,0,3.286,3.286,0,0,0-3.549,1.9l-.1.2a14.56,14.56,0,0,1-7.682-7.7l.2-.088a3.286,3.286,0,0,0,1.9-3.549,11.426,11.426,0,0,1,0-3.987,3.286,3.286,0,0,0-1.9-3.549l-.2-.1a14.364,14.364,0,0,1,7.7-7.682l.088.2a3.268,3.268,0,0,0,2.994,1.942,3.418,3.418,0,0,0,.555-.044,11.425,11.425,0,0,1,3.987,0,3.286,3.286,0,0,0,3.549-1.9l.1-.2A14.478,14.478,0,0,1-.3,169.256a1.217,1.217,0,0,0,1.723.219,1.217,1.217,0,0,0,.219-1.723l-.029-.029A17.024,17.024,0,0,0-4.973,162.7l.964-2.132A19.384,19.384,0,0,1,6.068,170.658Zm-33.27.964-2.132-.979a19.2,19.2,0,0,1,10.063-10.063l.979,2.132A16.925,16.925,0,0,0-27.2,171.622Zm4.119-26.055a.8.8,0,0,1,.5-.453,35.107,35.107,0,0,1,21.907,0,.845.845,0,0,1,.5.453.873.873,0,0,1,0,.716l-8.149,17.876a.834.834,0,0,1-.876.5,14.226,14.226,0,0,0-4.849,0,.834.834,0,0,1-.876-.5l-8.149-17.876a.873.873,0,0,1,0-.716Zm-1.431,3.491,4.235,9.289a21.7,21.7,0,0,0-11.289,11.289l-9.289-4.235a32.087,32.087,0,0,1,16.343-16.343Zm0,58.434a32.167,32.167,0,0,1-16.343-16.328l2.833-1.3a1.242,1.242,0,0,0,.613-1.636,1.242,1.242,0,0,0-1.636-.613h0l-4.6,2.1a.873.873,0,0,1-.716,0,.8.8,0,0,1-.453-.5,35.106,35.106,0,0,1,0-21.907.845.845,0,0,1,.453-.5.873.873,0,0,1,.716,0l17.876,8.149a.854.854,0,0,1,.5.876,14.225,14.225,0,0,0,0,4.849.834.834,0,0,1-.5.876l-4.82,2.191a1.224,1.224,0,0,0-.555,1.65,1.216,1.216,0,0,0,1.577.584l2.381-1.081a17.026,17.026,0,0,0,8.909,8.909l-.964,2.132a19.3,19.3,0,0,1-7.741-6.061,1.235,1.235,0,0,0-1.723-.263,1.235,1.235,0,0,0-.263,1.723c0,.015.015.015.015.029a21.8,21.8,0,0,0,8.675,6.82Zm24.332,2.79a.873.873,0,0,1,0,.716.8.8,0,0,1-.5.453,35.106,35.106,0,0,1-21.907,0,.845.845,0,0,1-.5-.453.873.873,0,0,1,0-.716l8.149-17.876a.85.85,0,0,1,.759-.511.285.285,0,0,1,.117.015,14.225,14.225,0,0,0,4.849,0,.834.834,0,0,1,.876.5Zm-3.826-14.313-.979-2.132a17.026,17.026,0,0,0,8.909-8.909l2.132.979A19.151,19.151,0,0,1-4.009,195.968Zm25.558-6.733a.845.845,0,0,1-.453.5.873.873,0,0,1-.716,0L2.5,181.582a.854.854,0,0,1-.5-.876,14.225,14.225,0,0,0,0-4.849.834.834,0,0,1,.5-.876l17.876-8.149a.78.78,0,0,1,.365-.073,1,1,0,0,1,.351.073.8.8,0,0,1,.453.5,35.106,35.106,0,0,1,0,21.907Z" transform="translate(49.025 -140.875)" fill="#30e0a0"/><path d="M43.307,446.37l-.424.19a1.226,1.226,0,0,0,1.008,2.235h.015l.424-.19a1.229,1.229,0,1,0-1.022-2.235Z" transform="translate(-28.844 -401.661)" fill="#30e0a0"/></g></g></svg>