<svg xmlns="http://www.w3.org/2000/svg" width="50" height="50" viewBox="0 0 50 50"><g transform="translate(-234 -552)"><circle cx="25" cy="25" r="25" transform="translate(234 552)" fill="#fff"/><g transform="translate(241.999 560.282)"><path d="M349.451,224.05c.516-.019.675-.471.84-.8a16.946,16.946,0,0,1,7.877-7.77,9.012,9.012,0,0,1,2.793-.976,14.274,14.274,0,0,1-1.68,1.685c-.1.085.261.129.308.3A6.384,6.384,0,0,1,357.6,217.7a15.191,15.191,0,0,0-7.378,11.393,1.571,1.571,0,0,1-.247.746c-.532.236-.941.751-1.586.734a.606.606,0,0,1-.062-.257,7.269,7.269,0,0,0,.031-1.219,7.532,7.532,0,0,1,.236-1.96C348.844,226.1,349.279,225.109,349.451,224.05Z" transform="translate(-348.33 -213.794)" fill="#f8f0f5"/><path d="M448.838,326.565A3.753,3.753,0,0,1,447.4,327.6c-.551-.381.225-.492.158-.812-.607.184-.518.845-.854,1.188-.471.541-1.276.516-1.772,1.026a.45.45,0,0,1-.471.143.866.866,0,0,1-.44-.259,3.828,3.828,0,0,0-.184-1.163c1.485-.791,2.918-1.675,4.4-2.464.3.4.69-.122,1,.179.062-.353-.236-.45-.294-.663a9.424,9.424,0,0,1,2.217-2.53c.236.026.287-.129.3-.325a.557.557,0,0,1,.217-.11.551.551,0,0,1,.688.471,1.042,1.042,0,0,1-.066.633,2.878,2.878,0,0,0-.292.649,9.061,9.061,0,0,1-2.65,2.643C449.092,326.2,448.758,326.092,448.838,326.565Z" transform="translate(-421.362 -295.836)" fill="#fbc5de"/><path d="M423.06,212.189a13.619,13.619,0,0,1,6.708,2.118,5.984,5.984,0,0,1-.76,1.3c-.916-.236-1.647-.918-2.589-1.057a47.346,47.346,0,0,0-4.646-.976c-.313-.16-.32-.454-.306-.746a.617.617,0,0,1,.388-.614c.344-.134.45.113.591.336a.516.516,0,0,0,.236.209C422.175,212.168,422.917,212.365,423.06,212.189Z" transform="translate(-404.252 -212.012)" fill="#f9e6ef"/><path d="M401.411,211.676c-.318.236-.311.225-.087.471.071.075.15.216.127.292-.068.2-.236.094-.35.04-.052-.021-.092-.094-.141-.1-.36-.019-.313-.725-.746-.5s-.15.684-.214,1.036c-.348.353-.843.172-1.24.346a14.719,14.719,0,0,0-4,.775,1.291,1.291,0,0,1-.927.116c-.636.052-.534-.421-.68-.781.471-.071.445.3.68.586a2.38,2.38,0,0,1,1.412-1.747A13.379,13.379,0,0,1,401.411,211.676Z" transform="translate(-382.602 -211.499)" fill="#f9ebf2"/><path d="M482.812,251.008a11.444,11.444,0,0,1,1.412,5.125c-.41.188-.723.706-1.287.381a1.1,1.1,0,0,1-.266-.423,18.988,18.988,0,0,0-1.217-4.3,2.005,2.005,0,0,1-.075-.375,1.394,1.394,0,0,1,.908-1.635h0a2.4,2.4,0,0,0,.353.706h0a.2.2,0,0,1,0,.236C482.261,251.095,482.69,250.942,482.812,251.008Z" transform="translate(-450.055 -240.77)" fill="#fad3e5"/><path d="M474.713,238.861c-.381.471-.84.894-.706,1.589-.558-.021-.495-.567-.721-.866s-.419-.63-.624-.941c-.162-.236-.236-.5-.414-.723a2.526,2.526,0,0,1-.779-1.335,6.234,6.234,0,0,1,.775-1.076A11.448,11.448,0,0,1,474.713,238.861Z" transform="translate(-442.49 -229.859)" fill="#fad9e8"/><path d="M463.8,229.035c.045.541-.317.814-.706,1.066-.174.1-.306,0-.44-.092a11.932,11.932,0,0,0-1.318-1.191,1.727,1.727,0,0,1-.584-.682c-.071-.308-.553-.584-.2-.916.3-.278.706-.158,1.076,0a4.116,4.116,0,0,1,.76.419A3.984,3.984,0,0,1,463.8,229.035Z" transform="translate(-434.041 -223.393)" fill="#f9deeb"/><path d="M481.222,307.92a9.694,9.694,0,0,1-1.605,3.173,1.652,1.652,0,0,1-.471-.685c-.1-.269-.317-.487-.336-.791a6.032,6.032,0,0,1,1.316-2.5c.456.225.456.225.236.831C480.632,307.53,480.926,307.657,481.222,307.92Z" transform="translate(-448.102 -284.617)" fill="#fbc5de"/><path d="M457.281,223.19c-.6-.083-1.132-.508-1.791-.3-.029.346.438.471.375.833-.88.075-1.3-.723-1.979-1.036a.623.623,0,0,1-.139-.2,1.384,1.384,0,0,1,.706-1.235A7.937,7.937,0,0,1,457.281,223.19Z" transform="translate(-428.939 -218.956)" fill="#f9e1ed"/><path d="M487.382,276.476c.125-.236.918.445.636-.483-.061-.2.375.129.6.129a6.937,6.937,0,0,1,0,3.179.5.5,0,0,1-.3.15c-.308.017-.633-.047-.734-.346-.116-.344.313-.332.459-.508-.431.193-.706.026-.85-.4C487.144,277.613,486.973,277.013,487.382,276.476Z" transform="translate(-454.453 -260.767)" fill="#facfe3"/><path d="M486.96,286.1a2.117,2.117,0,0,1,.236.108c.339.2.739-.576.927-.04.1.278-.636.188-.84.551.236.315.591.251.918.266,0,.292,0,.586-.016.878-.513.092-.962.788-1.554.165A2.452,2.452,0,0,1,486.96,286.1Z" transform="translate(-454.028 -268.448)" fill="#facbe1"/><path d="M486.609,294.091c.5,0,.826-.654,1.412-.356v.179c-.56.365-.075.976-.336,1.412h0c-.6.567-.666.555-1.322-.236a.674.674,0,0,1-.026-.236c.056-.236.143-.45.214-.671Z" transform="translate(-453.856 -274.322)" fill="#fac8e0"/><path d="M485.161,304.38c-.537.029-.953-.122-1.078-.706a.4.4,0,0,1-.075-.471c.572.2.609-.384.892-.607a.536.536,0,0,1,.209-.106c.688.014.236.576.4.84A1.924,1.924,0,0,1,485.161,304.38Z" transform="translate(-452.041 -281.076)" fill="#fac5de"/><path d="M455.907,343.016c-.16-.642.4-1.019.549-1.556l.69.369c.038.419-.72.292-.541.81C456.378,342.766,456.206,343,455.907,343.016Z" transform="translate(-430.568 -310.875)" fill="#fabcd9"/><path d="M486.763,300.806c-.292-.15-.047-.579-.363-.717-.236-.118-.525-.16-.692-.4a.539.539,0,0,1-.108-.209c.014-.167.029-.33.268-.273.329.414.675.772,1.243.358A1.958,1.958,0,0,1,486.763,300.806Z" transform="translate(-453.295 -278.554)" fill="#fbcee3"/><path d="M479.61,321a.953.953,0,0,1,.35.694c-.236.2-.174.6-.52.723a.11.11,0,0,1-.182,0v-.706C479.61,321.588,479.036,321,479.61,321Z" transform="translate(-448.447 -295.23)" fill="#fbbdd9"/><path d="M463.987,339.834c-.236-.139-.508-.3-.2-.574s.51,0,.706.207a.6.6,0,0,1-.5.367Z" transform="translate(-436.509 -309.105)" fill="#fbbdda"/><path d="M490.395,296.172c0-.375.116-.814-.495-.913l.831-.5C490.545,295.212,490.691,295.758,490.395,296.172Z" transform="translate(-456.583 -275.165)" fill="#facbe1"/><path d="M485.741,253.3c-.179.062-.327.236-.551.15a1.059,1.059,0,0,1,.367-.671C485.76,252.9,485.723,253.105,485.741,253.3Z" transform="translate(-452.981 -243.066)" fill="#fad9e8"/><path d="M478.285,327h.181a.591.591,0,0,1-.355.532C478.015,327.308,477.815,327.047,478.285,327Z" transform="translate(-447.473 -299.818)" fill="#fbcae1"/><path d="M485.59,250.456a.622.622,0,0,1-.353-.706A.986.986,0,0,1,485.59,250.456Z" transform="translate(-453.014 -240.748)" fill="#fad9e8"/><path d="M363.61,219.051a11.583,11.583,0,0,1,4.942-1.059c.1-.085.236-.118.311-.019a.257.257,0,0,1-.143.417c-.777.127-.788.534-.675,1.221a2.171,2.171,0,0,1-.751,1.631.375.375,0,0,1-.543.1.32.32,0,0,1-.106-.471c.32-.492.122-1.019.106-1.565a1.512,1.512,0,0,1-1.151,1.3c-.323.092-.236.555-.257.871s-.219.654-.543.45c-.6-.375-.445.236-.421.336.2.91-.539,1.057-1.076,1.351-.186.1-.4.11-.494-.17,0-.023-.023-.146-.04-.075-.252.976-.706.388-1.235.031.275.236.375.375.353.572a.4.4,0,0,1-.323.155.675.675,0,0,1-.4-.15c-.05-.094.094-.05-.021-.038-.05,0-.04.059.026.083.426.45.986.769,1.177,1.412a3.107,3.107,0,0,1-.15.842c-.263.8-.284,1.716-1.358,2.041a1.148,1.148,0,0,0-.941,1.32,1.976,1.976,0,0,1-.15.769c-.075.236-.236.489-.489.4-.647-.236-1.043.471-1.631.381-.12.81-.843,1.412-.819,2.264a1.141,1.141,0,0,1,.075.236c.017.15-.08.313-.052.423.12.443-.751-.019-.483.572.158.344-.019.751.029,1.13a1.035,1.035,0,0,1-.129.676c-.315.508-.574.162-.93,0s-.176.784-.739.541c-.346-.15-.219-.675-.614-.8-.287-.325-.113-.626.047-.93.186-.089.214-.15.108-.216a.9.9,0,0,1-.393-.551,3.152,3.152,0,0,1,.193-2.066c.287-1.126.339-2.29.671-3.419a15.611,15.611,0,0,1,5.088-7.674,19.932,19.932,0,0,1,3.934-2.312Z" transform="translate(-352.39 -216.403)" fill="#fbf4f8"/><path d="M350.384,282.54c.125.294-.315.588,0,.883a4.926,4.926,0,0,1,.645,2.005c-.489.3-.955.925-1.527.113a13.283,13.283,0,0,1-.676-5.119c.4-.365.76-.788,1.384-.706v2.294A.8.8,0,0,1,350.384,282.54Z" transform="translate(-348.697 -263.654)" fill="#f7ebf2"/><path d="M348.824,277.768a2.662,2.662,0,0,1,.125-1.3C348.923,276.9,349.1,277.355,348.824,277.768Z" transform="translate(-348.689 -261.18)" fill="#f7ebf2"/><path d="M351.444,277.61l.158.2c-.059.033-.127.1-.176.092s-.1-.094-.15-.146Z" transform="translate(-350.579 -262.051)" fill="#f7ebf2"/><path d="M444.328,293.711v.525q-.617,1.235-1.231,2.477a1.5,1.5,0,0,1-.706,1.059h0c-.1.1-.035.278-.181.35l-2.292,2.471c-.113.339-.288.6-.706.537a18.426,18.426,0,0,1-4.417,2.469,1.664,1.664,0,0,1-.878.525,2.489,2.489,0,0,1-1,.083,2.445,2.445,0,0,1-.546-1.266c0-.087.035-.181-.014-.261-.52-.826-.52-1.064-.019-1.84.191-.3.221-.669.412-.97.045-.275-.193-.4-.315-.579-.162-.236-.358-.483-.035-.746.327-.132.68,0,.982-.085-.45,0-.97.162-1.276-.407.094-.344.358-.348.626-.284.621.146.9-.287,1.191-.69.155-.216.026-.8.551-.532.414.212.784.565.445,1.126-.04.066-.08.085-.062.094.421-.155.2-.565.336-.838.209-.435.282-1.019,1-.808.1.12.167.323.393.132a3.978,3.978,0,0,0,1.012-1.2c.127-.236.134-.6.513-.64.122.029.375.179.348.066-.158-.647.254-.883.706-.986.551-.122.812.348,1.08.732a.68.68,0,0,0,.113.15,1.028,1.028,0,0,0-.209-.4c-.141-.221-.581-.317-.358-.69a.988.988,0,0,1,.9-.45c.207,0,.421.113.607.064.375-.1.762-.3.358-.751-.539-.6-.15-1.158,0-1.726a3.856,3.856,0,0,1,2-.212c.257.236.278.471-.071.6s-.572.417-.925.471c-.05,0-.083-.017-.087-.075-.033.054,0,.075.068.075.85-.261,1.177-.125,1.624.706.12.236.162.5.386.666h0a.5.5,0,0,1,.122.471A.847.847,0,0,1,444.328,293.711Z" transform="translate(-412.28 -271.646)" fill="#fce3ef"/><path d="M425.1,348.888a3.363,3.363,0,0,1,1.059-.174c.259.375.81.317,1.059.706a.367.367,0,0,1,.356.181,17.054,17.054,0,0,1-2.118.73,17.424,17.424,0,0,1-3.528.3,1.243,1.243,0,0,1,.471-1.527A6.363,6.363,0,0,1,425.1,348.888Z" transform="translate(-404.53 -316.413)" fill="#f9c9df"/><path d="M441.309,348.317c-.391-.179-1.057.054-1.059-.706l.883-.35c.089.645.471-.282.612.158C441.806,347.782,441.248,347.9,441.309,348.317Z" transform="translate(-418.617 -315.31)" fill="#f9cae0"/><path d="M462.292,335.022l.706-.537c.236.1.45.214.518.51.019.092.164.176.075.287s-.259.2-.375.094c-.44-.412-.706-.026-1.063.355C462.219,335.392,462.256,335.208,462.292,335.022Z" transform="translate(-435.364 -305.544)" fill="#fabeda"/><path d="M476.25,319.059a3.737,3.737,0,0,1,.706-1.059c.188.2.426.375.353.706-.355.118.249.706-.353.706C476.9,318.941,476.525,319.094,476.25,319.059Z" transform="translate(-446.145 -292.936)" fill="#fbcae1"/><path d="M475.477,322.86a.375.375,0,0,1,.181-.351c0,.207.423.313.188.549C475.679,323.221,475.63,322.878,475.477,322.86Z" transform="translate(-445.553 -296.384)" fill="#fbcae1"/><path d="M386.383,223.587c-.031-.05-.064-.1-.089-.15-.134-.266-.852-.3-.433-.736.375-.391.471.209.666.407.351.375.525.261.628-.179.035-.141.087-.28.113-.423.033-.2.146-.367.344-.275.236.113.075.29-.026.429s-.16.236-.012.572c.313-.56,1.492-.236,1.021-1.452-.085-.216.344-.628.525-.941.433.042-.125.706.391.579.421-.1,0-.541.113-.64.3-.236-.2-1.177.751-.885.068.019.755-.15.52-.706-.217-.5.137-.694.5-.68.45.017.2.36.155.6-.106.492.4,1.1-.266,1.494a.3.3,0,0,0,.07.212.276.276,0,0,0,.236.019,2.224,2.224,0,0,0,.675-2.083c-.313-.57-.172-.81.471-.826.17,0,.624.164.358-.344.375-.339.826-.108,1.235-.176a14.1,14.1,0,0,1,4.172.767c.252.059.513.075.769.118a.45.45,0,0,1-.485.57c-.706-.2-1.565.454-2.1-.435-.332.471.275,1.059-.266,1.426a.756.756,0,0,1-.967-.031c.085.2.318.17.471.263.3.184.336.391.025.6-.07.05-.2.056-.235.118-.562,1.346-1.106.075-1.629.087a.949.949,0,0,1,.487,1.115c-.16.443-.582.282-.958.306.492.706-.532.941-.471,1.542-.626.429-1.308-.062-1.951.127-.164,0-.329-.014-.492-.026-.6.236-.706.925-1.313,1.316a.876.876,0,0,1,.982.431.907.907,0,0,1,.062.386.751.751,0,0,1-.906.621.484.484,0,0,1-.212-.137c0-.45-.268-.576-.666-.549a2.05,2.05,0,0,1-.96-.767,1.8,1.8,0,0,1-.014-.8.261.261,0,0,0-.042-.141c-.075.054-.075.15-.11.236a.36.36,0,0,1-.282.186,1.139,1.139,0,0,1-.808-.549A.63.63,0,0,1,386.383,223.587Z" transform="translate(-376.928 -215.998)" fill="#fbf3f7"/><path d="M415.9,225.9c-.236-.257-.323-.494.1-.647.075-.029.236-.045.236-.075.04-.626.209-1.106.991-.982-.052-.287.106-.619-.219-.852a2.662,2.662,0,0,1-.485-.5.207.207,0,0,1,.062-.308.642.642,0,0,1,.236-.04c.08.706,1.219.179,1.177,1.1-.042-.659.2-.988.976-.92-.471-.471-1.08-.52-1.221-1.078.332-.216.471.035.631.236.236.306.471.075.706.014.412-.1.068-.29.052-.445a3.159,3.159,0,0,0-.038-.852c-.075-.2.127-.3.3-.36s.266.059.334.2c.236.471.471.854.965.236.064-.075.36-.1.4-.047.45.671.682.113.967-.15a11.333,11.333,0,0,1,2.471,1.233h.176a1.974,1.974,0,0,0,.41.649.5.5,0,0,1,.059.63c-.155.236-.346.132-.529.056-.236-.092-.539.017-.676-.292-.094-.08.118-.419-.221-.282a1.684,1.684,0,0,0-.41.317c-.636.555-.638.553-1.139-.176a1.455,1.455,0,0,1-.871,1.061c-.1.221-.3-.456-.287,0a3.76,3.76,0,0,1-1.471,2.812.706.706,0,0,1-.586.134.946.946,0,0,0-1.014.706c.323-.1.292-.875.812-.471.44.353.193.732-.1,1.061a1.107,1.107,0,0,1-.348.266c-1.078.549-1.695-.188-2.342-.84a1.588,1.588,0,0,1-.412-.624C415.426,226.309,415.991,226.231,415.9,225.9Z" transform="translate(-399.736 -218.133)" fill="#fcf1f6"/><path d="M462.479,279.578c.412-.188.649-.661,1.177-.706-.259-.15-.471-.654-.742-.068-.139.29-.384.017-.541.116-.236.155-.487-.489-.586-.083-.125.5-.638,1.064-.026,1.608.132.118.614.282.315.375-.412.127-.16,1.151-.982.628a.941.941,0,0,0-1.3.341,1.2,1.2,0,0,1,.122.122c.263.339.991.694.6,1.051-.423.39-.56-.426-.775-.69-.433-.53-.694-.3-1.038.029-.209.2-.225.188.217.706-.375-.026-.8.518-.887-.287a1.047,1.047,0,0,0-.017-.12,11.3,11.3,0,0,0,0-2.014c-.087-.388.348-.53.341-.864a6.755,6.755,0,0,0,.118-3.059c1.276-.765,2.751-1.051,3.245.2-.261-.852.539-.706.92-.967.014-.275-.471-.456-.141-.769a.727.727,0,0,1,.96-.075c.176.1.445.113.537.275.334.586.628.167.941,0a.367.367,0,0,1,.176.353v1.942a20.268,20.268,0,0,0-.179,2.118h0c-.122.219,0,.5-.174.706v.174a.391.391,0,0,0-.179.356c-.723.019-.612-.763-.991-1.1-.3-.268-.259-.435-.562-.047-.108.141-.41-.075-.56-.261Z" transform="translate(-432.197 -259.986)" fill="#fce6f0"/><path d="M460.246,262.382l-.525.887c-.143-.821-.892-.819-1.393-1.137-.08-.052-.346.068-.44.184-.176.214.029.294.2.336.327.083.094.257.066.388-.04.176-.075.315-.344.266-.506-.094-.826.033-.6.657.068.188.08.471-.2.489-.358.026-.164-.247-.181-.429-.045-.471-1.146-1.106-1.49-.775-.471.45-.993.143-1.438.367-.694-.586-1.393-1.163-2.043-1.8-.05-.419.275-.494.558-.609a1.015,1.015,0,0,1,.254-.035c.225,0,.429.236.661.075.085-.061.15.214.181,0,.1-.609.212-.706.72-.692.781.035.311.582.381.906a.706.706,0,0,0,.085.181c.054-.278-.014-.657.358-.675s.485.329.675.591c-.459-.793.174-1.431.249-2.137.106-.955.744-1.2,1.45-1.256.532-.047,1.051-.118,1.576-.2a11.206,11.206,0,0,1,1.234,4.423Z" transform="translate(-427.494 -247.026)" fill="#fce8f1"/><path d="M453.665,243.669c-.15.28-.887.071-.445.864a1.32,1.32,0,0,0-2.261.4c-.15.431-.275.873-.442,1.287-.122.306-.209.485,0,.769a.41.41,0,0,1-.236.685c-.525.062,0-.336-.125-.431-.176-.132-.186-.518-.471-.417-.209.075-.179.329-.075.537.059.122.174.257,0,.41-.652-.261-.628-.751-.375-1.33l-1.09.089c-.054.313.5.066.336.45-.11.268-.375.1-.41.134-.32.263-.518-.12-.772-.1a8.776,8.776,0,0,0-1.115-1.972c.021-.11-.165.064-.056.014.054.567-.3.826-.763,1a.543.543,0,0,1-.471-.4.57.57,0,0,1,.143-.591c.516-.2.44-.675.516-1.082a.508.508,0,0,1,.252-.384c.174-.064.45.143.525-.2a.412.412,0,0,1,.581.236,1.509,1.509,0,0,0,1.913,1.106.751.751,0,0,1-.652-.661c.026-.4.626-.323.619-.751.075-.44-.193-.972.344-1.287a.612.612,0,0,1,.225-.054c.021-.066.209.143.12-.071-.023-.056-.137-.085-.2-.141-.15-.214-.122-.384.122-.5a2.118,2.118,0,0,1,.706.056c.329.038.649.236.958-.15s.05-.642-.08-.953-.375-.619-.122-.982l.353.176a6.231,6.231,0,0,0,.883,1.235c-.012.3.031.572.353.706a11.8,11.8,0,0,1,1.235,1.944Z" transform="translate(-422.145 -232.726)" fill="#fceaf3"/><path d="M474.9,245.954c-.525.344-.329-.317-.56-.435s.05-.236.207-.268Z" transform="translate(-444.614 -237.307)" fill="#fcedf4"/><path d="M433.838,231.648q-.271.176,0,.353c.092.193-.038.275-.176.353-.284.092-.348-.15-.442-.313s-.193-.375-.471-.236c-.407.219-.6.038-.669-.367-.038-.2-.15-.325-.375-.236-.184.066-.292.181-.219.4s.489.471.075.628a.918.918,0,0,1-1.092-.36c-.122-.172-.15-.407-.36-.087a3.276,3.276,0,0,0-.375,1.118.273.273,0,0,0-.023.471c.3.254.2.671.421.941-.042.41.132.941-.56.982-.393-1.834-1.942-1.882-3.339-2.165-.358-.075-.767.062-1.051-.284.113-.134.221-.273.339-.4.2-.236.292-.52,0-.671-.433-.221-.176.292-.339.393s-.236.433-.5.45a.254.254,0,0,1-.17-.16.593.593,0,0,1,.236-.692c.369-.257.638-.706,1.2-.56.323.083.5-.023.508-.386a.369.369,0,0,1,.167-.287c1.071-.375.92-1.285,1.009-2.118.016-.15-.094-.619.294-.609.492.012-.092.549.268.669l.12.031a3.725,3.725,0,0,1,.52,1.882c0-.212-.085-.525.162-.549.638-.054.821-.739,1.434-.895.541-.137.188-.826.334-1.247l.075-.1c.259.158.661-.334.85.193.029.08.15.045.2-.042a.268.268,0,0,0,0-.32c-.188-.266-.576-.459-.358-.889l1.942,1.235a1.113,1.113,0,0,0,.541.52c.059.445-.225.553-.576.572a1.021,1.021,0,0,0-.817.581c-.518.8-.513.772.362,1.148C433.43,230.787,434.04,230.9,433.838,231.648Z" transform="translate(-406.557 -222.999)" fill="#fceef5"/><path d="M457.581,237.387c-.2-.878-.984-.889-1.635-1.043-.391-.092-.584-.167-.236-.518.44-.443.471-1.254,1.177-1.412.329-.075.729.118.875-.375A5.091,5.091,0,0,1,459,235.275a2.927,2.927,0,0,0,.445,1.109c.181.252.44.645.17.854s-.549.751-1.121.384C458.244,237.462,457.861,237.561,457.581,237.387Z" transform="translate(-430.299 -228.735)" fill="#fcedf4"/><path d="M486.75,296.206c.023-.236-.085-.52.174-.706a.5.5,0,0,1-.174.706Z" transform="translate(-454.172 -275.732)" fill="#facbe1"/><path d="M484.51,303.434c.118-.176.236-.355.348-.532a1.194,1.194,0,0,1,.532,0C485.119,303.771,485,303.844,484.51,303.434Z" transform="translate(-452.461 -281.368)" fill="#fbcee3"/><path d="M486.523,301.28a.471.471,0,0,1-.532,0v-.53c.339.038.471.339.706.53Z" transform="translate(-453.594 -279.745)" fill="#fac8e0"/><path d="M351.75,303.894c.16-.064.3-.146.375.127.059.236.275.1.426.113-.106-.873.426-.116.614-.236.355.125.4.471.506.751a10.154,10.154,0,0,0,1.139,2.311,3.453,3.453,0,0,0,.407.706,9.334,9.334,0,0,1,.661.965.569.569,0,0,1,.04.236.471.471,0,0,1-.106.214c-.435.08-.551,1.026-1.229.454A13.988,13.988,0,0,1,351.75,303.894Z" transform="translate(-350.945 -282.008)" fill="#f8e5ef"/><path d="M376.123,339.411a14.429,14.429,0,0,1-5.648-3.707.341.341,0,0,1,.471,0,2.615,2.615,0,0,0,2.158.41,5.364,5.364,0,0,1,1.337.687,13.831,13.831,0,0,0,1.951,1.038,5.4,5.4,0,0,1,1.631.621.334.334,0,0,1,.08.236c-.294.278-.72.313-.93.8C376.988,339.938,376.5,339.321,376.123,339.411Z" transform="translate(-365.261 -306.401)" fill="#f9d8e8"/><path d="M368.009,328.979c-.772.174-1.548.417-2.2-.325-.1-.116-.3-.137-.456-.2a7.2,7.2,0,0,1-1.576-1.77c.184-.042.45.247.546-.155.085-.358.384-.375.682-.375.252-.1.375.085.513.236a13.062,13.062,0,0,0,2.139,1.951C367.872,328.487,368.11,328.65,368.009,328.979Z" transform="translate(-360.143 -299.149)" fill="#f8dfeb"/><path d="M394.47,348.986a.6.6,0,0,1,.642.042c.134.068.344.236.32-.12-.059-.826.546-.6.986-.63.348-.3.706-.042,1.061-.031a2.138,2.138,0,0,1,.271.064c.492.219,1.126-.12,1.544.375.167.492-.671.814-.236,1.355a.207.207,0,0,1-.236.025,11.515,11.515,0,0,1-4.353-1.085Z" transform="translate(-383.611 -315.978)" fill="#f9d1e4"/><path d="M416.622,350.141l-.353,1.384h-.706a1.519,1.519,0,0,0-.165-.056c-.3-.106-.75.236-.9-.247a.928.928,0,0,1,.5-1.245,1.929,1.929,0,0,1,1.628.164Z" transform="translate(-398.871 -317.31)" fill="#f9d1e4"/><path d="M413.759,350.749c-.44.821-.313,1.071.706,1.382a3.337,3.337,0,0,1-1.469-.12c0-.471-.075-.955.414-1.262a.235.235,0,0,1,.348,0Z" transform="translate(-397.774 -317.919)" fill="#f9c9df"/><path d="M357.618,268.471c-.755-.541-.862-1.45-1.231-2.207-.15-.308-.236-.645-.358-.97l-.53-2.118c.525-.236.435.08.375.41-.031.176.04.384.268.351s.137-.212.1-.355a.4.4,0,0,1,.306-.541c.209-.059.315.075.375.269s.139.36.353.311a.45.45,0,0,0,.308-.471,5.355,5.355,0,0,1,.026-1.372c.014-.071.025-.2-.106-.184s-.336.261-.334-.085c0-.16.209-.384.353-.329.751.287.543-.308.624-.64a.874.874,0,0,0,.155-.273,1.492,1.492,0,0,1-.155.273c-.257-.014-.236-.15-.2-.355.075-.423.391-.706.539-1.092s.3-.814.442-1.224c.558.45.725-.184,1.051-.375.047-.029.129-.066.158-.045.612.445.883.176.913-.471.021-.423.433-.9-.186-1.313.883.249,1.126-1,1.967-.706-.125-.676.508-1.073.612-1.664a.2.2,0,0,1,.216-.05,2.016,2.016,0,0,1,.574.614.4.4,0,0,1-.052.35c-.116.071-.28.075-.348.268a.588.588,0,0,1,.518-.236.471.471,0,0,1,.323.346,2.137,2.137,0,0,0,.334.765,2.252,2.252,0,0,1,.341.676,1.057,1.057,0,0,1-.4,1.051c-.384.118-.6-.129-.868-.471a11.849,11.849,0,0,1,0,1.828c.04.353-.207.471-.506.45a2.056,2.056,0,0,0-1.076.118c.141.054.471-.083.429.353a2.644,2.644,0,0,1-2.4,2.5c.08.087-.075,0-.04.029.638.454.471,1.057-.056,1.219s-.254.471-.4.659c-.28.388.012.2.193.247.41.1,1.038.085.862.775a.761.761,0,0,1-1.121.6c-.777-.266-.965-.071-.941.781.014.323.087.68-.207.9s-.549.066-.8-.317a1.247,1.247,0,0,0,.663.913c.236.17.513.375.375.706s-.456.2-.706.236S357.832,268.706,357.618,268.471Z" transform="translate(-353.812 -243.407)" fill="#fcf1f7"/><path d="M384.148,249.125a1.171,1.171,0,0,0,.339-1.051.355.355,0,0,1,.225-.089c.339.062.471.445.8.52a.565.565,0,0,0,.636-.174c.15-.216-.029-.386-.172-.53a14.362,14.362,0,0,0-1.576-1.525,5.731,5.731,0,0,1-1.473-1.711l-1.21-1.464c-.056-.15,0-.193.143-.137l.341.176a1.219,1.219,0,0,1,.553.525l.659.549c.325.031.442.284.57.525l.847.706a1.311,1.311,0,0,1,.758.676h0a4.79,4.79,0,0,1,1.763,1.443,1.449,1.449,0,0,1-.736,1.979,4.792,4.792,0,0,1-.993.35,1.014,1.014,0,0,0-.852.988,5.621,5.621,0,0,1-.584,2.1,1.807,1.807,0,0,0,.676,2.669,1.935,1.935,0,0,1,.864,2.205c-.236.53-.727.772-1.153,1.092a3.109,3.109,0,0,1-.838.431c-.607.052-1.268.492-1.774-.236a14.743,14.743,0,0,1-.941-1.737,3,3,0,0,1,.539-3.257,9.084,9.084,0,0,0,1.33-1.939,2.16,2.16,0,0,1,.1-.236,7.562,7.562,0,0,0,.492-1.812A1.177,1.177,0,0,1,384.148,249.125Z" transform="translate(-373.122 -235.539)" fill="#fc017a"/><path d="M389.411,249.84c1.061,1.007,2.118,2.01,3.177,3.029.236.236.763.487.315.9a.9.9,0,0,1-1.339.059q-.414-.554-.84-1.1c-.125-.236-.292-.421-.429-.638a.339.339,0,0,0-.179-.334c-.05-.068-.164-.071-.176-.176v-.339c-.236-.116-.259-.471-.539-.543h-.172Z" transform="translate(-379.605 -240.817)" fill="#fceaf3"/><path d="M354.926,290.03c-.207-.127-.172-.336-.176-.53l.718.445C355.3,290.1,355.1,289.994,354.926,290.03Z" transform="translate(-353.238 -271.143)" fill="#fcf1f7"/><path d="M383.956,241.96l-.143.137a.539.539,0,0,1-.313-.454C383.763,241.616,383.853,241.8,383.956,241.96Z" transform="translate(-375.223 -234.547)" fill="#fb3494"/><path d="M387.443,244.294l-.553-.525h.375C387.328,243.942,387.387,244.12,387.443,244.294Z" transform="translate(-377.815 -236.175)" fill="#fcf1f6"/><path d="M396.927,319.388l-1.765-.53c-.017-.315-.125-.659.252-.856.288-.15.433.035.649.4-.108-.555-.421-1.09.456-.986.5.059.626-.676,1.088-.786.751-.176.591-.706.5-1.193-.066-.363-.375-.788.1-1.019s.838.071,1.134.438c.047.059.07.158.158.141a2.125,2.125,0,0,1,.334-1.322c.2-.516.706-.576,1.09-.017.146.327.591.506.495.941a.636.636,0,0,0-.137-.8.47.47,0,0,1-.05-.636c.308-.17.471-.375.16-.687-.1-.287-.05-.6-.17-.887a2.2,2.2,0,0,0-.236-.375c-.094-.122-.221-.225-.236-.4a.375.375,0,0,1,.275-.236c.706-.056,1.059.44,1.341.941a11.145,11.145,0,0,0,1.779,2.748c-.016.553.751.654.706,1.223-.261.116-.41-.1-.6-.2-.341-.052-.113.221-.181.325-.365.489-.57.278-.72-.162,0-.083.118-.116.1-.209a.158.158,0,0,1-.087.137,2.7,2.7,0,0,1-1.036.471c-.209.064-.549.017-.579.292a.636.636,0,0,0,.525.626c.471.11.706.323.706.826s.15,1.012-.617,1.088c-.254.026-.139.793-.671.414-.44-.313-.139-.675-.014-1.021,0-.019-.84-.889-.856-.88-.174.12-.236.249-.029.4.263.181.348.4.12.659s-.471.132-.706,0a4.031,4.031,0,0,0-.386-.207.263.263,0,0,0-.323.04c-.094.1-.059.2,0,.313.367.847.365.847-.649.808a.923.923,0,0,1-1.356-.3c-.15-.225-.308-.311-.574-.15-.362.219.184.336.04.518Z" transform="translate(-384.12 -287.264)" fill="#fce7f1"/><path d="M433.559,300.739c-.826-.047-.675.723-.885,1.151-.05.1.042.346-.17.454s-.375.609-.682.278.188-.344.313-.518c.375-.53-.3-.612-.471-.953.033.63-.456.864-.775,1.247-.471.576-.922-.122-1.346.1-.426.094-.5-.261-.562-.513a9.866,9.866,0,0,1-.483-2.487,7.16,7.16,0,0,0,.375-.669,1.135,1.135,0,0,0,.254-1.126c-.294-.607.137-.742.5-.941.532-.306.53.254.742.471.1.1.16.247.309.3.426-.306.817-.624.767-1.235,0-.1.15-.165.271-.179a7.766,7.766,0,0,1,2.177,3.5C434,300,434.075,300.482,433.559,300.739Z" transform="translate(-409.632 -276.204)" fill="#fce6f1"/><path d="M413.287,330.161a.384.384,0,0,0,.358.407c.15.021.158-.12.172-.236a.636.636,0,0,1,.353-.353l.53.353c-.369.45-.313,1.16-.918,1.464a.236.236,0,0,0-.05.225c.682.638-.313.313-.311.572.214.386.642.1.993.3-.663.6.325,1.078.108,1.673a13.133,13.133,0,0,1-2.824.358h-2.117c-.459-.445-1.132.085-1.591-.353.12-.353.6-.338.706-.706.143-.212.292-.122.438,0s.278.108.358-.056-.062-.254-.209-.292a.375.375,0,0,1-.221-.654c.158-.167.438-.574.788-.118a1.522,1.522,0,0,0,.513.309.236.236,0,0,0,.363-.122c.08-.155.012-.358-.132-.348-.64.04-.236-.309-.236-.525,0-.263.139-.4.367-.381s.471.125.336.471c-.05.125-.023.268.122.251,1.4-.162.525.621.358.963-.2.412.141.386.219.57.369-.261-.029-.612.191-.826.313-.17.188.5.525.236a.46.46,0,0,0,.2-.6,4.6,4.6,0,0,0-.669-.847,5.788,5.788,0,0,1-.742-.739c-.188-.235-.054-.555.184-.539C412.125,330.641,412.651,330.161,413.287,330.161Z" transform="translate(-393.949 -302.096)" fill="#fce5f0"/><path d="M441.413,292.092a2.011,2.011,0,0,0-.15-1.836,16.883,16.883,0,0,0-1.77-2.777,1.92,1.92,0,0,1-.318-2.667,7.218,7.218,0,0,1,4.029,2.781,4.777,4.777,0,0,1,.129,2.73v-.014a3.7,3.7,0,0,1-1.927,2.311C441.178,292.438,441.508,292.264,441.413,292.092Z" transform="translate(-417.486 -267.558)" fill="#fc017a"/><path d="M406.534,304.921c.44,1.019.261,2.226.97,3.16.386.572.993.309,1.572.4-.431.471-.955.292-1.426.323-.991-.421-1.313-1.365-1.732-2.231-.3-.619-.628-1.2-1.386-1.337a1.457,1.457,0,0,0-.84.162c-.45.155-.684.471-.483.953s.6.51,1.034.346c.162-.062.282-.209.471-.249.317.1.172.367.212.567,0,.4-.273.579-.6.706a3.1,3.1,0,0,1-.835,0,3.046,3.046,0,0,1-1.254-.781,4.448,4.448,0,0,0-1.981-1.235c-.694-.221-.725-.471-.165-.92a4.776,4.776,0,0,1,.812-.52c.4-.186.8-.4,1.21-.584a4.879,4.879,0,0,1,2.852-.089A1.893,1.893,0,0,1,406.534,304.921Z" transform="translate(-387.603 -281.789)" fill="#fc027a"/><path d="M475.723,293.812l-.393-.075c.033-.064.052-.17.1-.188C475.683,293.452,475.69,293.651,475.723,293.812Z" transform="translate(-445.442 -274.219)" fill="#fce6f0"/><path d="M483.258,301.52a.92.92,0,0,1,.094.257.188.188,0,0,1-.1.127c-.125.054-.158-.047-.146-.134S483.18,301.633,483.258,301.52Z" transform="translate(-451.383 -280.334)" fill="#fce6f0"/><path d="M402.106,246.2a1.115,1.115,0,0,0-.278-.2c-.725-.236-.706-.219-.236-.854.174-.236.471-.375.45-.777-.016-.282.287-.172.471-.1a.508.508,0,0,0,.417.287c.236.04.458.031.68.087a.832.832,0,0,1,.214.1,4.988,4.988,0,0,1,.51.471,2.048,2.048,0,0,0,.706.525.487.487,0,0,1,.2.261.562.562,0,0,0,.344.5,1.911,1.911,0,0,1,.72.976c.021.3-.085.5-.4.537a2.337,2.337,0,0,1-.8-.647c.092.412.567.456.838.721-.137.775-.375.9-.911.44-.29-.236-.551-.525-.862-.751a1.931,1.931,0,0,1-.435-1.021,2.267,2.267,0,0,0-.454-.927c-.513-.57-.725-.53-1,.193a.348.348,0,0,1-.167.181Z" transform="translate(-388.803 -236.493)" fill="#fcf1f6"/><path d="M404.653,249.011v-.087c.04-.358-.236-.916.122-1.034.4-.134.856.2,1.191.555.532.57.471,1.341.739,2,.225.068.28.29.381.45.174.28.525.6.236.93-.341.375-.751.129-1.109-.08a3.813,3.813,0,0,1-.717-.633,2.52,2.52,0,0,1-.788-1.805C404.686,249.209,404.672,249.11,404.653,249.011Z" transform="translate(-391.349 -239.303)" fill="#fc037b"/><path d="M402.205,254l.85,1.678c.129.214.125.353-.179.327l-1.558-1.426C401.736,254.574,402.12,254.518,402.205,254Z" transform="translate(-388.848 -243.998)" fill="#fcf1f6"/><path d="M410.571,244.5c.348.365-.341.471-.2.772-.407.158-.717-.075-1.051-.249l.014.012c-.174-.252-.513-.122-.706-.308a.193.193,0,0,1-.017-.214Z" transform="translate(-394.411 -236.733)" fill="#fcf1f6"/><path d="M398.818,254.15l-.758-.675C398.578,253.4,399.011,253.423,398.818,254.15Z" transform="translate(-386.357 -243.577)" fill="#fcf1f6"/><path d="M392.766,245.63c-.17-.348-.031-.628.317-.567s.108.365.035.567a.236.236,0,0,1-.353,0Z" transform="translate(-382.253 -237.158)" fill="#fbf4f8"/><path d="M392.236,247.5h.353c.176.236-.083.485,0,.727L392,247.7Z" transform="translate(-381.723 -239.028)" fill="#fcf1f6"/><path d="M406.835,244.55c.017.045.035.092.05.137a.44.44,0,0,1-.193.35c-.174-.12-.584-.075-.339-.487Z" transform="translate(-392.639 -236.771)" fill="#fc88c0"/><path d="M401.05,239.231a2.514,2.514,0,0,1,.2-.181.777.777,0,0,1,.236.225c.062.116-.038.15-.132.116A2.384,2.384,0,0,1,401.05,239.231Z" transform="translate(-388.643 -232.566)" fill="#fbf4f8"/><path d="M417.983,251.508l-.725-.878a1.369,1.369,0,0,1-.334-.532.172.172,0,0,0-.176-.174.261.261,0,0,1-.075-.236c.066-.129.146-.236.311-.146.586.694,1.214,1.285,2.234.892a8.375,8.375,0,0,1,3,.483c1.28.487,1.36.6,1.393,1.967-.062.174-.12.348-.181.525.155.6-.116.81-.706.821s-1.076-.2-1.624-.181A4.908,4.908,0,0,1,417.983,251.508Z" transform="translate(-400.587 -240.563)" fill="#fc017a"/><path d="M440.25,229.228c.106-.489,1.082-.706.236-1.548.628.236.982.456,1.09.982a9.173,9.173,0,0,1,.895-.717c.2-.12.254-.6.6-.336.375.294-.118.487-.17.739-.257.15-.513.282-.456.659a.854.854,0,0,1-.381.826c-.339.278-.6.574-.953-.016C440.935,229.523,440.521,229.45,440.25,229.228Z" transform="translate(-418.617 -223.757)" fill="#fceef5"/><path d="M413.182,247.3l-.268.268c-.29-.014-.421-.3-.676-.386a1.115,1.115,0,0,1-.541-.558c.4-.108.706.113,1.051.249C412.893,247.019,413.038,247.163,413.182,247.3Z" transform="translate(-396.785 -238.337)" fill="#fc1b87"/><path d="M433.74,269.186a4.683,4.683,0,0,1,1.956,1.786,5,5,0,0,1-.04,3.274c-.116.294-.259.134-.4.029a3.362,3.362,0,0,0-2.031-2c-.751-.393-1.548-.647-2.321-.976-.567-.3-1.132-.593-1.683-.92a2.306,2.306,0,0,1-1.177-1.883c0-.317-.038-.652.247-.892.29-.094.5.087.727.212a1.8,1.8,0,0,0,1.007.339,1.739,1.739,0,0,1,.236.05,3.51,3.51,0,0,0,.732.11c.419.092.845.139,1.266.212a7.686,7.686,0,0,1,1.226.375C433.606,268.963,433.652,269.09,433.74,269.186Z" transform="translate(-409.283 -254.381)" fill="#fc017a"/><path d="M457.226,295.475a.273.273,0,0,0,.33.1c-.485.64-.176,1.412-.323,2.1-.058.271.1.593-.209.8a5.494,5.494,0,0,0-.344-2.824C456.934,295.828,456.991,295.407,457.226,295.475Z" transform="translate(-431.181 -275.706)" fill="#fce3ef"/><path d="M481.84,278.31c.212.083.315.146.284.275-.014.059-.11.1-.172.146a.942.942,0,0,1-.174-.252C481.76,278.423,481.828,278.339,481.84,278.31Z" transform="translate(-450.371 -262.587)" fill="#fce8f1"/><path d="M462.551,283.161c-.129,0-.217-.029-.193-.127.014-.056.113-.106.184-.129.033-.012.089.047.137.075Z" transform="translate(-435.52 -266.099)" fill="#fce8f1"/><path d="M401.27,261.2a2.238,2.238,0,0,0,1.085,1.695c.089.122.035.266-.071.28-.487.066-.955.019-1.339.52-.155.2-.612-.219-.862-.445-.348-.318-.085-.64.085-.941.134-.167.471-.162.375-.52-.1.179-.165.388-.356.489a2.465,2.465,0,0,0-.729,2.141c.146.706,0,.831-1,.927a1.8,1.8,0,0,1,.593.05c.236.085.45.2.456.471s-.236.273-.414.375c-.706.426-1.256,1.04-1.951,1.494-.438.287-.031,1.034-.459,1.436l-1.057.5c-.348.062-.775.407-.93-.236a1.776,1.776,0,0,0-.859-2.087c-1.252-.875-1.358-1.426-.725-2.841a5.467,5.467,0,0,0,.6-2.182,1.034,1.034,0,0,1,1.073-1.136,1.991,1.991,0,0,0,1.212-.471,1.156,1.156,0,0,0,.311-1.629.32.32,0,0,0,.181-.327c.384.257.669.652,1.142.779.17.045.353.127.495,0,.181-.164-.021-.306-.085-.45-.129-.29-.263-.576-.4-.866.421.038.645.365.91.624.158.15.236.45.534.315.259-.113.236-.375.236-.607a.537.537,0,0,0,.353-.534,13.634,13.634,0,0,0,2.443,2.151,2.821,2.821,0,0,0,.558.15,5.648,5.648,0,0,0,2.737.176,1.665,1.665,0,0,1,1.852.9c-.137.207-.546.113-.53.485l-.2-.085c-.318-.471-.852-.247-1.268-.4a2.679,2.679,0,0,1-1.355-.236c-.221-.188-.518.038-.742-.137l-.075.017-.071-.038c-.341-.174-.732-.186-1.082-.332l-.513-.325C401.079,260.483,401.079,260.483,401.27,261.2Z" transform="translate(-382.284 -247.079)" fill="#fceef5"/><path d="M448.546,264.8a2.451,2.451,0,0,0-1.7-.751c-.186-.1-.17-.2,0-.3a2.583,2.583,0,0,0,.706-1.271,3.484,3.484,0,0,1,1.177,2.294A.6.6,0,0,0,448.546,264.8Z" transform="translate(-423.559 -250.475)" fill="#fc0c80"/><path d="M447.181,245.617c.423-.384.412-.375.612.059s.706.16,1.038.543c-.059-.5-.706-.6-.4-1a.9.9,0,0,1,.81-.433c.609.089.15.642.375,1,1.073-1.243.859.3,1.28.518-.513.3-.106.862-.353,1.235l-.12-.023c-.2.141-.525-.868-.638.068a.507.507,0,0,1-.113.2c-.426.236-.071.28.089.375l.075.085c.2.471.652.591,1.111.706l-.062.236a6.452,6.452,0,0,1-1.612-.033c-.429-.11-.659-.633-.821-1.03-.127-.308-.236-.426-.539-.419a.193.193,0,0,1-.249.038,1.266,1.266,0,0,1-.647-1.177A3.427,3.427,0,0,1,447.181,245.617Z" transform="translate(-423.788 -236.949)" fill="#fcedf4"/><path d="M445.269,252.667a2.209,2.209,0,0,0,.576,1.038c-.028.11-.141.127-.214.188l-.17.381c-.456-.236-.393-.859-.9-1.126-.214-.113.365-.059.36-.317C445.022,252.746,445.069,252.547,445.269,252.667Z" transform="translate(-421.881 -242.95)" fill="#fc0e81"/><path d="M437.851,266.456v.3a5.506,5.506,0,0,1-2.89-.325,16.783,16.783,0,0,1,1.793.191c.576.12.607-.217.649-.6A.734.734,0,0,0,437.851,266.456Z" transform="translate(-414.572 -253.189)" fill="#fce3ef"/><path d="M458.978,256.307c.332.8-.5.438-.706.706-.139-.15-.308-.29-.176-.529a.821.821,0,0,1,.883-.177Z" transform="translate(-432.226 -245.716)" fill="#fcedf4"/><path d="M463.5,250.1l.176-.353c.125.236.732-.122.57.375S463.757,250.117,463.5,250.1Z" transform="translate(-436.396 -240.748)" fill="#fcedf4"/><path d="M449.25,257.371l.214-.188a.585.585,0,0,1,.158,0c.094.146.188.29.3.471C449.6,257.754,449.478,257.428,449.25,257.371Z" transform="translate(-425.499 -246.427)" fill="#fb3f99"/><path d="M439.684,231.728c.471.221,1.233-.047,1.24.976.369-.52,1.03-.63.661-1.44-.2-.438.334-.541.746-.419.216.41.066.845.094,1.268a.939.939,0,0,1-.037.236c-.845-.158-1.045,1.061-1.883.871-.143.306.421.292.236.555a.375.375,0,0,1-.471.085.5.5,0,0,1-.257-.582c.075-.355.315-.835-.414-.878-.2-.014-.014-.12.068-.143C440.227,232.1,439.624,231.9,439.684,231.728Z" transform="translate(-418.051 -226.255)" fill="#fcf1f6"/><path d="M446.59,249.38l-.344.167a1.639,1.639,0,0,1,.348-1.217C446.592,248.683,446.59,249.031,446.59,249.38Z" transform="translate(-423.201 -239.662)" fill="#fc76b6"/><path d="M438.829,243.99a.918.918,0,0,1-.266.116c-.122.014-.252-.066-.188-.2.035-.071.2-.092.3-.11S438.849,243.818,438.829,243.99Z" transform="translate(-417.171 -236.192)" fill="#fcf1f6"/><path d="M438.81,239.182c.025-.108.052-.207.158-.141a.292.292,0,0,1,.116.193c0,.089-.064.162-.155.113S438.855,239.23,438.81,239.182Z" transform="translate(-417.515 -232.543)" fill="#fcf1f6"/><path d="M371.707,266.455a5.173,5.173,0,0,0-.687,2.144,1.726,1.726,0,0,1-.334.885c-.066-.04-.132-.08-.2-.125.062.05.134.075.2.118a4,4,0,0,1-1.051,1.676,3.476,3.476,0,0,0-.908,3.6c-.108.287-.456.567.125.808.4.164.391.767.812.976a.471.471,0,0,1,.012.358c-.287.221-.45.779-.976.358-.219-.176-.236.042-.278.158a2.3,2.3,0,0,1-1.343,1.243,2.149,2.149,0,0,0-1,.826c-.118.2-.236.443-.537.221v-.176c-.2-.323-.259-.758-.706-.883a.623.623,0,0,1-.353-.706l1.343-.122c-.035-.682-.918-.471-1.051-1.094-.061-.29-.268-.518.066-.706.506-.29.162.257.306.332a.849.849,0,0,0,.3.146c.181.017.266-.125.261-.282,0-.261-.129-.555-.045-.775.1-.259-.261-.675.092-.706s.751-.6,1.177-.085c.134.167.3.3.51.085s.412-.351.4-.654a.845.845,0,0,0-.083-.236c-.315.191-.621-.36-.96,0-.059.062-.3.021-.4-.047-.162-.106-.061-.332.033-.375.642-.292.118-.626,0-.92.266-.184.423.08.616.054.257-.033.45-.158.442-.45,0-.17.28-.471-.216-.471a.442.442,0,0,1-.346-.52c.108-.313.292-.04.471,0,.64.162,1.913-.833,1.864-1.48-.031-.419.278-.621.41-.922-.236-.311-.57.116-.878-.2.609-.106,1.04-.647,1.72-.317.236.113.3-.1.28-.369a6.424,6.424,0,0,1,.155-2.212C371.229,265.93,371.232,266.426,371.707,266.455Z" transform="translate(-360.681 -252.869)" fill="#fceff6"/><path d="M369,313.96c.438-.332.654-.878,1.177-1.146.388-.2.866-.216,1.144-.706.1-.188.367-.313.341-.624-.023-.273.2-.315.4-.375.332-.094.15.207.219.273.363.342.442-.391.781-.236.581-.17,1.226-.033,1.77-.375.212-.127.36-.375.657-.346.649-.129.9.525,1.389.732.146.062.047.44-.122.628s-.45.325-.628.184c-.4-.313-.883-.225-1.412-.4.209.375.57.626.29,1.09-.2.332-.186.706-.751.751s-.435.887-.388,1.038a1.778,1.778,0,0,1-.375,1.956c-.118.1-.325.11-.358.311a.318.318,0,0,0,.174.019c.317,0,.826-.541.9.132a.751.751,0,0,1-.953.812l-1.235-.706c-.353-.6-1.071-.765-1.511-1.271-.471-.541-.991-1.038-1.49-1.553Z" transform="translate(-364.135 -287.131)" fill="#fcedf4"/><path d="M366,320.987c.666-.052.739.375.706.883C366.221,321.775,366.3,321.233,366,320.987Z" transform="translate(-361.841 -295.216)" fill="#fcedf4"/><path d="M384.89,314.594c.45-.129.584-.562.885-.866-.4-.029-.706.221-1.069.2-.17,0-.36.1-.445-.127a.29.29,0,0,1,.236-.4c.962-.137.819-.991,1.045-1.593.1-.275.014-.306-.6-.216-.026-.344.941-.431.236-.941.4-.139.311-1.287,1.126-.426.1-.375-.375-.76.271-.925.209-.052-.132-.355-.323-.471s-.323-.236-.191-.483c.15-.294.339-.16.5-.056.2.125.369.3.6.042.186-.2.341-.236.375.122.029.273.236.315.45.282a.435.435,0,0,0,.393-.41c.031-.236-.05-.419-.308-.44-.41-.033-.5-.6-.941-.555l1.071-.941c.236.375.612.2.93.236-.348.346-.859.5-1.238,1.057,1.711-.012,2.506,1.367,3.695,2.118a.941.941,0,0,0,.883,0l.525-.546.054-.064.071.05c.485.33.329.555-.118.734-.263.089-.236.471-.53.53-.32-.4-.756-.388-.859.056s-.518.941-.2,1.488c-.216.15-.271-.15-.438-.139-.207,0-.122-.236-.212-.325a.733.733,0,0,0-.856-.236c-.294.162-.031.393.064.6.188.4-.172,1,.443,1.28.064.029-.11.259-.273.214-.775-.2-1.1.375-1.482.843-.089.106-.118.323-.212.348-.263.071-.375-.582-.706-.212-.155.179.5.216.236.553-.106.139-.236.323-.375.355-.271.062-.071-.2-.132-.294-.085-.139-.176-.249-.339-.139-.113.075-.29.186-.158.346.214.263.116.351-.162.386A6.155,6.155,0,0,1,384.89,314.594Z" transform="translate(-375.789 -284.058)" fill="#fceaf3"/><path d="M403.809,346.921l-1.059-.176v-.176h0C403.305,345.921,403.38,345.945,403.809,346.921Z" transform="translate(-389.943 -314.444)" fill="#fce7f1"/><path d="M402.192,344.9c-.363-.089-.44-1.03-1.059-.353-.108-.162-.12-.393-.375-.45-.214-.052-.094-.325-.075-.315.36.167.772-.8,1.118.075.236.581.758.551,1.271.336-.029.17.725.617-.181.485-.16-.023-.35.143-.525.225Z" transform="translate(-388.324 -312.426)" fill="#fceaf3"/><path d="M390.34,257.224l.176.176c-.054.012-.134,0-.16.042-.129.17-.012.549-.419.471a.181.181,0,0,1-.174-.236.462.462,0,0,1,.576-.453Z" transform="translate(-380.006 -246.458)" fill="#fbf4f8"/><path d="M370.247,279.174c-.164-.021-.28-.092-.212-.275s.11-.355.325-.334a.261.261,0,0,1,.236.3C370.574,279.066,370.426,279.136,370.247,279.174Z" transform="translate(-364.911 -262.78)" fill="#fbf4f8"/><path d="M366.68,281.578c.038-.45.071-.73.438-.918C367.193,281.089,366.96,281.3,366.68,281.578Z" transform="translate(-362.361 -264.384)" fill="#fbf4f8"/><path d="M395.257,261.751a1.106,1.106,0,0,1,.4.692h-.219c-.108-.174-.216-.35-.323-.525S395.114,261.727,395.257,261.751Z" transform="translate(-384.069 -249.917)" fill="#fc4fa2"/><path d="M394.233,259.975l-.146.172a1.177,1.177,0,0,1-.358-.727.736.736,0,0,1,.5.555Z" transform="translate(-383.045 -248.142)" fill="#fb4ea1"/><path d="M390,253.459c.456-.094.365.355.539.543C390.176,254,390.132,253.685,390,253.459Z" transform="translate(-380.193 -243.574)" fill="#fbbada"/><path d="M381.334,306.25c-.236-.012-.576.025-.576-.261,0-.657-.593-.682-.918-1,.106-.275.381-.375.628-.5l.883,1.589c.05.045.066.087.042.125S381.353,306.25,381.334,306.25Z" transform="translate(-372.424 -282.598)" fill="#fcedf4"/><path d="M385.854,297.985c-.12-.259.016-.348.214-.346a.41.41,0,0,1,.429.44c.012.249-.062.487-.356.471C385.7,298.549,385.967,298.145,385.854,297.985Z" transform="translate(-376.988 -277.366)" fill="#fcd9ea"/><path d="M386.19,311.411l.017-.181a.657.657,0,0,0,.852.344,9.155,9.155,0,0,1,.916-.188,2.424,2.424,0,0,1-1.77.375Z" transform="translate(-377.28 -287.759)" fill="#fceaf3"/><path d="M415,311.946c-.278.659-.779.645-1.306.386a.814.814,0,0,1-.407-1.177,1.066,1.066,0,0,1,1.551-.489l-.236.162c-.092.193-.268.1-.41.127a.353.353,0,0,0-.186.075c.075.092-.05.021.056-.031s-.029.016.085-.033a1.233,1.233,0,0,1,.812.172l.17.165A1.051,1.051,0,0,1,415,311.946Z" transform="translate(-397.912 -287.21)" fill="#fce0ed"/><path d="M419.25,322.28c.127-.236.184-.525.53-.529-.1.2-.134.393.118.5.706.315.014.833.158,1.247.042.118-.311-.023-.3-.047C419.963,322.894,419.245,322.751,419.25,322.28Z" transform="translate(-402.559 -295.804)" fill="#fce5f0"/><path d="M432.478,329.076a.325.325,0,0,1-.353.353c-.212-.172-.263-.426-.08-.584S432.377,328.911,432.478,329.076Z" transform="translate(-412.257 -301.188)" fill="#fce3ef"/><path d="M420.839,314.492c0-.236-.127-.471.132-.652.35.344.2.739.118,1.126a.566.566,0,0,1-.125.014C420.952,314.819,421.013,314.621,420.839,314.492Z" transform="translate(-403.75 -289.755)" fill="#fc3997"/><path d="M417.727,312.139l-.889-.056c-.05-.047-.062-.092-.04-.129s.04-.059.059-.059l.516-.064C417.529,311.887,417.677,311.953,417.727,312.139Z" transform="translate(-400.676 -288.218)" fill="#fc55a5"/><path d="M430.2,328.6c.083-.236-.236-.433.04-.692a.45.45,0,0,1-.04.692Z" transform="translate(-410.873 -300.514)" fill="#fce5f0"/><path d="M409.535,282.916c-.017-1.024-.062-2.064,1.37-2.186.054,0,.106-.118.146-.188.44-.788.438-.788,1.153-.826-.341-.52-.412-.539-1.4-.356a.77.77,0,0,1,.706-.551c.217-.042.619.311.621-.137,0-.28.207-.72-.236-.913-.164-.071-.236-.16-.141-.323s.2,0,.282-.019a.393.393,0,0,0,.3-.52c-.259-.737.261-.784.727-.9h0c-.1.671-.1.671.788,1.351.033-.706.332-.9.941-.532.184.11.327,0,.419-.184l1.567.908c.158.263.489.263.718.421-.146.358-.375.236-.586.162-.669.941-.017,1.753.225,2.61-.344.414.019.675.315.982-.344.062-.609,0-.826.186-.633.57-.838.471-1.226-.492l-.767.506c-.019.2.8-.075.236.4-.386.334.638.609-.016.889-.765.327-.271.525.089.746-.3.356-.591.219-.885,0C412.825,282.405,411.213,282.523,409.535,282.916Z" transform="translate(-395.128 -260.82)" fill="#fceaf3"/><path d="M440.417,283.154l.471-.05c-.247-.2-.57-.212-.607-.534a14.43,14.43,0,0,1,3.464,1.576,1.789,1.789,0,0,1,.941,1.469c-.16.129-.284.36-.546.179C443.177,284.518,441.678,284,440.417,283.154Z" transform="translate(-418.64 -265.844)" fill="#fce6f0"/><path d="M416.383,321a.588.588,0,0,1-.883,0Z" transform="translate(-399.692 -295.23)" fill="#fce7f1"/><path d="M418.034,256.637c-.906-.158-1.019-.375-.706-1.177C417.333,255.985,417.837,256.183,418.034,256.637Z" transform="translate(-400.969 -245.115)" fill="#fceef5"/><path d="M408,245.483a.375.375,0,0,1,.193-.35c.282.035.654-.092.685.386Z" transform="translate(-393.955 -237.216)" fill="#fb65ae"/><path d="M417.384,252c.184.134.363.268.334.532C417.278,252.56,417.155,252.391,417.384,252Z" transform="translate(-401.046 -242.468)" fill="#fceef5"/><path d="M414,249.077c.325-.047.419.311.675.386a.777.777,0,0,0,.031.122.854.854,0,0,1-.706-.508Z" transform="translate(-398.545 -240.23)" fill="#fceef5"/><path d="M446,272.223c.45.054,1.021-.282,1.268.4Z" transform="translate(-423.014 -257.905)" fill="#fce3ef"/><path d="M428.062,268.186a.8.8,0,0,1-.287-.669c0-.249.125-.555.45-.176C427.965,267.581,428.158,267.91,428.062,268.186Z" transform="translate(-409.077 -254.063)" fill="#fceaf3"/><path d="M431.89,269.26a1.183,1.183,0,0,1,1.082.332,1.478,1.478,0,0,1-1.082-.332Z" transform="translate(-412.225 -255.657)" fill="#fce3ef"/><path d="M437.11,270.507c.236.118.574-.35.742.137A1,1,0,0,1,437.11,270.507Z" transform="translate(-416.216 -256.552)" fill="#fce3ef"/><path d="M408.948,273c.5.181.717.518.45,1.012a1.6,1.6,0,0,1-1.7.375c-.471-.375-.336-.812.019-1.212.221-.11.329.108.494.17.317.15.471-.068.642-.275A.542.542,0,0,0,408.948,273Z" transform="translate(-393.493 -258.527)" fill="#fc0c7f"/><path d="M424.5,272.685a2.033,2.033,0,0,0,.094-.325c.035-.276-.019-.614.341-.69.221-.047.3.188.221.348C425.01,272.3,425.182,272.929,424.5,272.685Z" transform="translate(-406.574 -257.504)" fill="#fceaf3"/><path d="M428.145,275.83a2.036,2.036,0,0,1-.313.176c-.108.033-.16-.05-.122-.139a.3.3,0,0,1,.17-.162C427.934,275.691,428,275.776,428.145,275.83Z" transform="translate(-409.019 -260.593)" fill="#fceaf3"/><path d="M409.127,273.082l-.367-.341a.483.483,0,0,1,.355-.313.6.6,0,0,1,.132.2A.454.454,0,0,1,409.127,273.082Z" transform="translate(-394.538 -258.09)" fill="#fc3f99"/><path d="M410.293,272.383l-.021-.2c.311-.068.628-.179.878.141h0A.676.676,0,0,1,410.293,272.383Z" transform="translate(-395.693 -257.846)" fill="#fc3896"/><path d="M458.2,254.284a1.459,1.459,0,0,1-.883.176,1.234,1.234,0,0,0-.287-.831C457.7,253.489,457.929,253.917,458.2,254.284Z" transform="translate(-431.448 -243.694)" fill="#fceaf3"/><path d="M456.055,257.25l.176.53c-.3-.012-.633.064-.852-.3C455.573,257.276,455.83,257.3,456.055,257.25Z" transform="translate(-430.186 -246.483)" fill="#fceaf3"/><path d="M379.051,293.394c-.261.15.087.607-.3.638-.325.029-.266-.327-.334-.525s-.064-.45.219-.454C378.806,293.051,379.061,293.1,379.051,293.394Z" transform="translate(-371.311 -273.859)" fill="#fcf1f7"/><path d="M389.249,279.975c-.628.137-.506-.225-.429-.645.327.155.251.485.426.652Z" transform="translate(-379.243 -263.367)" fill="#fcf1f7"/><path d="M383.49,288.28c.127,0,.249.059.236.181,0,.083-.122.164-.207.221-.019.012-.143-.08-.167-.143a.181.181,0,0,1,.139-.259Z" transform="translate(-375.095 -270.21)" fill="#fcf1f7"/><path d="M371.678,309.169c-.049-.108-.113-.181-.1-.236s.1-.108.158-.16c.033.059.1.122.092.176S371.745,309.06,371.678,309.169Z" transform="translate(-366.107 -285.879)" fill="#fcf1f7"/><path d="M385.95,333.08c.122,0,.209.035.167.139a.285.285,0,0,1-.179.134.106.106,0,0,1-.132-.141C385.825,333.151,385.91,333.113,385.95,333.08Z" transform="translate(-376.978 -304.467)" fill="#fceaf3"/><path d="M415.963,312.1a1.7,1.7,0,0,1-.019.188l-.28.445C415.544,312.352,415.695,312.192,415.963,312.1Z" transform="translate(-399.785 -288.424)" fill="#fc8cc1"/><path d="M419.28,288.221c.628-.139,1.256-.287,1.883-.417a2.3,2.3,0,0,0,2.13-2.389c-.033-.179-.141-.4.2-.375a2.369,2.369,0,0,1-1.96,3.309,9.75,9.75,0,0,1-1.314.059C419.9,288.405,419.51,288.716,419.28,288.221Z" transform="translate(-402.583 -267.73)" fill="#fc0d80"/><path d="M422.05,281.9c-.026.2-.071.419-.336.4-.193,0-.174-.2-.167-.336.012-.181.092-.353.29-.375S422.041,281.746,422.05,281.9Z" transform="translate(-404.313 -265.096)" fill="#fceef5"/><path d="M416.84,298.567c.273.278.633.1.941.184a5.7,5.7,0,0,1-1.692.172.885.885,0,0,1,.751-.356Z" transform="translate(-400.143 -278.075)" fill="#fc1b87"/><path d="M411.692,299.475c0,.127-.054.236-.184.236a.2.2,0,0,1-.219-.2.235.235,0,0,1,.139-.174.181.181,0,0,1,.263.141Z" transform="translate(-396.472 -278.647)" fill="#fceef5"/><path d="M436.051,284.108c-.17.075-.143.236-.2.375-.129-.2-.236-.45-.066-.636C435.865,283.777,436.021,283.958,436.051,284.108Z" transform="translate(-415.136 -266.811)" fill="#fc54a5"/><path d="M410.3,273.064l.856-.064c.059.76-.313.8-.875.525Z" transform="translate(-395.7 -258.527)" fill="#fcd9ea"/></g></g></svg>