<svg xmlns="http://www.w3.org/2000/svg" width="23.615" height="37.823" viewBox="0 0 23.615 37.823"><g transform="translate(-96.169)"><g transform="translate(96.169)"><path d="M116.325,3.458a11.808,11.808,0,0,0-20.156,8.349V26.016a11.807,11.807,0,0,0,23.615,0V11.807A11.734,11.734,0,0,0,116.325,3.458Zm1.457,22.558a9.806,9.806,0,0,1-19.612,0V11.807a9.806,9.806,0,1,1,19.612,0Z" transform="translate(-96.169)" fill="#fff"/></g><g transform="translate(106.977 6.204)"><g transform="translate(0)"><path d="M243.47,83.979a1,1,0,0,0-1,1v2.351a1,1,0,1,0,2,0V84.98A1,1,0,0,0,243.47,83.979Z" transform="translate(-242.469 -83.979)" fill="#fff"/></g></g><g transform="translate(106.977 11.236)"><g transform="translate(0)"><path d="M243.47,152.1a1,1,0,0,0-1,1v.3a1,1,0,1,0,2,0v-.3A1,1,0,0,0,243.47,152.1Z" transform="translate(-242.469 -152.099)" fill="#fff"/></g></g></g></svg>