<svg xmlns="http://www.w3.org/2000/svg" width="42" height="42" viewBox="0 0 42 42"><path d="M19.49.139A6.632,6.632,0,0,1,24.32.968a6.7,6.7,0,0,1,2.97,7.514,7.218,7.218,0,0,1-2.154,3.345,3.476,3.476,0,0,0,3.878,5.633c1.033-.411,1.528-1.506,2.461-2.067a6.66,6.66,0,0,1,9.88,2.6,6.673,6.673,0,0,1-11.112,7.183A3.414,3.414,0,0,0,26,24.522a3.478,3.478,0,0,0-1.655,3.824,5.153,5.153,0,0,0,1.679,2.43,6.668,6.668,0,1,1-10.183.494c.677-.886,1.709-1.563,1.963-2.715a3.475,3.475,0,0,0-6.11-3.01,6.671,6.671,0,1,1-1.016-9.75c.819.571,1.372,1.494,2.331,1.863a3.529,3.529,0,0,0,3.679-.713,3.488,3.488,0,0,0,.7-4.121c-.451-.955-1.467-1.437-2.012-2.325A6.68,6.68,0,0,1,19.49.139Zm.2,2.741a3.971,3.971,0,1,0,3.526,7,3.972,3.972,0,0,0-3.526-7ZM34.242,17.027A3.974,3.974,0,0,0,35.765,24.8a3.972,3.972,0,1,0-1.524-7.773Zm-28.321.213a3.976,3.976,0,1,0,4.724,3.629A4,4,0,0,0,5.921,17.239ZM20.283,31.431a3.98,3.98,0,1,0,4.628,2.615A4.016,4.016,0,0,0,20.283,31.431Z" fill="#fefefe"/><path d="M20.259,4.038a2.7,2.7,0,1,1-2.1,2.634A2.692,2.692,0,0,1,20.259,4.038Z" fill="#fefefe"/><path d="M34.256,18.363a2.714,2.714,0,0,1,3.752,2.306,2.693,2.693,0,1,1-3.752-2.306Z" fill="#fefefe"/><path d="M5.716,18.621a2.7,2.7,0,1,1-1.595,3.385A2.724,2.724,0,0,1,5.716,18.621Z" fill="#fefefe"/><path d="M20.25,32.77a2.7,2.7,0,1,1-1.791,2.66A2.712,2.712,0,0,1,20.25,32.77Z" fill="#fefefe"/></svg>