<svg xmlns="http://www.w3.org/2000/svg" xmlns:xlink="http://www.w3.org/1999/xlink" width="35.616" height="63" viewBox="0 0 35.616 63"><defs><linearGradient id="a" x1="-0.617" y1="1.062" x2="1" y2="0.034" gradientUnits="objectBoundingBox"><stop offset="0" stop-color="#2ac384"/><stop offset="1" stop-color="#42c1d3"/></linearGradient></defs><g transform="translate(-0.914)"><path d="M24.48,0H18.5L13.24,25.524l.1.049a6.818,6.818,0,0,1,2.025,1.644,5.8,5.8,0,0,1,.393.519,6.726,6.726,0,0,1,.932,5.661.3.3,0,0,1-.02.082,6.717,6.717,0,0,1-.423,1.073c-.02.04-.037.082-.057.121a6.766,6.766,0,0,1-.586.934l-.094.129a6.837,6.837,0,0,1-.729.791l-.126.116a6.862,6.862,0,0,1-.853.645l-.146.089a6.8,6.8,0,0,1-.967.494l-.148.057a6.747,6.747,0,0,1-1.068.309l-.133.022a7.334,7.334,0,0,1-.742.069L6.736,57.084H16.98l10.9-52.919A3.461,3.461,0,0,0,24.48,0Z" transform="translate(8.571 0)" fill="url(#a)"/><path d="M14.923,33.691a6.812,6.812,0,0,1-1.016-.826q-.232-.227-.445-.48a6.838,6.838,0,0,1-.742-1.075q-.158-.287-.289-.588a6.739,6.739,0,0,1-.549-2.613A6.652,6.652,0,0,1,12.13,26.2a.327.327,0,0,1,.02-.082,6.714,6.714,0,0,1,.423-1.073c.02-.04.037-.082.057-.119a6.773,6.773,0,0,1,.586-.932l.094-.129a6.818,6.818,0,0,1,.729-.794l.126-.116a6.81,6.81,0,0,1,.853-.645l.146-.089a6.8,6.8,0,0,1,.967-.494l.151-.057a6.737,6.737,0,0,1,1.068-.309l.133-.022a7.318,7.318,0,0,1,.771-.074L22.151,2.4H11.91L1,55.3a3.461,3.461,0,0,0,3.4,4.165h5.982l5.236-25.383c-.042-.022-.091-.032-.133-.054A5.838,5.838,0,0,1,14.923,33.691Z" transform="translate(0.025 3.533)" fill="url(#a)"/><path d="M32.386,11.963A17.707,17.707,0,0,0,20.308,5.652c-.531-.047-1.07-.072-1.6-.072a17.771,17.771,0,0,0-1.587,35.474c.531.047,1.07.072,1.6.072a17.764,17.764,0,0,0,13.663-29.17Zm-7.1,11.98a6.6,6.6,0,0,1-.22,1.182.116.116,0,0,1-.02.079,6.5,6.5,0,0,1-.408,1.038c-.02.04-.035.079-.054.116a6.566,6.566,0,0,1-.569.9l-.091.124a6.576,6.576,0,0,1-.707.769l-.121.111a6.632,6.632,0,0,1-.828.625l-.141.087a6.578,6.578,0,0,1-.934.47l-.146.054a6.579,6.579,0,0,1-1.036.3l-.129.02a6.555,6.555,0,0,1-1.13.106h-.025q-.3,0-.6-.027a6.633,6.633,0,0,1-1.313-.247,6.554,6.554,0,0,1-1.2-.494q-.284-.151-.549-.326a6.6,6.6,0,0,1-.989-.8q-.225-.222-.428-.465a6.613,6.613,0,0,1-.714-1.041,6.314,6.314,0,0,1-.279-.571,6.529,6.529,0,0,1-.539-2.521,6.445,6.445,0,0,1,.247-1.854.116.116,0,0,1,.02-.079,6.5,6.5,0,0,1,.413-1.041c.02-.04.035-.079.054-.116a6.536,6.536,0,0,1,.569-.9l.091-.124a6.581,6.581,0,0,1,.707-.769l.121-.111a6.607,6.607,0,0,1,.828-.625l.141-.087a6.6,6.6,0,0,1,.934-.47l.146-.054a6.541,6.541,0,0,1,1.036-.3l.129-.022a6.581,6.581,0,0,1,1.13-.106h.025q.3,0,.6.027a6.688,6.688,0,0,1,.667.094,6.583,6.583,0,0,1,1.258.376q.3.124.583.274a6.6,6.6,0,0,1,1.96,1.592q.2.247.383.494a6.546,6.546,0,0,1,1.125,4.3Z" transform="translate(0 8.214)" fill="url(#a)"/></g></svg>